<?xml version="1.0" encoding="UTF-8" standalone="no"?>
<!DOCTYPE svg PUBLIC "-//W3C//DTD SVG 1.1//EN"
 "http://www.w3.org/Graphics/SVG/1.1/DTD/svg11.dtd">
<!-- Generated by graphviz version 12.2.1 (20241206.2353)
 -->
<!-- Title: dependency&#45;cruiser output Pages: 1 -->
<svg width="971pt" height="469pt"
 viewBox="0.00 0.00 970.50 468.88" xmlns="http://www.w3.org/2000/svg" xmlns:xlink="http://www.w3.org/1999/xlink">
<g id="graph0" class="graph" transform="scale(1 1) rotate(0) translate(4 464.88)">
<title>dependency&#45;cruiser output</title>
<polygon fill="white" stroke="none" points="-4,4 -4,-464.88 966.5,-464.88 966.5,4 -4,4"/>
<g id="clust1" class="cluster">
<title>cluster_src</title>
<path fill="#ffffff" stroke="black" stroke-width="2" d="M20,-8.88C20,-8.88 942.5,-8.88 942.5,-8.88 948.5,-8.88 954.5,-14.88 954.5,-20.88 954.5,-20.88 954.5,-440.88 954.5,-440.88 954.5,-446.88 948.5,-452.88 942.5,-452.88 942.5,-452.88 20,-452.88 20,-452.88 14,-452.88 8,-446.88 8,-440.88 8,-440.88 8,-20.88 8,-20.88 8,-14.88 14,-8.88 20,-8.88"/>
<text text-anchor="middle" x="481.25" y="-440.33" font-family="Helvetica,sans-Serif" font-weight="bold" font-size="9.00">src</text>
</g>
<g id="clust2" class="cluster">
<title>cluster_src/lib</title>
<path fill="#ffffff" stroke="black" stroke-width="2" d="M28,-16.88C28,-16.88 934.5,-16.88 934.5,-16.88 940.5,-16.88 946.5,-22.88 946.5,-28.88 946.5,-28.88 946.5,-414.88 946.5,-414.88 946.5,-420.88 940.5,-426.88 934.5,-426.88 934.5,-426.88 28,-426.88 28,-426.88 22,-426.88 16,-420.88 16,-414.88 16,-414.88 16,-28.88 16,-28.88 16,-22.88 22,-16.88 28,-16.88"/>
<text text-anchor="middle" x="481.25" y="-414.33" font-family="Helvetica,sans-Serif" font-weight="bold" font-size="9.00">lib</text>
</g>
<g id="clust3" class="cluster">
<title>cluster_src/lib/constants</title>
<path fill="#ffffff" stroke="black" stroke-width="2" d="M461.25,-228.88C461.25,-228.88 670.5,-228.88 670.5,-228.88 676.5,-228.88 682.5,-234.88 682.5,-240.88 682.5,-240.88 682.5,-388.88 682.5,-388.88 682.5,-394.88 676.5,-400.88 670.5,-400.88 670.5,-400.88 461.25,-400.88 461.25,-400.88 455.25,-400.88 449.25,-394.88 449.25,-388.88 449.25,-388.88 449.25,-240.88 449.25,-240.88 449.25,-234.88 455.25,-228.88 461.25,-228.88"/>
<text text-anchor="middle" x="565.88" y="-388.33" font-family="Helvetica,sans-Serif" font-weight="bold" font-size="9.00">constants</text>
</g>
<g id="clust4" class="cluster">
<title>cluster_src/lib/controls</title>
<path fill="#ffffff" stroke="black" stroke-width="2" d="M98,-164.88C98,-164.88 429.25,-164.88 429.25,-164.88 435.25,-164.88 441.25,-170.88 441.25,-176.88 441.25,-176.88 441.25,-218.88 441.25,-218.88 441.25,-224.88 435.25,-230.88 429.25,-230.88 429.25,-230.88 98,-230.88 98,-230.88 92,-230.88 86,-224.88 86,-218.88 86,-218.88 86,-176.88 86,-176.88 86,-170.88 92,-164.88 98,-164.88"/>
<text text-anchor="middle" x="263.62" y="-218.33" font-family="Helvetica,sans-Serif" font-weight="bold" font-size="9.00">controls</text>
</g>
<g id="clust5" class="cluster">
<title>cluster_src/lib/interfaces</title>
<path fill="#ffffff" stroke="black" stroke-width="2" d="M461.25,-24.88C461.25,-24.88 926.5,-24.88 926.5,-24.88 932.5,-24.88 938.5,-30.88 938.5,-36.88 938.5,-36.88 938.5,-208.88 938.5,-208.88 938.5,-214.88 932.5,-220.88 926.5,-220.88 926.5,-220.88 461.25,-220.88 461.25,-220.88 455.25,-220.88 449.25,-214.88 449.25,-208.88 449.25,-208.88 449.25,-36.88 449.25,-36.88 449.25,-30.88 455.25,-24.88 461.25,-24.88"/>
<text text-anchor="middle" x="693.88" y="-208.33" font-family="Helvetica,sans-Serif" font-weight="bold" font-size="9.00">interfaces</text>
</g>
<!-- src/lib/constants/AvailableMeasureModes.ts -->
<g id="node1" class="node">
<title>src/lib/constants/AvailableMeasureModes.ts</title>
<g id="a_node1"><a xlink:href="src/lib/constants/AvailableMeasureModes.ts" xlink:title="AvailableMeasureModes.ts">
<path fill="#ddfeff" stroke="black" d="M656.96,-254.76C656.96,-254.76 541.79,-254.76 541.79,-254.76 538.83,-254.76 535.88,-251.8 535.88,-248.84 535.88,-248.84 535.88,-242.93 535.88,-242.93 535.88,-239.97 538.83,-237.01 541.79,-237.01 541.79,-237.01 656.96,-237.01 656.96,-237.01 659.92,-237.01 662.88,-239.97 662.88,-242.93 662.88,-242.93 662.88,-248.84 662.88,-248.84 662.88,-251.8 659.92,-254.76 656.96,-254.76"/>
<text text-anchor="start" x="543.88" y="-242.21" font-family="Helvetica,sans-Serif" font-size="9.00">AvailableMeasureModes.ts</text>
</a>
</g>
</g>
<!-- src/lib/constants/AvailableModes.ts -->
<g id="node2" class="node">
<title>src/lib/constants/AvailableModes.ts</title>
<g id="a_node2"><a xlink:href="src/lib/constants/AvailableModes.ts" xlink:title="AvailableModes.ts">
<path fill="#ddfeff" stroke="black" d="M638.96,-374.76C638.96,-374.76 559.79,-374.76 559.79,-374.76 556.83,-374.76 553.88,-371.8 553.88,-368.84 553.88,-368.84 553.88,-362.93 553.88,-362.93 553.88,-359.97 556.83,-357.01 559.79,-357.01 559.79,-357.01 638.96,-357.01 638.96,-357.01 641.92,-357.01 644.88,-359.97 644.88,-362.93 644.88,-362.93 644.88,-368.84 644.88,-368.84 644.88,-371.8 641.92,-374.76 638.96,-374.76"/>
<text text-anchor="start" x="561.88" y="-362.21" font-family="Helvetica,sans-Serif" font-size="9.00">AvailableModes.ts</text>
</a>
</g>
</g>
<!-- src/lib/constants/defaultControlOptions.ts -->
<g id="node3" class="node">
<title>src/lib/constants/defaultControlOptions.ts</title>
<g id="a_node3"><a xlink:href="src/lib/constants/defaultControlOptions.ts" xlink:title="defaultControlOptions.ts">
<path fill="#ddfeff" stroke="black" d="M650.58,-284.76C650.58,-284.76 548.17,-284.76 548.17,-284.76 545.21,-284.76 542.25,-281.8 542.25,-278.84 542.25,-278.84 542.25,-272.93 542.25,-272.93 542.25,-269.97 545.21,-267.01 548.17,-267.01 548.17,-267.01 650.58,-267.01 650.58,-267.01 653.54,-267.01 656.5,-269.97 656.5,-272.93 656.5,-272.93 656.5,-278.84 656.5,-278.84 656.5,-281.8 653.54,-284.76 650.58,-284.76"/>
<text text-anchor="start" x="550.25" y="-272.21" font-family="Helvetica,sans-Serif" font-size="9.00">defaultControlOptions.ts</text>
</a>
</g>
</g>
<!-- src/lib/interfaces/TerradrawControlOptions.ts -->
<g id="node4" class="node">
<title>src/lib/interfaces/TerradrawControlOptions.ts</title>
<g id="a_node4"><a xlink:href="src/lib/interfaces/TerradrawControlOptions.ts" xlink:title="TerradrawControlOptions.ts">
<path fill="#ddfeff" stroke="black" d="M657.33,-180.76C657.33,-180.76 541.42,-180.76 541.42,-180.76 538.46,-180.76 535.5,-177.8 535.5,-174.84 535.5,-174.84 535.5,-168.93 535.5,-168.93 535.5,-165.97 538.46,-163.01 541.42,-163.01 541.42,-163.01 657.33,-163.01 657.33,-163.01 660.29,-163.01 663.25,-165.97 663.25,-168.93 663.25,-168.93 663.25,-174.84 663.25,-174.84 663.25,-177.8 660.29,-180.76 657.33,-180.76"/>
<text text-anchor="start" x="543.5" y="-168.21" font-family="Helvetica,sans-Serif" font-size="9.00">TerradrawControlOptions.ts</text>
</a>
</g>
</g>
<!-- src/lib/constants/defaultControlOptions.ts&#45;&gt;src/lib/interfaces/TerradrawControlOptions.ts -->
<g id="edge1" class="edge">
<title>src/lib/constants/defaultControlOptions.ts&#45;&gt;src/lib/interfaces/TerradrawControlOptions.ts</title>
<path fill="none" stroke="#000000" stroke-opacity="0.200000" d="M542.09,-274.58C531.45,-271.22 522.27,-265.2 517.75,-254.88 504.39,-224.38 542.05,-198.75 570.59,-184.37"/>
<polygon fill="none" stroke="#000000" stroke-opacity="0.200000" points="571.41,-186.3 575.88,-181.79 569.57,-182.53 571.41,-186.3"/>
</g>
<!-- src/lib/interfaces/ModeOptions.ts -->
<g id="node8" class="node">
<title>src/lib/interfaces/ModeOptions.ts</title>
<g id="a_node8"><a xlink:href="src/lib/interfaces/ModeOptions.ts" xlink:title="ModeOptions.ts">
<path fill="#ddfeff" stroke="black" d="M781.58,-161.76C781.58,-161.76 713.67,-161.76 713.67,-161.76 710.71,-161.76 707.75,-158.8 707.75,-155.84 707.75,-155.84 707.75,-149.93 707.75,-149.93 707.75,-146.97 710.71,-144.01 713.67,-144.01 713.67,-144.01 781.58,-144.01 781.58,-144.01 784.54,-144.01 787.5,-146.97 787.5,-149.93 787.5,-149.93 787.5,-155.84 787.5,-155.84 787.5,-158.8 784.54,-161.76 781.58,-161.76"/>
<text text-anchor="start" x="715.75" y="-149.21" font-family="Helvetica,sans-Serif" font-size="9.00">ModeOptions.ts</text>
</a>
</g>
</g>
<!-- src/lib/interfaces/TerradrawControlOptions.ts&#45;&gt;src/lib/interfaces/ModeOptions.ts -->
<g id="edge25" class="edge">
<title>src/lib/interfaces/TerradrawControlOptions.ts&#45;&gt;src/lib/interfaces/ModeOptions.ts</title>
<path fill="none" stroke="#000000" stroke-opacity="0.200000" d="M663.67,-163.66C675.83,-162.08 688.36,-160.45 699.88,-158.96"/>
<polygon fill="none" stroke="#000000" stroke-opacity="0.200000" points="700.11,-161.04 705.79,-158.19 699.57,-156.88 700.11,-161.04"/>
</g>
<!-- src/lib/interfaces/TerradrawMode.ts -->
<g id="node20" class="node">
<title>src/lib/interfaces/TerradrawMode.ts</title>
<g id="a_node20"><a xlink:href="src/lib/interfaces/TerradrawMode.ts" xlink:title="TerradrawMode.ts">
<path fill="#ddfeff" stroke="black" d="M786.46,-194.76C786.46,-194.76 708.79,-194.76 708.79,-194.76 705.83,-194.76 702.88,-191.8 702.88,-188.84 702.88,-188.84 702.88,-182.93 702.88,-182.93 702.88,-179.97 705.83,-177.01 708.79,-177.01 708.79,-177.01 786.46,-177.01 786.46,-177.01 789.42,-177.01 792.38,-179.97 792.38,-182.93 792.38,-182.93 792.38,-188.84 792.38,-188.84 792.38,-191.8 789.42,-194.76 786.46,-194.76"/>
<text text-anchor="start" x="710.88" y="-182.21" font-family="Helvetica,sans-Serif" font-size="9.00">TerradrawMode.ts</text>
</a>
</g>
</g>
<!-- src/lib/interfaces/TerradrawControlOptions.ts&#45;&gt;src/lib/interfaces/TerradrawMode.ts -->
<g id="edge26" class="edge">
<title>src/lib/interfaces/TerradrawControlOptions.ts&#45;&gt;src/lib/interfaces/TerradrawMode.ts</title>
<path fill="none" stroke="#000000" stroke-opacity="0.200000" d="M663.67,-177.94C674.23,-178.95 685.07,-179.99 695.29,-180.97"/>
<polygon fill="none" stroke="#000000" stroke-opacity="0.200000" points="694.92,-183.04 701.09,-181.53 695.32,-178.86 694.92,-183.04"/>
</g>
<!-- src/lib/constants/defaultMeasureControlOptions.ts -->
<g id="node5" class="node">
<title>src/lib/constants/defaultMeasureControlOptions.ts</title>
<g id="a_node5"><a xlink:href="src/lib/constants/defaultMeasureControlOptions.ts" xlink:title="defaultMeasureControlOptions.ts">
<path fill="#ddfeff" stroke="black" d="M668.58,-314.76C668.58,-314.76 530.17,-314.76 530.17,-314.76 527.21,-314.76 524.25,-311.8 524.25,-308.84 524.25,-308.84 524.25,-302.93 524.25,-302.93 524.25,-299.97 527.21,-297.01 530.17,-297.01 530.17,-297.01 668.58,-297.01 668.58,-297.01 671.54,-297.01 674.5,-299.97 674.5,-302.93 674.5,-302.93 674.5,-308.84 674.5,-308.84 674.5,-311.8 671.54,-314.76 668.58,-314.76"/>
<text text-anchor="start" x="532.25" y="-302.21" font-family="Helvetica,sans-Serif" font-size="9.00">defaultMeasureControlOptions.ts</text>
</a>
</g>
</g>
<!-- src/lib/interfaces/MeasureControlOptions.ts -->
<g id="node6" class="node">
<title>src/lib/interfaces/MeasureControlOptions.ts</title>
<g id="a_node6"><a xlink:href="src/lib/interfaces/MeasureControlOptions.ts" xlink:title="MeasureControlOptions.ts">
<path fill="#ddfeff" stroke="black" d="M654.71,-122.76C654.71,-122.76 544.04,-122.76 544.04,-122.76 541.08,-122.76 538.12,-119.8 538.12,-116.84 538.12,-116.84 538.12,-110.93 538.12,-110.93 538.12,-107.97 541.08,-105.01 544.04,-105.01 544.04,-105.01 654.71,-105.01 654.71,-105.01 657.67,-105.01 660.62,-107.97 660.62,-110.93 660.62,-110.93 660.62,-116.84 660.62,-116.84 660.62,-119.8 657.67,-122.76 654.71,-122.76"/>
<text text-anchor="start" x="546.12" y="-110.21" font-family="Helvetica,sans-Serif" font-size="9.00">MeasureControlOptions.ts</text>
</a>
</g>
</g>
<!-- src/lib/constants/defaultMeasureControlOptions.ts&#45;&gt;src/lib/interfaces/MeasureControlOptions.ts -->
<g id="edge2" class="edge">
<title>src/lib/constants/defaultMeasureControlOptions.ts&#45;&gt;src/lib/interfaces/MeasureControlOptions.ts</title>
<path fill="none" stroke="#000000" stroke-opacity="0.200000" d="M526.82,-296.7C523,-293.59 519.86,-289.71 517.75,-284.88 512.31,-272.47 512.31,-175.3 517.75,-162.88 525.47,-145.24 543.08,-133.51 559.97,-125.96"/>
<polygon fill="none" stroke="#000000" stroke-opacity="0.200000" points="560.51,-128.01 565.24,-123.75 558.89,-124.13 560.51,-128.01"/>
</g>
<!-- src/lib/interfaces/MeasureControlOptions.ts&#45;&gt;src/lib/interfaces/ModeOptions.ts -->
<g id="edge23" class="edge">
<title>src/lib/interfaces/MeasureControlOptions.ts&#45;&gt;src/lib/interfaces/ModeOptions.ts</title>
<path fill="none" stroke="#000000" stroke-opacity="0.200000" d="M635.41,-123.23C656.13,-128.75 682.52,-135.79 704.4,-141.62"/>
<polygon fill="none" stroke="#000000" stroke-opacity="0.200000" points="703.83,-143.64 710.16,-143.16 704.91,-139.59 703.83,-143.64"/>
</g>
<!-- src/lib/interfaces/AreaUnit.ts -->
<g id="node15" class="node">
<title>src/lib/interfaces/AreaUnit.ts</title>
<g id="a_node15"><a xlink:href="src/lib/interfaces/AreaUnit.ts" xlink:title="AreaUnit.ts">
<path fill="#ddfeff" stroke="black" d="M772.21,-131.76C772.21,-131.76 723.04,-131.76 723.04,-131.76 720.08,-131.76 717.12,-128.8 717.12,-125.84 717.12,-125.84 717.12,-119.93 717.12,-119.93 717.12,-116.97 720.08,-114.01 723.04,-114.01 723.04,-114.01 772.21,-114.01 772.21,-114.01 775.17,-114.01 778.12,-116.97 778.12,-119.93 778.12,-119.93 778.12,-125.84 778.12,-125.84 778.12,-128.8 775.17,-131.76 772.21,-131.76"/>
<text text-anchor="start" x="725.12" y="-119.21" font-family="Helvetica,sans-Serif" font-size="9.00">AreaUnit.ts</text>
</a>
</g>
</g>
<!-- src/lib/interfaces/MeasureControlOptions.ts&#45;&gt;src/lib/interfaces/AreaUnit.ts -->
<g id="edge20" class="edge">
<title>src/lib/interfaces/MeasureControlOptions.ts&#45;&gt;src/lib/interfaces/AreaUnit.ts</title>
<path fill="none" stroke="#000000" stroke-opacity="0.200000" d="M660.7,-117.6C677.19,-118.61 694.57,-119.68 709.35,-120.59"/>
<polygon fill="none" stroke="#000000" stroke-opacity="0.200000" points="709.19,-122.68 715.31,-120.96 709.45,-118.49 709.19,-122.68"/>
</g>
<!-- src/lib/interfaces/DistanceUnit.ts -->
<g id="node16" class="node">
<title>src/lib/interfaces/DistanceUnit.ts</title>
<g id="a_node16"><a xlink:href="src/lib/interfaces/DistanceUnit.ts" xlink:title="DistanceUnit.ts">
<path fill="#ddfeff" stroke="black" d="M780.46,-69.76C780.46,-69.76 714.79,-69.76 714.79,-69.76 711.83,-69.76 708.88,-66.8 708.88,-63.84 708.88,-63.84 708.88,-57.93 708.88,-57.93 708.88,-54.97 711.83,-52.01 714.79,-52.01 714.79,-52.01 780.46,-52.01 780.46,-52.01 783.42,-52.01 786.38,-54.97 786.38,-57.93 786.38,-57.93 786.38,-63.84 786.38,-63.84 786.38,-66.8 783.42,-69.76 780.46,-69.76"/>
<text text-anchor="start" x="716.88" y="-57.21" font-family="Helvetica,sans-Serif" font-size="9.00">DistanceUnit.ts</text>
</a>
</g>
</g>
<!-- src/lib/interfaces/MeasureControlOptions.ts&#45;&gt;src/lib/interfaces/DistanceUnit.ts -->
<g id="edge21" class="edge">
<title>src/lib/interfaces/MeasureControlOptions.ts&#45;&gt;src/lib/interfaces/DistanceUnit.ts</title>
<path fill="none" stroke="#000000" stroke-opacity="0.200000" d="M661,-110.23C668.82,-107.71 676.26,-104.07 682.5,-98.88 690.18,-92.5 683.2,-84.7 690.5,-77.88 693.82,-74.79 697.69,-72.25 701.82,-70.18"/>
<polygon fill="none" stroke="#000000" stroke-opacity="0.200000" points="702.42,-72.21 707.08,-67.89 700.74,-68.36 702.42,-72.21"/>
</g>
<!-- src/lib/interfaces/MeasureControlMode.ts -->
<g id="node18" class="node">
<title>src/lib/interfaces/MeasureControlMode.ts</title>
<g id="a_node18"><a xlink:href="src/lib/interfaces/MeasureControlMode.ts" xlink:title="MeasureControlMode.ts">
<path fill="#ddfeff" stroke="black" d="M798.83,-101.76C798.83,-101.76 696.42,-101.76 696.42,-101.76 693.46,-101.76 690.5,-98.8 690.5,-95.84 690.5,-95.84 690.5,-89.93 690.5,-89.93 690.5,-86.97 693.46,-84.01 696.42,-84.01 696.42,-84.01 798.83,-84.01 798.83,-84.01 801.79,-84.01 804.75,-86.97 804.75,-89.93 804.75,-89.93 804.75,-95.84 804.75,-95.84 804.75,-98.8 801.79,-101.76 798.83,-101.76"/>
<text text-anchor="start" x="698.5" y="-89.21" font-family="Helvetica,sans-Serif" font-size="9.00">MeasureControlMode.ts</text>
</a>
</g>
</g>
<!-- src/lib/interfaces/MeasureControlOptions.ts&#45;&gt;src/lib/interfaces/MeasureControlMode.ts -->
<g id="edge22" class="edge">
<title>src/lib/interfaces/MeasureControlOptions.ts&#45;&gt;src/lib/interfaces/MeasureControlMode.ts</title>
<path fill="none" stroke="#000000" stroke-opacity="0.200000" d="M660.7,-105.22C668.02,-104.17 675.52,-103.09 682.88,-102.04"/>
<polygon fill="none" stroke="#000000" stroke-opacity="0.200000" points="683.05,-104.13 688.69,-101.2 682.46,-99.98 683.05,-104.13"/>
</g>
<!-- src/lib/constants/getDefaultModeOptions.ts -->
<g id="node7" class="node">
<title>src/lib/constants/getDefaultModeOptions.ts</title>
<g id="a_node7"><a xlink:href="src/lib/constants/getDefaultModeOptions.ts" xlink:title="getDefaultModeOptions.ts">
<path fill="#ddfeff" stroke="black" d="M654.33,-344.76C654.33,-344.76 544.42,-344.76 544.42,-344.76 541.46,-344.76 538.5,-341.8 538.5,-338.84 538.5,-338.84 538.5,-332.93 538.5,-332.93 538.5,-329.97 541.46,-327.01 544.42,-327.01 544.42,-327.01 654.33,-327.01 654.33,-327.01 657.29,-327.01 660.25,-329.97 660.25,-332.93 660.25,-332.93 660.25,-338.84 660.25,-338.84 660.25,-341.8 657.29,-344.76 654.33,-344.76"/>
<text text-anchor="start" x="546.5" y="-332.21" font-family="Helvetica,sans-Serif" font-size="9.00">getDefaultModeOptions.ts</text>
</a>
</g>
</g>
<!-- src/lib/constants/getDefaultModeOptions.ts&#45;&gt;src/lib/interfaces/ModeOptions.ts -->
<g id="edge3" class="edge">
<title>src/lib/constants/getDefaultModeOptions.ts&#45;&gt;src/lib/interfaces/ModeOptions.ts</title>
<path fill="none" stroke="#000000" stroke-opacity="0.200000" d="M660.57,-334.59C668.94,-331.85 676.66,-327.52 682.5,-320.88 704.55,-295.83 670.12,-197.32 690.5,-170.88 693.33,-167.21 696.91,-164.28 700.9,-161.94"/>
<polygon fill="none" stroke="#000000" stroke-opacity="0.200000" points="701.62,-163.92 706.08,-159.38 699.77,-160.15 701.62,-163.92"/>
</g>
<!-- src/lib/interfaces/TerradrawModeClass.ts -->
<g id="node19" class="node">
<title>src/lib/interfaces/TerradrawModeClass.ts</title>
<g id="a_node19"><a xlink:href="src/lib/interfaces/TerradrawModeClass.ts" xlink:title="TerradrawModeClass.ts">
<path fill="#ddfeff" stroke="black" d="M924.58,-104.76C924.58,-104.76 823.67,-104.76 823.67,-104.76 820.71,-104.76 817.75,-101.8 817.75,-98.84 817.75,-98.84 817.75,-92.93 817.75,-92.93 817.75,-89.97 820.71,-87.01 823.67,-87.01 823.67,-87.01 924.58,-87.01 924.58,-87.01 927.54,-87.01 930.5,-89.97 930.5,-92.93 930.5,-92.93 930.5,-98.84 930.5,-98.84 930.5,-101.8 927.54,-104.76 924.58,-104.76"/>
<text text-anchor="start" x="825.75" y="-92.21" font-family="Helvetica,sans-Serif" font-size="9.00">TerradrawModeClass.ts</text>
</a>
</g>
</g>
<!-- src/lib/interfaces/ModeOptions.ts&#45;&gt;src/lib/interfaces/TerradrawModeClass.ts -->
<g id="edge24" class="edge">
<title>src/lib/interfaces/ModeOptions.ts&#45;&gt;src/lib/interfaces/TerradrawModeClass.ts</title>
<path fill="none" stroke="#000000" stroke-opacity="0.200000" d="M787.77,-143.99C793.56,-142.23 799.38,-140.19 804.75,-137.88 822.57,-130.22 841.23,-118.47 854.54,-109.35"/>
<polygon fill="none" stroke="#000000" stroke-opacity="0.200000" points="855.66,-111.13 859.38,-105.97 853.26,-107.68 855.66,-111.13"/>
</g>
<!-- src/lib/constants/index.ts -->
<g id="node9" class="node">
<title>src/lib/constants/index.ts</title>
<g id="a_node9"><a xlink:href="src/lib/constants/index.ts" xlink:title="index.ts">
<path fill="#ddfeff" stroke="black" d="M505.33,-269.76C505.33,-269.76 463.17,-269.76 463.17,-269.76 460.21,-269.76 457.25,-266.8 457.25,-263.84 457.25,-263.84 457.25,-257.93 457.25,-257.93 457.25,-254.97 460.21,-252.01 463.17,-252.01 463.17,-252.01 505.33,-252.01 505.33,-252.01 508.29,-252.01 511.25,-254.97 511.25,-257.93 511.25,-257.93 511.25,-263.84 511.25,-263.84 511.25,-266.8 508.29,-269.76 505.33,-269.76"/>
<text text-anchor="start" x="468.5" y="-257.21" font-family="Helvetica,sans-Serif" font-size="9.00">index.ts</text>
</a>
</g>
</g>
<!-- src/lib/constants/index.ts&#45;&gt;src/lib/constants/AvailableMeasureModes.ts -->
<g id="edge4" class="edge">
<title>src/lib/constants/index.ts&#45;&gt;src/lib/constants/AvailableMeasureModes.ts</title>
<path fill="none" stroke="#000000" stroke-width="2" stroke-opacity="0.200000" d="M511.49,-257.4C516.74,-256.71 522.49,-255.95 528.45,-255.16"/>
<polygon fill="#000000" fill-opacity="0.200000" stroke="#000000" stroke-width="2" stroke-opacity="0.200000" points="534.81,-256.43 528.59,-255.14 534.26,-252.27 534.81,-256.43"/>
</g>
<!-- src/lib/constants/index.ts&#45;&gt;src/lib/constants/AvailableModes.ts -->
<g id="edge5" class="edge">
<title>src/lib/constants/index.ts&#45;&gt;src/lib/constants/AvailableModes.ts</title>
<path fill="none" stroke="#000000" stroke-width="2" stroke-opacity="0.200000" d="M486.44,-270.22C489.32,-288.7 498.45,-329.98 524.25,-350.88 530.71,-356.11 538.5,-359.67 546.58,-362.07"/>
<polygon fill="#000000" fill-opacity="0.200000" stroke="#000000" stroke-width="2" stroke-opacity="0.200000" points="551.91,-365.61 546.62,-362.08 552.96,-361.54 551.91,-365.61"/>
</g>
<!-- src/lib/constants/index.ts&#45;&gt;src/lib/constants/defaultControlOptions.ts -->
<g id="edge6" class="edge">
<title>src/lib/constants/index.ts&#45;&gt;src/lib/constants/defaultControlOptions.ts</title>
<path fill="none" stroke="#000000" stroke-width="2" stroke-opacity="0.200000" d="M511.49,-264.36C518.63,-265.31 526.68,-266.38 534.93,-267.47"/>
<polygon fill="#000000" fill-opacity="0.200000" stroke="#000000" stroke-width="2" stroke-opacity="0.200000" points="540.63,-270.35 534.96,-267.47 541.18,-266.18 540.63,-270.35"/>
</g>
<!-- src/lib/constants/index.ts&#45;&gt;src/lib/constants/defaultMeasureControlOptions.ts -->
<g id="edge7" class="edge">
<title>src/lib/constants/index.ts&#45;&gt;src/lib/constants/defaultMeasureControlOptions.ts</title>
<path fill="none" stroke="#000000" stroke-width="2" stroke-opacity="0.200000" d="M494.69,-270.16C502.12,-276.93 513.06,-285.78 524.25,-290.88 526.94,-292.11 529.73,-293.23 532.58,-294.27"/>
<polygon fill="#000000" fill-opacity="0.200000" stroke="#000000" stroke-width="2" stroke-opacity="0.200000" points="537.71,-298.2 532.68,-294.3 539.04,-294.21 537.71,-298.2"/>
</g>
<!-- src/lib/constants/index.ts&#45;&gt;src/lib/constants/getDefaultModeOptions.ts -->
<g id="edge8" class="edge">
<title>src/lib/constants/index.ts&#45;&gt;src/lib/constants/getDefaultModeOptions.ts</title>
<path fill="none" stroke="#000000" stroke-width="2" stroke-opacity="0.200000" d="M488.45,-269.84C493.73,-283.21 505.55,-308.17 524.25,-320.88 526.63,-322.5 529.15,-323.96 531.76,-325.26"/>
<polygon fill="#000000" fill-opacity="0.200000" stroke="#000000" stroke-width="2" stroke-opacity="0.200000" points="536.25,-329.54 531.62,-325.19 537.95,-325.7 536.25,-329.54"/>
</g>
<!-- src/lib/controls/MaplibreMeasureControl.ts -->
<g id="node10" class="node">
<title>src/lib/controls/MaplibreMeasureControl.ts</title>
<g id="a_node10"><a xlink:href="src/lib/controls/MaplibreMeasureControl.ts" xlink:title="MaplibreMeasureControl.ts">
<path fill="#ddfeff" stroke="black" d="M282.08,-190.76C282.08,-190.76 166.92,-190.76 166.92,-190.76 163.96,-190.76 161,-187.8 161,-184.84 161,-184.84 161,-178.93 161,-178.93 161,-175.97 163.96,-173.01 166.92,-173.01 166.92,-173.01 282.08,-173.01 282.08,-173.01 285.04,-173.01 288,-175.97 288,-178.93 288,-178.93 288,-184.84 288,-184.84 288,-187.8 285.04,-190.76 282.08,-190.76"/>
<text text-anchor="start" x="169" y="-178.21" font-family="Helvetica,sans-Serif" font-size="9.00">MaplibreMeasureControl.ts</text>
</a>
</g>
</g>
<!-- src/lib/controls/MaplibreMeasureControl.ts&#45;&gt;src/lib/constants/index.ts -->
<g id="edge9" class="edge">
<title>src/lib/controls/MaplibreMeasureControl.ts&#45;&gt;src/lib/constants/index.ts</title>
<path fill="none" stroke="#000000" stroke-width="2" stroke-opacity="0.200000" d="M280.06,-191.19C282.8,-192.29 285.46,-193.51 288,-194.88 295.19,-198.77 293.65,-204.31 301,-207.88 357.46,-235.37 383.78,-199.59 441.25,-224.88 451.88,-229.56 461.85,-237.86 469.4,-245.31"/>
<polygon fill="#000000" fill-opacity="0.200000" stroke="#000000" stroke-width="2" stroke-opacity="0.200000" points="467.84,-246.72 473.51,-249.6 470.87,-243.81 467.84,-246.72"/>
</g>
<!-- src/lib/interfaces/index.ts -->
<g id="node11" class="node">
<title>src/lib/interfaces/index.ts</title>
<g id="a_node11"><a xlink:href="src/lib/interfaces/index.ts" xlink:title="index.ts">
<path fill="#ddfeff" stroke="black" d="M505.33,-149.76C505.33,-149.76 463.17,-149.76 463.17,-149.76 460.21,-149.76 457.25,-146.8 457.25,-143.84 457.25,-143.84 457.25,-137.93 457.25,-137.93 457.25,-134.97 460.21,-132.01 463.17,-132.01 463.17,-132.01 505.33,-132.01 505.33,-132.01 508.29,-132.01 511.25,-134.97 511.25,-137.93 511.25,-137.93 511.25,-143.84 511.25,-143.84 511.25,-146.8 508.29,-149.76 505.33,-149.76"/>
<text text-anchor="start" x="468.5" y="-137.21" font-family="Helvetica,sans-Serif" font-size="9.00">index.ts</text>
</a>
</g>
</g>
<!-- src/lib/controls/MaplibreMeasureControl.ts&#45;&gt;src/lib/interfaces/index.ts -->
<g id="edge10" class="edge">
<title>src/lib/controls/MaplibreMeasureControl.ts&#45;&gt;src/lib/interfaces/index.ts</title>
<path fill="none" stroke="#000000" stroke-opacity="0.200000" d="M288.24,-177.98C346.68,-174.13 426.9,-168.2 441.25,-163.88 448.89,-161.59 456.71,-157.78 463.5,-153.91"/>
<polygon fill="none" stroke="#000000" stroke-opacity="0.200000" points="464.52,-155.75 468.59,-150.86 462.37,-152.14 464.52,-155.75"/>
</g>
<!-- src/lib/controls/MaplibreTerradrawControl.ts -->
<g id="node12" class="node">
<title>src/lib/controls/MaplibreTerradrawControl.ts</title>
<g id="a_node12"><a xlink:href="src/lib/controls/MaplibreTerradrawControl.ts" xlink:title="MaplibreTerradrawControl.ts">
<path fill="#ddfeff" stroke="black" d="M427.33,-201.76C427.33,-201.76 306.92,-201.76 306.92,-201.76 303.96,-201.76 301,-198.8 301,-195.84 301,-195.84 301,-189.93 301,-189.93 301,-186.97 303.96,-184.01 306.92,-184.01 306.92,-184.01 427.33,-184.01 427.33,-184.01 430.29,-184.01 433.25,-186.97 433.25,-189.93 433.25,-189.93 433.25,-195.84 433.25,-195.84 433.25,-198.8 430.29,-201.76 427.33,-201.76"/>
<text text-anchor="start" x="309" y="-189.21" font-family="Helvetica,sans-Serif" font-size="9.00">MaplibreTerradrawControl.ts</text>
</a>
</g>
</g>
<!-- src/lib/controls/MaplibreMeasureControl.ts&#45;&gt;src/lib/controls/MaplibreTerradrawControl.ts -->
<g id="edge11" class="edge">
<title>src/lib/controls/MaplibreMeasureControl.ts&#45;&gt;src/lib/controls/MaplibreTerradrawControl.ts</title>
<path fill="none" stroke="#000000" stroke-width="2" stroke-opacity="0.200000" d="M288.41,-186.8C289.56,-186.89 290.72,-186.99 291.87,-187.08"/>
<polygon fill="#000000" fill-opacity="0.200000" stroke="#000000" stroke-width="2" stroke-opacity="0.200000" points="291.58,-189.16 297.72,-187.53 291.9,-184.97 291.58,-189.16"/>
</g>
<!-- src/lib/interfaces/index.ts&#45;&gt;src/lib/interfaces/TerradrawControlOptions.ts -->
<g id="edge34" class="edge">
<title>src/lib/interfaces/index.ts&#45;&gt;src/lib/interfaces/TerradrawControlOptions.ts</title>
<path fill="none" stroke="#000000" stroke-width="2" stroke-opacity="0.200000" d="M511.59,-150C515.81,-151.36 520.13,-152.7 524.25,-153.88 532.69,-156.31 541.72,-158.69 550.48,-160.88"/>
<polygon fill="#000000" fill-opacity="0.200000" stroke="#000000" stroke-width="2" stroke-opacity="0.200000" points="555.96,-164.39 550.64,-160.91 556.96,-160.31 555.96,-164.39"/>
</g>
<!-- src/lib/interfaces/index.ts&#45;&gt;src/lib/interfaces/MeasureControlOptions.ts -->
<g id="edge32" class="edge">
<title>src/lib/interfaces/index.ts&#45;&gt;src/lib/interfaces/MeasureControlOptions.ts</title>
<path fill="none" stroke="#000000" stroke-width="2" stroke-opacity="0.200000" d="M511.49,-134.62C523.72,-131.7 538.63,-128.14 552.62,-124.8"/>
<polygon fill="#000000" fill-opacity="0.200000" stroke="#000000" stroke-width="2" stroke-opacity="0.200000" points="558.92,-125.46 552.6,-124.81 557.94,-121.37 558.92,-125.46"/>
</g>
<!-- src/lib/interfaces/index.ts&#45;&gt;src/lib/interfaces/ModeOptions.ts -->
<g id="edge33" class="edge">
<title>src/lib/interfaces/index.ts&#45;&gt;src/lib/interfaces/ModeOptions.ts</title>
<path fill="none" stroke="#000000" stroke-width="2" stroke-opacity="0.200000" d="M511.27,-142.08C555.47,-144.11 645.79,-148.25 700.79,-150.78"/>
<polygon fill="#000000" fill-opacity="0.200000" stroke="#000000" stroke-width="2" stroke-opacity="0.200000" points="706.55,-153.15 700.66,-150.77 706.75,-148.95 706.55,-153.15"/>
</g>
<!-- src/lib/interfaces/index.ts&#45;&gt;src/lib/interfaces/AreaUnit.ts -->
<g id="edge28" class="edge">
<title>src/lib/interfaces/index.ts&#45;&gt;src/lib/interfaces/AreaUnit.ts</title>
<path fill="none" stroke="#000000" stroke-width="2" stroke-opacity="0.200000" d="M511.75,-139.55C549.63,-137.57 621.44,-133.6 682.5,-128.88 691.3,-128.2 700.76,-127.37 709.65,-126.55"/>
<polygon fill="#000000" fill-opacity="0.200000" stroke="#000000" stroke-width="2" stroke-opacity="0.200000" points="715.83,-128.08 709.66,-126.55 715.44,-123.9 715.83,-128.08"/>
</g>
<!-- src/lib/interfaces/index.ts&#45;&gt;src/lib/interfaces/DistanceUnit.ts -->
<g id="edge29" class="edge">
<title>src/lib/interfaces/index.ts&#45;&gt;src/lib/interfaces/DistanceUnit.ts</title>
<path fill="none" stroke="#000000" stroke-width="2" stroke-opacity="0.200000" d="M486.26,-131.51C488.82,-113.04 497.38,-72.2 524.25,-54.88 552.5,-36.68 645.13,-46 701.54,-53.84"/>
<polygon fill="#000000" fill-opacity="0.200000" stroke="#000000" stroke-width="2" stroke-opacity="0.200000" points="707.29,-56.77 701.64,-53.85 707.88,-52.61 707.29,-56.77"/>
</g>
<!-- src/lib/interfaces/EventTypes.ts -->
<g id="node17" class="node">
<title>src/lib/interfaces/EventTypes.ts</title>
<g id="a_node17"><a xlink:href="src/lib/interfaces/EventTypes.ts" xlink:title="EventTypes.ts">
<path fill="#ddfeff" stroke="black" d="M629.96,-92.76C629.96,-92.76 568.79,-92.76 568.79,-92.76 565.83,-92.76 562.88,-89.8 562.88,-86.84 562.88,-86.84 562.88,-80.93 562.88,-80.93 562.88,-77.97 565.83,-75.01 568.79,-75.01 568.79,-75.01 629.96,-75.01 629.96,-75.01 632.92,-75.01 635.88,-77.97 635.88,-80.93 635.88,-80.93 635.88,-86.84 635.88,-86.84 635.88,-89.8 632.92,-92.76 629.96,-92.76"/>
<text text-anchor="start" x="570.88" y="-80.21" font-family="Helvetica,sans-Serif" font-size="9.00">EventTypes.ts</text>
</a>
</g>
</g>
<!-- src/lib/interfaces/index.ts&#45;&gt;src/lib/interfaces/EventTypes.ts -->
<g id="edge30" class="edge">
<title>src/lib/interfaces/index.ts&#45;&gt;src/lib/interfaces/EventTypes.ts</title>
<path fill="none" stroke="#000000" stroke-width="2" stroke-opacity="0.200000" d="M491.23,-131.6C498.01,-121.86 510.02,-106.87 524.25,-98.88 533.74,-93.56 544.85,-90.12 555.54,-87.89"/>
<polygon fill="#000000" fill-opacity="0.200000" stroke="#000000" stroke-width="2" stroke-opacity="0.200000" points="561.88,-88.84 555.6,-87.87 561.11,-84.71 561.88,-88.84"/>
</g>
<!-- src/lib/interfaces/index.ts&#45;&gt;src/lib/interfaces/MeasureControlMode.ts -->
<g id="edge31" class="edge">
<title>src/lib/interfaces/index.ts&#45;&gt;src/lib/interfaces/MeasureControlMode.ts</title>
<path fill="none" stroke="#000000" stroke-width="2" stroke-opacity="0.200000" d="M487.06,-131.75C490.8,-115.67 501.04,-82.71 524.25,-68.88 554.46,-50.89 649.58,-56.51 682.5,-68.88 686.92,-70.55 686.37,-73.59 690.5,-75.88 693.98,-77.81 697.7,-79.55 701.52,-81.11"/>
<polygon fill="#000000" fill-opacity="0.200000" stroke="#000000" stroke-width="2" stroke-opacity="0.200000" points="706.32,-85.17 701.45,-81.08 707.8,-81.25 706.32,-85.17"/>
</g>
<!-- src/lib/interfaces/index.ts&#45;&gt;src/lib/interfaces/TerradrawModeClass.ts -->
<g id="edge36" class="edge">
<title>src/lib/interfaces/index.ts&#45;&gt;src/lib/interfaces/TerradrawModeClass.ts</title>
<path fill="none" stroke="#000000" stroke-width="2" stroke-opacity="0.200000" d="M485.61,-131.64C486.98,-111.12 493.48,-61.91 524.25,-40.88 627.2,29.46 687.04,-4.76 804.75,-45.88 826.13,-53.35 846.53,-69.93 859.39,-81.95"/>
<polygon fill="#000000" fill-opacity="0.200000" stroke="#000000" stroke-width="2" stroke-opacity="0.200000" points="862.25,-87.61 859.38,-81.94 865.16,-84.58 862.25,-87.61"/>
</g>
<!-- src/lib/interfaces/index.ts&#45;&gt;src/lib/interfaces/TerradrawMode.ts -->
<g id="edge35" class="edge">
<title>src/lib/interfaces/index.ts&#45;&gt;src/lib/interfaces/TerradrawMode.ts</title>
<path fill="none" stroke="#000000" stroke-width="2" stroke-opacity="0.200000" d="M489.81,-150.05C495.92,-161.15 507.91,-179.31 524.25,-186.88 581.4,-213.35 656.01,-205.68 702.62,-196.63"/>
<polygon fill="#000000" fill-opacity="0.200000" stroke="#000000" stroke-width="2" stroke-opacity="0.200000" points="709.01,-197.49 702.71,-196.62 708.18,-193.37 709.01,-197.49"/>
</g>
<!-- src/lib/controls/MaplibreTerradrawControl.ts&#45;&gt;src/lib/constants/index.ts -->
<g id="edge12" class="edge">
<title>src/lib/controls/MaplibreTerradrawControl.ts&#45;&gt;src/lib/constants/index.ts</title>
<path fill="none" stroke="#000000" stroke-width="2" stroke-opacity="0.200000" d="M410.75,-202.25C421.2,-205.62 432.02,-210.07 441.25,-215.88 442.97,-216.97 457.43,-232.6 468.91,-245.14"/>
<polygon fill="#000000" fill-opacity="0.200000" stroke="#000000" stroke-width="2" stroke-opacity="0.200000" points="467.24,-246.43 472.84,-249.44 470.34,-243.6 467.24,-246.43"/>
</g>
<!-- src/lib/controls/MaplibreTerradrawControl.ts&#45;&gt;src/lib/interfaces/index.ts -->
<g id="edge13" class="edge">
<title>src/lib/controls/MaplibreTerradrawControl.ts&#45;&gt;src/lib/interfaces/index.ts</title>
<path fill="none" stroke="#000000" stroke-opacity="0.200000" d="M412.83,-183.59C422.46,-180.79 432.4,-177.26 441.25,-172.88 450.81,-168.16 460.36,-161.12 467.93,-154.84"/>
<polygon fill="none" stroke="#000000" stroke-opacity="0.200000" points="468.95,-156.73 472.15,-151.23 466.22,-153.54 468.95,-156.73"/>
</g>
<!-- src/lib/controls/index.ts -->
<g id="node13" class="node">
<title>src/lib/controls/index.ts</title>
<g id="a_node13"><a xlink:href="src/lib/controls/index.ts" xlink:title="index.ts">
<path fill="#ddfeff" stroke="black" d="M142.08,-197.76C142.08,-197.76 99.92,-197.76 99.92,-197.76 96.96,-197.76 94,-194.8 94,-191.84 94,-191.84 94,-185.93 94,-185.93 94,-182.97 96.96,-180.01 99.92,-180.01 99.92,-180.01 142.08,-180.01 142.08,-180.01 145.04,-180.01 148,-182.97 148,-185.93 148,-185.93 148,-191.84 148,-191.84 148,-194.8 145.04,-197.76 142.08,-197.76"/>
<text text-anchor="start" x="105.25" y="-185.21" font-family="Helvetica,sans-Serif" font-size="9.00">index.ts</text>
</a>
</g>
</g>
<!-- src/lib/controls/index.ts&#45;&gt;src/lib/controls/MaplibreMeasureControl.ts -->
<g id="edge14" class="edge">
<title>src/lib/controls/index.ts&#45;&gt;src/lib/controls/MaplibreMeasureControl.ts</title>
<path fill="none" stroke="#000000" stroke-width="2" stroke-opacity="0.200000" d="M148.4,-187.06C150.1,-186.95 151.84,-186.83 153.62,-186.7"/>
<polygon fill="#000000" fill-opacity="0.200000" stroke="#000000" stroke-width="2" stroke-opacity="0.200000" points="159.8,-188.38 153.67,-186.7 159.51,-184.19 159.8,-188.38"/>
</g>
<!-- src/lib/controls/index.ts&#45;&gt;src/lib/controls/MaplibreTerradrawControl.ts -->
<g id="edge15" class="edge">
<title>src/lib/controls/index.ts&#45;&gt;src/lib/controls/MaplibreTerradrawControl.ts</title>
<path fill="none" stroke="#000000" stroke-width="2" stroke-opacity="0.200000" d="M148.32,-195.04C152.54,-195.8 156.87,-196.47 161,-196.88 205.05,-201.36 254.69,-200.54 294.1,-198.52"/>
<polygon fill="#000000" fill-opacity="0.200000" stroke="#000000" stroke-width="2" stroke-opacity="0.200000" points="299.95,-200.31 293.84,-198.53 299.72,-196.11 299.95,-200.31"/>
</g>
<!-- src/lib/index.ts -->
<g id="node14" class="node">
<title>src/lib/index.ts</title>
<g id="a_node14"><a xlink:href="src/lib/index.ts" xlink:title="index.ts">
<path fill="#ddfeff" stroke="black" d="M72.08,-197.76C72.08,-197.76 29.92,-197.76 29.92,-197.76 26.96,-197.76 24,-194.8 24,-191.84 24,-191.84 24,-185.93 24,-185.93 24,-182.97 26.96,-180.01 29.92,-180.01 29.92,-180.01 72.08,-180.01 72.08,-180.01 75.04,-180.01 78,-182.97 78,-185.93 78,-185.93 78,-191.84 78,-191.84 78,-194.8 75.04,-197.76 72.08,-197.76"/>
<text text-anchor="start" x="35.25" y="-185.21" font-family="Helvetica,sans-Serif" font-size="9.00">index.ts</text>
</a>
</g>
</g>
<!-- src/lib/index.ts&#45;&gt;src/lib/constants/index.ts -->
<g id="edge16" class="edge">
<title>src/lib/index.ts&#45;&gt;src/lib/constants/index.ts</title>
<path fill="none" stroke="#000000" stroke-width="2" stroke-opacity="0.200000" d="M55.98,-198.03C61.17,-208.72 71.36,-225.96 86,-233.88 206.51,-299.06 378.52,-279.5 450.07,-267.35"/>
<polygon fill="#000000" fill-opacity="0.200000" stroke="#000000" stroke-width="2" stroke-opacity="0.200000" points="456.45,-268.36 450.18,-267.33 455.73,-264.23 456.45,-268.36"/>
</g>
<!-- src/lib/index.ts&#45;&gt;src/lib/interfaces/index.ts -->
<g id="edge18" class="edge">
<title>src/lib/index.ts&#45;&gt;src/lib/interfaces/index.ts</title>
<path fill="none" stroke="#000000" stroke-width="2" stroke-opacity="0.200000" d="M60.54,-179.58C66.89,-173.35 76.13,-165.62 86,-161.88 213.38,-113.65 380.28,-127.27 450.19,-136.07"/>
<polygon fill="#000000" fill-opacity="0.200000" stroke="#000000" stroke-width="2" stroke-opacity="0.200000" points="455.79,-138.91 450.1,-136.06 456.32,-134.74 455.79,-138.91"/>
</g>
<!-- src/lib/index.ts&#45;&gt;src/lib/controls/index.ts -->
<g id="edge17" class="edge">
<title>src/lib/index.ts&#45;&gt;src/lib/controls/index.ts</title>
<path fill="none" stroke="#000000" stroke-width="2" stroke-opacity="0.200000" d="M78.49,-188.88C81.34,-188.88 84.27,-188.88 87.18,-188.88"/>
<polygon fill="#000000" fill-opacity="0.200000" stroke="#000000" stroke-width="2" stroke-opacity="0.200000" points="92.92,-190.98 86.92,-188.88 92.92,-186.78 92.92,-190.98"/>
</g>
<!-- src/lib/interfaces/MeasureControlMode.ts&#45;&gt;src/lib/constants/AvailableMeasureModes.ts -->
<g id="edge19" class="edge">
<title>src/lib/interfaces/MeasureControlMode.ts&#45;&gt;src/lib/constants/AvailableMeasureModes.ts</title>
<path fill="none" stroke="#000000" stroke-opacity="0.200000" d="M696.64,-102.2C694.37,-103.82 692.3,-105.7 690.5,-107.88 674.07,-127.82 698.93,-203.94 682.5,-223.88 678.87,-228.29 674.46,-231.87 669.6,-234.76"/>
<polygon fill="none" stroke="#000000" stroke-opacity="0.200000" points="668.91,-232.76 664.55,-237.39 670.85,-236.48 668.91,-232.76"/>
</g>
<!-- src/lib/interfaces/TerradrawMode.ts&#45;&gt;src/lib/constants/AvailableModes.ts -->
<g id="edge27" class="edge">
<title>src/lib/interfaces/TerradrawMode.ts&#45;&gt;src/lib/constants/AvailableModes.ts</title>
<path fill="none" stroke="#000000" stroke-width="2" stroke-opacity="0.200000" d="M746.05,-195.15C743.74,-223.47 732.73,-309.39 682.5,-350.88 674.38,-357.59 664.26,-361.7 653.92,-364.14"/>
<polygon fill="#000000" fill-opacity="0.200000" stroke="#000000" stroke-width="2" stroke-opacity="0.200000" points="653.68,-362.05 648.19,-365.25 654.48,-366.17 653.68,-362.05"/>
</g>
</g>
</svg>
