<?xml version="1.0" encoding="UTF-8" standalone="no"?>
<!DOCTYPE svg PUBLIC "-//W3C//DTD SVG 1.1//EN"
 "http://www.w3.org/Graphics/SVG/1.1/DTD/svg11.dtd">
<!-- Generated by graphviz version 12.2.1 (20241206.2353)
 -->
<!-- Title: dependency&#45;cruiser output Pages: 1 -->
<svg width="1027pt" height="514pt"
 viewBox="0.00 0.00 1026.50 514.00" xmlns="http://www.w3.org/2000/svg" xmlns:xlink="http://www.w3.org/1999/xlink">
<g id="graph0" class="graph" transform="scale(1 1) rotate(0) translate(4 510)">
<title>dependency&#45;cruiser output</title>
<polygon fill="white" stroke="none" points="-4,4 -4,-510 1022.5,-510 1022.5,4 -4,4"/>
<g id="clust1" class="cluster">
<title>cluster_src</title>
<path fill="#ffffff" stroke="black" stroke-width="2" d="M20,-8C20,-8 998.5,-8 998.5,-8 1004.5,-8 1010.5,-14 1010.5,-20 1010.5,-20 1010.5,-486 1010.5,-486 1010.5,-492 1004.5,-498 998.5,-498 998.5,-498 20,-498 20,-498 14,-498 8,-492 8,-486 8,-486 8,-20 8,-20 8,-14 14,-8 20,-8"/>
<text text-anchor="middle" x="509.25" y="-485.45" font-family="Helvetica,sans-Serif" font-weight="bold" font-size="9.00">src</text>
</g>
<g id="clust2" class="cluster">
<title>cluster_src/lib</title>
<path fill="#ffffff" stroke="black" stroke-width="2" d="M28,-16C28,-16 990.5,-16 990.5,-16 996.5,-16 1002.5,-22 1002.5,-28 1002.5,-28 1002.5,-460 1002.5,-460 1002.5,-466 996.5,-472 990.5,-472 990.5,-472 28,-472 28,-472 22,-472 16,-466 16,-460 16,-460 16,-28 16,-28 16,-22 22,-16 28,-16"/>
<text text-anchor="middle" x="509.25" y="-459.45" font-family="Helvetica,sans-Serif" font-weight="bold" font-size="9.00">lib</text>
</g>
<g id="clust3" class="cluster">
<title>cluster_src/lib/constants</title>
<path fill="#ffffff" stroke="black" stroke-width="2" d="M483.75,-84C483.75,-84 726.5,-84 726.5,-84 732.5,-84 738.5,-90 738.5,-96 738.5,-96 738.5,-244 738.5,-244 738.5,-250 732.5,-256 726.5,-256 726.5,-256 483.75,-256 483.75,-256 477.75,-256 471.75,-250 471.75,-244 471.75,-244 471.75,-96 471.75,-96 471.75,-90 477.75,-84 483.75,-84"/>
<text text-anchor="middle" x="605.12" y="-243.45" font-family="Helvetica,sans-Serif" font-weight="bold" font-size="9.00">constants</text>
</g>
<g id="clust4" class="cluster">
<title>cluster_src/lib/controls</title>
<path fill="#ffffff" stroke="black" stroke-width="2" d="M98,-177C98,-177 429.25,-177 429.25,-177 435.25,-177 441.25,-183 441.25,-189 441.25,-189 441.25,-231 441.25,-231 441.25,-237 435.25,-243 429.25,-243 429.25,-243 98,-243 98,-243 92,-243 86,-237 86,-231 86,-231 86,-189 86,-189 86,-183 92,-177 98,-177"/>
<text text-anchor="middle" x="263.62" y="-230.45" font-family="Helvetica,sans-Serif" font-weight="bold" font-size="9.00">controls</text>
</g>
<g id="clust5" class="cluster">
<title>cluster_src/lib/helpers</title>
<path fill="#ffffff" stroke="black" stroke-width="2" d="M344.12,-24C344.12,-24 560.25,-24 560.25,-24 566.25,-24 572.25,-30 572.25,-36 572.25,-36 572.25,-64 572.25,-64 572.25,-70 566.25,-76 560.25,-76 560.25,-76 344.12,-76 344.12,-76 338.12,-76 332.12,-70 332.12,-64 332.12,-64 332.12,-36 332.12,-36 332.12,-30 338.12,-24 344.12,-24"/>
<text text-anchor="middle" x="452.19" y="-63.45" font-family="Helvetica,sans-Serif" font-weight="bold" font-size="9.00">helpers</text>
</g>
<g id="clust6" class="cluster">
<title>cluster_src/lib/interfaces</title>
<path fill="#ffffff" stroke="black" stroke-width="2" d="M483.75,-264C483.75,-264 982.5,-264 982.5,-264 988.5,-264 994.5,-270 994.5,-276 994.5,-276 994.5,-434 994.5,-434 994.5,-440 988.5,-446 982.5,-446 982.5,-446 483.75,-446 483.75,-446 477.75,-446 471.75,-440 471.75,-434 471.75,-434 471.75,-276 471.75,-276 471.75,-270 477.75,-264 483.75,-264"/>
<text text-anchor="middle" x="733.12" y="-433.45" font-family="Helvetica,sans-Serif" font-weight="bold" font-size="9.00">interfaces</text>
</g>
<!-- src/lib/constants/AvailableMeasureModes.ts -->
<g id="node1" class="node">
<title>src/lib/constants/AvailableMeasureModes.ts</title>
<g id="a_node1"><a xlink:href="src/lib/constants/AvailableMeasureModes.ts" xlink:title="AvailableMeasureModes.ts">
<path fill="#ddfeff" stroke="black" d="M712.96,-229.88C712.96,-229.88 597.79,-229.88 597.79,-229.88 594.83,-229.88 591.88,-226.92 591.88,-223.96 591.88,-223.96 591.88,-218.04 591.88,-218.04 591.88,-215.08 594.83,-212.12 597.79,-212.12 597.79,-212.12 712.96,-212.12 712.96,-212.12 715.92,-212.12 718.88,-215.08 718.88,-218.04 718.88,-218.04 718.88,-223.96 718.88,-223.96 718.88,-226.92 715.92,-229.88 712.96,-229.88"/>
<text text-anchor="start" x="599.88" y="-217.32" font-family="Helvetica,sans-Serif" font-size="9.00">AvailableMeasureModes.ts</text>
</a>
</g>
</g>
<!-- src/lib/constants/AvailableModes.ts -->
<g id="node2" class="node">
<title>src/lib/constants/AvailableModes.ts</title>
<g id="a_node2"><a xlink:href="src/lib/constants/AvailableModes.ts" xlink:title="AvailableModes.ts">
<path fill="#ddfeff" stroke="black" d="M694.96,-109.88C694.96,-109.88 615.79,-109.88 615.79,-109.88 612.83,-109.88 609.88,-106.92 609.88,-103.96 609.88,-103.96 609.88,-98.04 609.88,-98.04 609.88,-95.08 612.83,-92.12 615.79,-92.12 615.79,-92.12 694.96,-92.12 694.96,-92.12 697.92,-92.12 700.88,-95.08 700.88,-98.04 700.88,-98.04 700.88,-103.96 700.88,-103.96 700.88,-106.92 697.92,-109.88 694.96,-109.88"/>
<text text-anchor="start" x="617.88" y="-97.33" font-family="Helvetica,sans-Serif" font-size="9.00">AvailableModes.ts</text>
</a>
</g>
</g>
<!-- src/lib/constants/defaultControlOptions.ts -->
<g id="node3" class="node">
<title>src/lib/constants/defaultControlOptions.ts</title>
<g id="a_node3"><a xlink:href="src/lib/constants/defaultControlOptions.ts" xlink:title="defaultControlOptions.ts">
<path fill="#ddfeff" stroke="black" d="M706.58,-169.88C706.58,-169.88 604.17,-169.88 604.17,-169.88 601.21,-169.88 598.25,-166.92 598.25,-163.96 598.25,-163.96 598.25,-158.04 598.25,-158.04 598.25,-155.08 601.21,-152.12 604.17,-152.12 604.17,-152.12 706.58,-152.12 706.58,-152.12 709.54,-152.12 712.5,-155.08 712.5,-158.04 712.5,-158.04 712.5,-163.96 712.5,-163.96 712.5,-166.92 709.54,-169.88 706.58,-169.88"/>
<text text-anchor="start" x="606.25" y="-157.32" font-family="Helvetica,sans-Serif" font-size="9.00">defaultControlOptions.ts</text>
</a>
</g>
</g>
<!-- src/lib/interfaces/TerradrawControlOptions.ts -->
<g id="node4" class="node">
<title>src/lib/interfaces/TerradrawControlOptions.ts</title>
<g id="a_node4"><a xlink:href="src/lib/interfaces/TerradrawControlOptions.ts" xlink:title="TerradrawControlOptions.ts">
<path fill="#ddfeff" stroke="black" d="M713.33,-303.88C713.33,-303.88 597.42,-303.88 597.42,-303.88 594.46,-303.88 591.5,-300.92 591.5,-297.96 591.5,-297.96 591.5,-292.04 591.5,-292.04 591.5,-289.08 594.46,-286.12 597.42,-286.12 597.42,-286.12 713.33,-286.12 713.33,-286.12 716.29,-286.12 719.25,-289.08 719.25,-292.04 719.25,-292.04 719.25,-297.96 719.25,-297.96 719.25,-300.92 716.29,-303.88 713.33,-303.88"/>
<text text-anchor="start" x="599.5" y="-291.32" font-family="Helvetica,sans-Serif" font-size="9.00">TerradrawControlOptions.ts</text>
</a>
</g>
</g>
<!-- src/lib/constants/defaultControlOptions.ts&#45;&gt;src/lib/interfaces/TerradrawControlOptions.ts -->
<g id="edge1" class="edge">
<title>src/lib/constants/defaultControlOptions.ts&#45;&gt;src/lib/interfaces/TerradrawControlOptions.ts</title>
<path fill="none" stroke="#000000" stroke-opacity="0.200000" d="M598.07,-162.08C587.84,-165.45 579.42,-171.53 576.25,-182 573.38,-191.46 573.38,-261.54 576.25,-271 577.18,-274.07 577.62,-275.17 580.25,-277 583.33,-279.15 586.64,-281.05 590.09,-282.72"/>
<polygon fill="none" stroke="#000000" stroke-opacity="0.200000" points="589.14,-284.59 595.48,-285.06 590.81,-280.74 589.14,-284.59"/>
</g>
<!-- src/lib/interfaces/ModeOptions.ts -->
<g id="node8" class="node">
<title>src/lib/interfaces/ModeOptions.ts</title>
<g id="a_node8"><a xlink:href="src/lib/interfaces/ModeOptions.ts" xlink:title="ModeOptions.ts">
<path fill="#ddfeff" stroke="black" d="M837.58,-319.88C837.58,-319.88 769.67,-319.88 769.67,-319.88 766.71,-319.88 763.75,-316.92 763.75,-313.96 763.75,-313.96 763.75,-308.04 763.75,-308.04 763.75,-305.08 766.71,-302.12 769.67,-302.12 769.67,-302.12 837.58,-302.12 837.58,-302.12 840.54,-302.12 843.5,-305.08 843.5,-308.04 843.5,-308.04 843.5,-313.96 843.5,-313.96 843.5,-316.92 840.54,-319.88 837.58,-319.88"/>
<text text-anchor="start" x="771.75" y="-307.32" font-family="Helvetica,sans-Serif" font-size="9.00">ModeOptions.ts</text>
</a>
</g>
</g>
<!-- src/lib/interfaces/TerradrawControlOptions.ts&#45;&gt;src/lib/interfaces/ModeOptions.ts -->
<g id="edge28" class="edge">
<title>src/lib/interfaces/TerradrawControlOptions.ts&#45;&gt;src/lib/interfaces/ModeOptions.ts</title>
<path fill="none" stroke="#000000" stroke-opacity="0.200000" d="M719.67,-301.92C731.83,-303.25 744.36,-304.63 755.88,-305.89"/>
<polygon fill="none" stroke="#000000" stroke-opacity="0.200000" points="755.59,-307.97 761.78,-306.53 756.05,-303.79 755.59,-307.97"/>
</g>
<!-- src/lib/interfaces/TerradrawMode.ts -->
<g id="node21" class="node">
<title>src/lib/interfaces/TerradrawMode.ts</title>
<g id="a_node21"><a xlink:href="src/lib/interfaces/TerradrawMode.ts" xlink:title="TerradrawMode.ts">
<path fill="#ddfeff" stroke="black" d="M842.46,-289.88C842.46,-289.88 764.79,-289.88 764.79,-289.88 761.83,-289.88 758.88,-286.92 758.88,-283.96 758.88,-283.96 758.88,-278.04 758.88,-278.04 758.88,-275.08 761.83,-272.12 764.79,-272.12 764.79,-272.12 842.46,-272.12 842.46,-272.12 845.42,-272.12 848.38,-275.08 848.38,-278.04 848.38,-278.04 848.38,-283.96 848.38,-283.96 848.38,-286.92 845.42,-289.88 842.46,-289.88"/>
<text text-anchor="start" x="766.88" y="-277.32" font-family="Helvetica,sans-Serif" font-size="9.00">TerradrawMode.ts</text>
</a>
</g>
</g>
<!-- src/lib/interfaces/TerradrawControlOptions.ts&#45;&gt;src/lib/interfaces/TerradrawMode.ts -->
<g id="edge29" class="edge">
<title>src/lib/interfaces/TerradrawControlOptions.ts&#45;&gt;src/lib/interfaces/TerradrawMode.ts</title>
<path fill="none" stroke="#000000" stroke-opacity="0.200000" d="M719.67,-288.94C730.23,-287.93 741.07,-286.89 751.29,-285.91"/>
<polygon fill="none" stroke="#000000" stroke-opacity="0.200000" points="751.32,-288.02 757.09,-285.36 750.92,-283.84 751.32,-288.02"/>
</g>
<!-- src/lib/constants/defaultMeasureControlOptions.ts -->
<g id="node5" class="node">
<title>src/lib/constants/defaultMeasureControlOptions.ts</title>
<g id="a_node5"><a xlink:href="src/lib/constants/defaultMeasureControlOptions.ts" xlink:title="defaultMeasureControlOptions.ts">
<path fill="#ddfeff" stroke="black" d="M724.58,-199.88C724.58,-199.88 586.17,-199.88 586.17,-199.88 583.21,-199.88 580.25,-196.92 580.25,-193.96 580.25,-193.96 580.25,-188.04 580.25,-188.04 580.25,-185.08 583.21,-182.12 586.17,-182.12 586.17,-182.12 724.58,-182.12 724.58,-182.12 727.54,-182.12 730.5,-185.08 730.5,-188.04 730.5,-188.04 730.5,-193.96 730.5,-193.96 730.5,-196.92 727.54,-199.88 724.58,-199.88"/>
<text text-anchor="start" x="588.25" y="-187.32" font-family="Helvetica,sans-Serif" font-size="9.00">defaultMeasureControlOptions.ts</text>
</a>
</g>
</g>
<!-- src/lib/interfaces/MeasureControlOptions.ts -->
<g id="node6" class="node">
<title>src/lib/interfaces/MeasureControlOptions.ts</title>
<g id="a_node6"><a xlink:href="src/lib/interfaces/MeasureControlOptions.ts" xlink:title="MeasureControlOptions.ts">
<path fill="#ddfeff" stroke="black" d="M710.71,-347.88C710.71,-347.88 600.04,-347.88 600.04,-347.88 597.08,-347.88 594.12,-344.92 594.12,-341.96 594.12,-341.96 594.12,-336.04 594.12,-336.04 594.12,-333.08 597.08,-330.12 600.04,-330.12 600.04,-330.12 710.71,-330.12 710.71,-330.12 713.67,-330.12 716.62,-333.08 716.62,-336.04 716.62,-336.04 716.62,-341.96 716.62,-341.96 716.62,-344.92 713.67,-347.88 710.71,-347.88"/>
<text text-anchor="start" x="602.12" y="-335.32" font-family="Helvetica,sans-Serif" font-size="9.00">MeasureControlOptions.ts</text>
</a>
</g>
</g>
<!-- src/lib/constants/defaultMeasureControlOptions.ts&#45;&gt;src/lib/interfaces/MeasureControlOptions.ts -->
<g id="edge2" class="edge">
<title>src/lib/constants/defaultMeasureControlOptions.ts&#45;&gt;src/lib/interfaces/MeasureControlOptions.ts</title>
<path fill="none" stroke="#000000" stroke-opacity="0.200000" d="M583.51,-200.29C580.22,-203.39 577.69,-207.24 576.25,-212 572.93,-222.95 572.93,-304.05 576.25,-315 577.18,-318.07 577.62,-319.17 580.25,-321 583.33,-323.15 586.64,-325.05 590.09,-326.72"/>
<polygon fill="none" stroke="#000000" stroke-opacity="0.200000" points="589.14,-328.59 595.48,-329.06 590.81,-324.74 589.14,-328.59"/>
</g>
<!-- src/lib/interfaces/MeasureControlOptions.ts&#45;&gt;src/lib/interfaces/ModeOptions.ts -->
<g id="edge26" class="edge">
<title>src/lib/interfaces/MeasureControlOptions.ts&#45;&gt;src/lib/interfaces/ModeOptions.ts</title>
<path fill="none" stroke="#000000" stroke-opacity="0.200000" d="M705.07,-329.68C721.5,-326.53 739.79,-323.03 756.05,-319.92"/>
<polygon fill="none" stroke="#000000" stroke-opacity="0.200000" points="756.38,-321.99 761.88,-318.8 755.59,-317.87 756.38,-321.99"/>
</g>
<!-- src/lib/interfaces/DistanceUnit.ts -->
<g id="node16" class="node">
<title>src/lib/interfaces/DistanceUnit.ts</title>
<g id="a_node16"><a xlink:href="src/lib/interfaces/DistanceUnit.ts" xlink:title="DistanceUnit.ts">
<path fill="#ddfeff" stroke="black" d="M836.46,-349.88C836.46,-349.88 770.79,-349.88 770.79,-349.88 767.83,-349.88 764.88,-346.92 764.88,-343.96 764.88,-343.96 764.88,-338.04 764.88,-338.04 764.88,-335.08 767.83,-332.12 770.79,-332.12 770.79,-332.12 836.46,-332.12 836.46,-332.12 839.42,-332.12 842.38,-335.08 842.38,-338.04 842.38,-338.04 842.38,-343.96 842.38,-343.96 842.38,-346.92 839.42,-349.88 836.46,-349.88"/>
<text text-anchor="start" x="772.88" y="-337.32" font-family="Helvetica,sans-Serif" font-size="9.00">DistanceUnit.ts</text>
</a>
</g>
</g>
<!-- src/lib/interfaces/MeasureControlOptions.ts&#45;&gt;src/lib/interfaces/DistanceUnit.ts -->
<g id="edge24" class="edge">
<title>src/lib/interfaces/MeasureControlOptions.ts&#45;&gt;src/lib/interfaces/DistanceUnit.ts</title>
<path fill="none" stroke="#000000" stroke-opacity="0.200000" d="M716.7,-339.83C730.25,-340.01 744.41,-340.2 757.23,-340.38"/>
<polygon fill="none" stroke="#000000" stroke-opacity="0.200000" points="757.07,-342.48 763.09,-340.46 757.12,-338.28 757.07,-342.48"/>
</g>
<!-- src/lib/interfaces/MeasureControlMode.ts -->
<g id="node19" class="node">
<title>src/lib/interfaces/MeasureControlMode.ts</title>
<g id="a_node19"><a xlink:href="src/lib/interfaces/MeasureControlMode.ts" xlink:title="MeasureControlMode.ts">
<path fill="#ddfeff" stroke="black" d="M854.83,-379.88C854.83,-379.88 752.42,-379.88 752.42,-379.88 749.46,-379.88 746.5,-376.92 746.5,-373.96 746.5,-373.96 746.5,-368.04 746.5,-368.04 746.5,-365.08 749.46,-362.12 752.42,-362.12 752.42,-362.12 854.83,-362.12 854.83,-362.12 857.79,-362.12 860.75,-365.08 860.75,-368.04 860.75,-368.04 860.75,-373.96 860.75,-373.96 860.75,-376.92 857.79,-379.88 854.83,-379.88"/>
<text text-anchor="start" x="754.5" y="-367.32" font-family="Helvetica,sans-Serif" font-size="9.00">MeasureControlMode.ts</text>
</a>
</g>
</g>
<!-- src/lib/interfaces/MeasureControlOptions.ts&#45;&gt;src/lib/interfaces/MeasureControlMode.ts -->
<g id="edge25" class="edge">
<title>src/lib/interfaces/MeasureControlOptions.ts&#45;&gt;src/lib/interfaces/MeasureControlMode.ts</title>
<path fill="none" stroke="#000000" stroke-opacity="0.200000" d="M710.83,-348.33C720.09,-350.09 729.59,-352.01 738.5,-354 741.1,-354.58 750.23,-356.97 760.81,-359.78"/>
<polygon fill="none" stroke="#000000" stroke-opacity="0.200000" points="760.12,-361.77 766.46,-361.29 761.2,-357.71 760.12,-361.77"/>
</g>
<!-- src/lib/constants/getDefaultModeOptions.ts -->
<g id="node7" class="node">
<title>src/lib/constants/getDefaultModeOptions.ts</title>
<g id="a_node7"><a xlink:href="src/lib/constants/getDefaultModeOptions.ts" xlink:title="getDefaultModeOptions.ts">
<path fill="#ddfeff" stroke="black" d="M710.33,-139.88C710.33,-139.88 600.42,-139.88 600.42,-139.88 597.46,-139.88 594.5,-136.92 594.5,-133.96 594.5,-133.96 594.5,-128.04 594.5,-128.04 594.5,-125.08 597.46,-122.12 600.42,-122.12 600.42,-122.12 710.33,-122.12 710.33,-122.12 713.29,-122.12 716.25,-125.08 716.25,-128.04 716.25,-128.04 716.25,-133.96 716.25,-133.96 716.25,-136.92 713.29,-139.88 710.33,-139.88"/>
<text text-anchor="start" x="602.5" y="-127.33" font-family="Helvetica,sans-Serif" font-size="9.00">getDefaultModeOptions.ts</text>
</a>
</g>
</g>
<!-- src/lib/constants/getDefaultModeOptions.ts&#45;&gt;src/lib/interfaces/ModeOptions.ts -->
<g id="edge3" class="edge">
<title>src/lib/constants/getDefaultModeOptions.ts&#45;&gt;src/lib/interfaces/ModeOptions.ts</title>
<path fill="none" stroke="#000000" stroke-opacity="0.200000" d="M716.57,-132.3C724.94,-135.04 732.66,-139.36 738.5,-146 760.55,-171.06 725.47,-270.07 746.5,-296 749.27,-299.41 752.72,-302.1 756.54,-304.2"/>
<polygon fill="none" stroke="#000000" stroke-opacity="0.200000" points="755.55,-306.06 761.89,-306.61 757.28,-302.23 755.55,-306.06"/>
</g>
<!-- src/lib/interfaces/TerradrawModeClass.ts -->
<g id="node20" class="node">
<title>src/lib/interfaces/TerradrawModeClass.ts</title>
<g id="a_node20"><a xlink:href="src/lib/interfaces/TerradrawModeClass.ts" xlink:title="TerradrawModeClass.ts">
<path fill="#ddfeff" stroke="black" d="M980.58,-369.88C980.58,-369.88 879.67,-369.88 879.67,-369.88 876.71,-369.88 873.75,-366.92 873.75,-363.96 873.75,-363.96 873.75,-358.04 873.75,-358.04 873.75,-355.08 876.71,-352.12 879.67,-352.12 879.67,-352.12 980.58,-352.12 980.58,-352.12 983.54,-352.12 986.5,-355.08 986.5,-358.04 986.5,-358.04 986.5,-363.96 986.5,-363.96 986.5,-366.92 983.54,-369.88 980.58,-369.88"/>
<text text-anchor="start" x="881.75" y="-357.32" font-family="Helvetica,sans-Serif" font-size="9.00">TerradrawModeClass.ts</text>
</a>
</g>
</g>
<!-- src/lib/interfaces/ModeOptions.ts&#45;&gt;src/lib/interfaces/TerradrawModeClass.ts -->
<g id="edge27" class="edge">
<title>src/lib/interfaces/ModeOptions.ts&#45;&gt;src/lib/interfaces/TerradrawModeClass.ts</title>
<path fill="none" stroke="#000000" stroke-opacity="0.200000" d="M843.91,-320.36C849.63,-322.05 855.38,-323.94 860.75,-326 876.65,-332.11 893.7,-340.84 906.8,-348.05"/>
<polygon fill="none" stroke="#000000" stroke-opacity="0.200000" points="905.68,-349.83 911.95,-350.92 907.73,-346.16 905.68,-349.83"/>
</g>
<!-- src/lib/constants/index.ts -->
<g id="node9" class="node">
<title>src/lib/constants/index.ts</title>
<g id="a_node9"><a xlink:href="src/lib/constants/index.ts" xlink:title="index.ts">
<path fill="#ddfeff" stroke="black" d="M527.83,-184.88C527.83,-184.88 485.67,-184.88 485.67,-184.88 482.71,-184.88 479.75,-181.92 479.75,-178.96 479.75,-178.96 479.75,-173.04 479.75,-173.04 479.75,-170.08 482.71,-167.12 485.67,-167.12 485.67,-167.12 527.83,-167.12 527.83,-167.12 530.79,-167.12 533.75,-170.08 533.75,-173.04 533.75,-173.04 533.75,-178.96 533.75,-178.96 533.75,-181.92 530.79,-184.88 527.83,-184.88"/>
<text text-anchor="start" x="491" y="-172.32" font-family="Helvetica,sans-Serif" font-size="9.00">index.ts</text>
</a>
</g>
</g>
<!-- src/lib/constants/index.ts&#45;&gt;src/lib/constants/AvailableMeasureModes.ts -->
<g id="edge4" class="edge">
<title>src/lib/constants/index.ts&#45;&gt;src/lib/constants/AvailableMeasureModes.ts</title>
<path fill="none" stroke="#000000" stroke-width="2" stroke-opacity="0.200000" d="M527.37,-185.33C541.75,-191.87 561.88,-200.4 580.25,-206 585,-207.45 589.96,-208.8 594.97,-210.04"/>
<polygon fill="#000000" fill-opacity="0.200000" stroke="#000000" stroke-width="2" stroke-opacity="0.200000" points="600.36,-213.49 595.01,-210.05 601.33,-209.4 600.36,-213.49"/>
</g>
<!-- src/lib/constants/index.ts&#45;&gt;src/lib/constants/AvailableModes.ts -->
<g id="edge5" class="edge">
<title>src/lib/constants/index.ts&#45;&gt;src/lib/constants/AvailableModes.ts</title>
<path fill="none" stroke="#000000" stroke-width="2" stroke-opacity="0.200000" d="M516.11,-166.63C528.65,-153.19 553.71,-128.67 580.25,-116 587.38,-112.6 595.25,-109.96 603.12,-107.93"/>
<polygon fill="#000000" fill-opacity="0.200000" stroke="#000000" stroke-width="2" stroke-opacity="0.200000" points="609.23,-108.63 602.91,-107.98 608.26,-104.54 609.23,-108.63"/>
</g>
<!-- src/lib/constants/index.ts&#45;&gt;src/lib/constants/defaultControlOptions.ts -->
<g id="edge6" class="edge">
<title>src/lib/constants/index.ts&#45;&gt;src/lib/constants/defaultControlOptions.ts</title>
<path fill="none" stroke="#000000" stroke-width="2" stroke-opacity="0.200000" d="M533.96,-173.32C549.88,-171.69 570.93,-169.54 590.98,-167.49"/>
<polygon fill="#000000" fill-opacity="0.200000" stroke="#000000" stroke-width="2" stroke-opacity="0.200000" points="597.23,-168.96 591.05,-167.48 596.81,-164.78 597.23,-168.96"/>
</g>
<!-- src/lib/constants/index.ts&#45;&gt;src/lib/constants/defaultMeasureControlOptions.ts -->
<g id="edge7" class="edge">
<title>src/lib/constants/index.ts&#45;&gt;src/lib/constants/defaultMeasureControlOptions.ts</title>
<path fill="none" stroke="#000000" stroke-width="2" stroke-opacity="0.200000" d="M533.96,-178.68C545.15,-179.83 558.87,-181.23 572.99,-182.67"/>
<polygon fill="#000000" fill-opacity="0.200000" stroke="#000000" stroke-width="2" stroke-opacity="0.200000" points="578.74,-185.37 572.99,-182.67 579.17,-181.2 578.74,-185.37"/>
</g>
<!-- src/lib/constants/index.ts&#45;&gt;src/lib/constants/getDefaultModeOptions.ts -->
<g id="edge8" class="edge">
<title>src/lib/constants/index.ts&#45;&gt;src/lib/constants/getDefaultModeOptions.ts</title>
<path fill="none" stroke="#000000" stroke-width="2" stroke-opacity="0.200000" d="M527.37,-166.67C541.75,-160.13 561.88,-151.6 580.25,-146 585,-144.55 589.96,-143.2 594.97,-141.96"/>
<polygon fill="#000000" fill-opacity="0.200000" stroke="#000000" stroke-width="2" stroke-opacity="0.200000" points="601.33,-142.6 595.01,-141.95 600.36,-138.51 601.33,-142.6"/>
</g>
<!-- src/lib/controls/MaplibreMeasureControl.ts -->
<g id="node10" class="node">
<title>src/lib/controls/MaplibreMeasureControl.ts</title>
<g id="a_node10"><a xlink:href="src/lib/controls/MaplibreMeasureControl.ts" xlink:title="MaplibreMeasureControl.ts">
<path fill="#ddfeff" stroke="black" d="M282.08,-202.88C282.08,-202.88 166.92,-202.88 166.92,-202.88 163.96,-202.88 161,-199.92 161,-196.96 161,-196.96 161,-191.04 161,-191.04 161,-188.08 163.96,-185.12 166.92,-185.12 166.92,-185.12 282.08,-185.12 282.08,-185.12 285.04,-185.12 288,-188.08 288,-191.04 288,-191.04 288,-196.96 288,-196.96 288,-199.92 285.04,-202.88 282.08,-202.88"/>
<text text-anchor="start" x="169" y="-190.32" font-family="Helvetica,sans-Serif" font-size="9.00">MaplibreMeasureControl.ts</text>
</a>
</g>
</g>
<!-- src/lib/controls/MaplibreMeasureControl.ts&#45;&gt;src/lib/constants/index.ts -->
<g id="edge9" class="edge">
<title>src/lib/controls/MaplibreMeasureControl.ts&#45;&gt;src/lib/constants/index.ts</title>
<path fill="none" stroke="#000000" stroke-width="2" stroke-opacity="0.200000" d="M288.39,-189.96C344.56,-186.35 424.8,-181.2 470.43,-178.27"/>
<polygon fill="#000000" fill-opacity="0.200000" stroke="#000000" stroke-width="2" stroke-opacity="0.200000" points="470.48,-180.37 476.33,-177.89 470.21,-176.18 470.48,-180.37"/>
</g>
<!-- src/lib/helpers/index.ts -->
<g id="node11" class="node">
<title>src/lib/helpers/index.ts</title>
<g id="a_node11"><a xlink:href="src/lib/helpers/index.ts" xlink:title="index.ts">
<path fill="#ddfeff" stroke="black" d="M388.21,-49.88C388.21,-49.88 346.04,-49.88 346.04,-49.88 343.08,-49.88 340.12,-46.92 340.12,-43.96 340.12,-43.96 340.12,-38.04 340.12,-38.04 340.12,-35.08 343.08,-32.12 346.04,-32.12 346.04,-32.12 388.21,-32.12 388.21,-32.12 391.17,-32.12 394.12,-35.08 394.12,-38.04 394.12,-38.04 394.12,-43.96 394.12,-43.96 394.12,-46.92 391.17,-49.88 388.21,-49.88"/>
<text text-anchor="start" x="351.38" y="-37.33" font-family="Helvetica,sans-Serif" font-size="9.00">index.ts</text>
</a>
</g>
</g>
<!-- src/lib/controls/MaplibreMeasureControl.ts&#45;&gt;src/lib/helpers/index.ts -->
<g id="edge10" class="edge">
<title>src/lib/controls/MaplibreMeasureControl.ts&#45;&gt;src/lib/helpers/index.ts</title>
<path fill="none" stroke="#000000" stroke-width="2" stroke-opacity="0.200000" d="M282.07,-184.73C284.14,-183.62 286.12,-182.38 288,-181 330.11,-150.08 352.46,-89.24 361.4,-58.98"/>
<polygon fill="#000000" fill-opacity="0.200000" stroke="#000000" stroke-width="2" stroke-opacity="0.200000" points="363.42,-59.56 363.02,-53.22 359.37,-58.43 363.42,-59.56"/>
</g>
<!-- src/lib/interfaces/index.ts -->
<g id="node12" class="node">
<title>src/lib/interfaces/index.ts</title>
<g id="a_node12"><a xlink:href="src/lib/interfaces/index.ts" xlink:title="index.ts">
<path fill="#ddfeff" stroke="black" d="M527.83,-325.88C527.83,-325.88 485.67,-325.88 485.67,-325.88 482.71,-325.88 479.75,-322.92 479.75,-319.96 479.75,-319.96 479.75,-314.04 479.75,-314.04 479.75,-311.08 482.71,-308.12 485.67,-308.12 485.67,-308.12 527.83,-308.12 527.83,-308.12 530.79,-308.12 533.75,-311.08 533.75,-314.04 533.75,-314.04 533.75,-319.96 533.75,-319.96 533.75,-322.92 530.79,-325.88 527.83,-325.88"/>
<text text-anchor="start" x="491" y="-313.32" font-family="Helvetica,sans-Serif" font-size="9.00">index.ts</text>
</a>
</g>
</g>
<!-- src/lib/controls/MaplibreMeasureControl.ts&#45;&gt;src/lib/interfaces/index.ts -->
<g id="edge11" class="edge">
<title>src/lib/controls/MaplibreMeasureControl.ts&#45;&gt;src/lib/interfaces/index.ts</title>
<path fill="none" stroke="#000000" stroke-opacity="0.200000" d="M280.8,-203.36C283.29,-204.44 285.71,-205.65 288,-207 295.61,-211.47 293.2,-217.89 301,-222 356.5,-251.26 391.7,-199.52 441.25,-238 449.14,-244.13 443.88,-250.58 449.25,-259 460.14,-276.06 476.65,-292.27 489.01,-303.2"/>
<polygon fill="none" stroke="#000000" stroke-opacity="0.200000" points="487.31,-304.5 493.22,-306.84 490.06,-301.32 487.31,-304.5"/>
</g>
<!-- src/lib/controls/MaplibreTerradrawControl.ts -->
<g id="node13" class="node">
<title>src/lib/controls/MaplibreTerradrawControl.ts</title>
<g id="a_node13"><a xlink:href="src/lib/controls/MaplibreTerradrawControl.ts" xlink:title="MaplibreTerradrawControl.ts">
<path fill="#ddfeff" stroke="black" d="M427.33,-215.88C427.33,-215.88 306.92,-215.88 306.92,-215.88 303.96,-215.88 301,-212.92 301,-209.96 301,-209.96 301,-204.04 301,-204.04 301,-201.08 303.96,-198.12 306.92,-198.12 306.92,-198.12 427.33,-198.12 427.33,-198.12 430.29,-198.12 433.25,-201.08 433.25,-204.04 433.25,-204.04 433.25,-209.96 433.25,-209.96 433.25,-212.92 430.29,-215.88 427.33,-215.88"/>
<text text-anchor="start" x="309" y="-203.32" font-family="Helvetica,sans-Serif" font-size="9.00">MaplibreTerradrawControl.ts</text>
</a>
</g>
</g>
<!-- src/lib/controls/MaplibreMeasureControl.ts&#45;&gt;src/lib/controls/MaplibreTerradrawControl.ts -->
<g id="edge12" class="edge">
<title>src/lib/controls/MaplibreMeasureControl.ts&#45;&gt;src/lib/controls/MaplibreTerradrawControl.ts</title>
<path fill="none" stroke="#000000" stroke-width="2" stroke-opacity="0.200000" d="M288.41,-199.82C289.56,-199.92 290.72,-200.03 291.87,-200.14"/>
<polygon fill="#000000" fill-opacity="0.200000" stroke="#000000" stroke-width="2" stroke-opacity="0.200000" points="291.56,-202.22 297.73,-200.68 291.94,-198.03 291.56,-202.22"/>
</g>
<!-- src/lib/helpers/getDistanceUnitName.ts -->
<g id="node15" class="node">
<title>src/lib/helpers/getDistanceUnitName.ts</title>
<g id="a_node15"><a xlink:href="src/lib/helpers/getDistanceUnitName.ts" xlink:title="getDistanceUnitName.ts">
<path fill="#ddfeff" stroke="black" d="M558.33,-49.88C558.33,-49.88 455.17,-49.88 455.17,-49.88 452.21,-49.88 449.25,-46.92 449.25,-43.96 449.25,-43.96 449.25,-38.04 449.25,-38.04 449.25,-35.08 452.21,-32.12 455.17,-32.12 455.17,-32.12 558.33,-32.12 558.33,-32.12 561.29,-32.12 564.25,-35.08 564.25,-38.04 564.25,-38.04 564.25,-43.96 564.25,-43.96 564.25,-46.92 561.29,-49.88 558.33,-49.88"/>
<text text-anchor="start" x="457.25" y="-37.33" font-family="Helvetica,sans-Serif" font-size="9.00">getDistanceUnitName.ts</text>
</a>
</g>
</g>
<!-- src/lib/helpers/index.ts&#45;&gt;src/lib/helpers/getDistanceUnitName.ts -->
<g id="edge18" class="edge">
<title>src/lib/helpers/index.ts&#45;&gt;src/lib/helpers/getDistanceUnitName.ts</title>
<path fill="none" stroke="#000000" stroke-width="2" stroke-opacity="0.200000" d="M394.34,-41C407.85,-41 424.97,-41 441.72,-41"/>
<polygon fill="#000000" fill-opacity="0.200000" stroke="#000000" stroke-width="2" stroke-opacity="0.200000" points="447.86,-43.1 441.86,-41 447.86,-38.9 447.86,-43.1"/>
</g>
<!-- src/lib/interfaces/index.ts&#45;&gt;src/lib/interfaces/TerradrawControlOptions.ts -->
<g id="edge36" class="edge">
<title>src/lib/interfaces/index.ts&#45;&gt;src/lib/interfaces/TerradrawControlOptions.ts</title>
<path fill="none" stroke="#000000" stroke-width="2" stroke-opacity="0.200000" d="M533.96,-313.07C548.42,-310.9 567.1,-308.09 585.43,-305.35"/>
<polygon fill="#000000" fill-opacity="0.200000" stroke="#000000" stroke-width="2" stroke-opacity="0.200000" points="591.47,-306.56 585.23,-305.37 590.85,-302.41 591.47,-306.56"/>
</g>
<!-- src/lib/interfaces/index.ts&#45;&gt;src/lib/interfaces/MeasureControlOptions.ts -->
<g id="edge34" class="edge">
<title>src/lib/interfaces/index.ts&#45;&gt;src/lib/interfaces/MeasureControlOptions.ts</title>
<path fill="none" stroke="#000000" stroke-width="2" stroke-opacity="0.200000" d="M533.96,-320.93C548.78,-323.16 568.05,-326.05 586.82,-328.86"/>
<polygon fill="#000000" fill-opacity="0.200000" stroke="#000000" stroke-width="2" stroke-opacity="0.200000" points="592.4,-331.82 586.78,-328.86 593.02,-327.67 592.4,-331.82"/>
</g>
<!-- src/lib/interfaces/index.ts&#45;&gt;src/lib/interfaces/ModeOptions.ts -->
<g id="edge35" class="edge">
<title>src/lib/interfaces/index.ts&#45;&gt;src/lib/interfaces/ModeOptions.ts</title>
<path fill="none" stroke="#000000" stroke-width="2" stroke-opacity="0.200000" d="M534.18,-316.46C584.4,-315.44 694.2,-313.21 756.7,-311.93"/>
<polygon fill="#000000" fill-opacity="0.200000" stroke="#000000" stroke-width="2" stroke-opacity="0.200000" points="762.75,-313.91 756.71,-311.93 762.66,-309.71 762.75,-313.91"/>
</g>
<!-- src/lib/interfaces/index.ts&#45;&gt;src/lib/interfaces/DistanceUnit.ts -->
<g id="edge31" class="edge">
<title>src/lib/interfaces/index.ts&#45;&gt;src/lib/interfaces/DistanceUnit.ts</title>
<path fill="none" stroke="#000000" stroke-width="2" stroke-opacity="0.200000" d="M514.03,-326.19C525.21,-341.63 550.25,-372.26 580.25,-384 613,-396.81 710.42,-405.18 738.5,-384 748.83,-376.21 737.27,-365.07 746.5,-356 749.83,-352.72 753.8,-350.14 758.06,-348.11"/>
<polygon fill="#000000" fill-opacity="0.200000" stroke="#000000" stroke-width="2" stroke-opacity="0.200000" points="764.34,-347.83 757.99,-348.14 762.76,-343.94 764.34,-347.83"/>
</g>
<!-- src/lib/interfaces/EventTypes.ts -->
<g id="node18" class="node">
<title>src/lib/interfaces/EventTypes.ts</title>
<g id="a_node18"><a xlink:href="src/lib/interfaces/EventTypes.ts" xlink:title="EventTypes.ts">
<path fill="#ddfeff" stroke="black" d="M685.96,-377.88C685.96,-377.88 624.79,-377.88 624.79,-377.88 621.83,-377.88 618.88,-374.92 618.88,-371.96 618.88,-371.96 618.88,-366.04 618.88,-366.04 618.88,-363.08 621.83,-360.12 624.79,-360.12 624.79,-360.12 685.96,-360.12 685.96,-360.12 688.92,-360.12 691.88,-363.08 691.88,-366.04 691.88,-366.04 691.88,-371.96 691.88,-371.96 691.88,-374.92 688.92,-377.88 685.96,-377.88"/>
<text text-anchor="start" x="626.88" y="-365.32" font-family="Helvetica,sans-Serif" font-size="9.00">EventTypes.ts</text>
</a>
</g>
</g>
<!-- src/lib/interfaces/index.ts&#45;&gt;src/lib/interfaces/EventTypes.ts -->
<g id="edge32" class="edge">
<title>src/lib/interfaces/index.ts&#45;&gt;src/lib/interfaces/EventTypes.ts</title>
<path fill="none" stroke="#000000" stroke-width="2" stroke-opacity="0.200000" d="M523.04,-326.36C537.35,-334.74 559.57,-346.78 580.25,-354 590.22,-357.48 601.23,-360.25 611.66,-362.42"/>
<polygon fill="#000000" fill-opacity="0.200000" stroke="#000000" stroke-width="2" stroke-opacity="0.200000" points="617.01,-365.62 611.54,-362.39 617.83,-361.5 617.01,-365.62"/>
</g>
<!-- src/lib/interfaces/index.ts&#45;&gt;src/lib/interfaces/MeasureControlMode.ts -->
<g id="edge33" class="edge">
<title>src/lib/interfaces/index.ts&#45;&gt;src/lib/interfaces/MeasureControlMode.ts</title>
<path fill="none" stroke="#000000" stroke-width="2" stroke-opacity="0.200000" d="M512.85,-326.14C523.03,-343.32 547.72,-379.95 580.25,-394 644.82,-421.89 669.21,-406.05 738.5,-394 751.16,-391.8 764.63,-387.32 775.94,-382.9"/>
<polygon fill="#000000" fill-opacity="0.200000" stroke="#000000" stroke-width="2" stroke-opacity="0.200000" points="782.18,-382.64 775.83,-382.94 780.61,-378.74 782.18,-382.64"/>
</g>
<!-- src/lib/interfaces/index.ts&#45;&gt;src/lib/interfaces/TerradrawModeClass.ts -->
<g id="edge38" class="edge">
<title>src/lib/interfaces/index.ts&#45;&gt;src/lib/interfaces/TerradrawModeClass.ts</title>
<path fill="none" stroke="#000000" stroke-width="2" stroke-opacity="0.200000" d="M511.88,-326.32C520.97,-345.53 544.79,-389.15 580.25,-406 691.52,-458.87 844.06,-400.48 903.73,-373.34"/>
<polygon fill="#000000" fill-opacity="0.200000" stroke="#000000" stroke-width="2" stroke-opacity="0.200000" points="910.19,-372.68 903.86,-373.28 908.42,-368.86 910.19,-372.68"/>
</g>
<!-- src/lib/interfaces/index.ts&#45;&gt;src/lib/interfaces/TerradrawMode.ts -->
<g id="edge37" class="edge">
<title>src/lib/interfaces/index.ts&#45;&gt;src/lib/interfaces/TerradrawMode.ts</title>
<path fill="none" stroke="#000000" stroke-width="2" stroke-opacity="0.200000" d="M521.15,-307.69C535.16,-298.58 558.13,-285.32 580.25,-280 637.62,-266.21 705.74,-269.24 751.33,-273.92"/>
<polygon fill="#000000" fill-opacity="0.200000" stroke="#000000" stroke-width="2" stroke-opacity="0.200000" points="757.23,-276.67 751.49,-273.94 757.68,-272.49 757.23,-276.67"/>
</g>
<!-- src/lib/controls/MaplibreTerradrawControl.ts&#45;&gt;src/lib/constants/index.ts -->
<g id="edge13" class="edge">
<title>src/lib/controls/MaplibreTerradrawControl.ts&#45;&gt;src/lib/constants/index.ts</title>
<path fill="none" stroke="#000000" stroke-width="2" stroke-opacity="0.200000" d="M409.42,-197.7C429.01,-193.28 452.17,-188.07 470.87,-183.86"/>
<polygon fill="#000000" fill-opacity="0.200000" stroke="#000000" stroke-width="2" stroke-opacity="0.200000" points="471.32,-185.91 476.71,-182.54 470.39,-181.81 471.32,-185.91"/>
</g>
<!-- src/lib/controls/MaplibreTerradrawControl.ts&#45;&gt;src/lib/interfaces/index.ts -->
<g id="edge14" class="edge">
<title>src/lib/controls/MaplibreTerradrawControl.ts&#45;&gt;src/lib/interfaces/index.ts</title>
<path fill="none" stroke="#000000" stroke-opacity="0.200000" d="M422.09,-216.21C429.22,-219.33 435.9,-223.48 441.25,-229 450.85,-238.91 442.44,-247 449.25,-259 459.12,-276.38 475.46,-292.35 488.04,-303.12"/>
<polygon fill="none" stroke="#000000" stroke-opacity="0.200000" points="486.4,-304.48 492.35,-306.71 489.09,-301.26 486.4,-304.48"/>
</g>
<!-- src/lib/controls/index.ts -->
<g id="node14" class="node">
<title>src/lib/controls/index.ts</title>
<g id="a_node14"><a xlink:href="src/lib/controls/index.ts" xlink:title="index.ts">
<path fill="#ddfeff" stroke="black" d="M142.08,-202.88C142.08,-202.88 99.92,-202.88 99.92,-202.88 96.96,-202.88 94,-199.92 94,-196.96 94,-196.96 94,-191.04 94,-191.04 94,-188.08 96.96,-185.12 99.92,-185.12 99.92,-185.12 142.08,-185.12 142.08,-185.12 145.04,-185.12 148,-188.08 148,-191.04 148,-191.04 148,-196.96 148,-196.96 148,-199.92 145.04,-202.88 142.08,-202.88"/>
<text text-anchor="start" x="105.25" y="-190.32" font-family="Helvetica,sans-Serif" font-size="9.00">index.ts</text>
</a>
</g>
</g>
<!-- src/lib/controls/index.ts&#45;&gt;src/lib/controls/MaplibreMeasureControl.ts -->
<g id="edge15" class="edge">
<title>src/lib/controls/index.ts&#45;&gt;src/lib/controls/MaplibreMeasureControl.ts</title>
<path fill="none" stroke="#000000" stroke-width="2" stroke-opacity="0.200000" d="M148.4,-194C150.1,-194 151.84,-194 153.62,-194"/>
<polygon fill="#000000" fill-opacity="0.200000" stroke="#000000" stroke-width="2" stroke-opacity="0.200000" points="159.65,-196.1 153.65,-194 159.65,-191.9 159.65,-196.1"/>
</g>
<!-- src/lib/controls/index.ts&#45;&gt;src/lib/controls/MaplibreTerradrawControl.ts -->
<g id="edge16" class="edge">
<title>src/lib/controls/index.ts&#45;&gt;src/lib/controls/MaplibreTerradrawControl.ts</title>
<path fill="none" stroke="#000000" stroke-width="2" stroke-opacity="0.200000" d="M141.83,-203.24C147.85,-205.6 154.58,-207.81 161,-209 204.69,-217.11 254.53,-216.84 294.13,-214.43"/>
<polygon fill="#000000" fill-opacity="0.200000" stroke="#000000" stroke-width="2" stroke-opacity="0.200000" points="300.04,-216.15 293.92,-214.45 299.77,-211.96 300.04,-216.15"/>
</g>
<!-- src/lib/helpers/getDistanceUnitName.ts&#45;&gt;src/lib/interfaces/DistanceUnit.ts -->
<g id="edge17" class="edge">
<title>src/lib/helpers/getDistanceUnitName.ts&#45;&gt;src/lib/interfaces/DistanceUnit.ts</title>
<path fill="none" stroke="#000000" stroke-opacity="0.200000" d="M564.52,-32.81C618.08,-28.64 696.27,-32.45 738.5,-81 756.38,-101.55 729.56,-304.67 746.5,-326 749.58,-329.87 753.53,-332.81 757.92,-335.04"/>
<polygon fill="none" stroke="#000000" stroke-opacity="0.200000" points="756.86,-336.87 763.21,-337.22 758.47,-332.99 756.86,-336.87"/>
</g>
<!-- src/lib/index.ts -->
<g id="node17" class="node">
<title>src/lib/index.ts</title>
<g id="a_node17"><a xlink:href="src/lib/index.ts" xlink:title="index.ts">
<path fill="#ddfeff" stroke="black" d="M72.08,-189.88C72.08,-189.88 29.92,-189.88 29.92,-189.88 26.96,-189.88 24,-186.92 24,-183.96 24,-183.96 24,-178.04 24,-178.04 24,-175.08 26.96,-172.12 29.92,-172.12 29.92,-172.12 72.08,-172.12 72.08,-172.12 75.04,-172.12 78,-175.08 78,-178.04 78,-178.04 78,-183.96 78,-183.96 78,-186.92 75.04,-189.88 72.08,-189.88"/>
<text text-anchor="start" x="35.25" y="-177.32" font-family="Helvetica,sans-Serif" font-size="9.00">index.ts</text>
</a>
</g>
</g>
<!-- src/lib/index.ts&#45;&gt;src/lib/constants/index.ts -->
<g id="edge19" class="edge">
<title>src/lib/index.ts&#45;&gt;src/lib/constants/index.ts</title>
<path fill="none" stroke="#000000" stroke-width="2" stroke-opacity="0.200000" d="M78.28,-175.04C80.87,-174.62 83.48,-174.26 86,-174 243.08,-158 283.38,-171.55 441.25,-174 451.35,-174.16 462.33,-174.45 472.32,-174.77"/>
<polygon fill="#000000" fill-opacity="0.200000" stroke="#000000" stroke-width="2" stroke-opacity="0.200000" points="478.33,-177.06 472.4,-174.77 478.46,-172.87 478.33,-177.06"/>
</g>
<!-- src/lib/index.ts&#45;&gt;src/lib/helpers/index.ts -->
<g id="edge21" class="edge">
<title>src/lib/index.ts&#45;&gt;src/lib/helpers/index.ts</title>
<path fill="none" stroke="#000000" stroke-width="2" stroke-opacity="0.200000" d="M66.52,-171.77C103.89,-148.45 207.03,-86.64 301,-54 311.09,-50.5 322.4,-47.83 332.73,-45.84"/>
<polygon fill="#000000" fill-opacity="0.200000" stroke="#000000" stroke-width="2" stroke-opacity="0.200000" points="339.09,-46.83 332.81,-45.83 338.34,-42.69 339.09,-46.83"/>
</g>
<!-- src/lib/index.ts&#45;&gt;src/lib/interfaces/index.ts -->
<g id="edge22" class="edge">
<title>src/lib/index.ts&#45;&gt;src/lib/interfaces/index.ts</title>
<path fill="none" stroke="#000000" stroke-width="2" stroke-opacity="0.200000" d="M54.06,-190.26C57.77,-204.67 67.04,-232.23 86,-246 206.06,-333.21 395.98,-327.3 472.34,-320.69"/>
<polygon fill="#000000" fill-opacity="0.200000" stroke="#000000" stroke-width="2" stroke-opacity="0.200000" points="478.56,-322.23 472.39,-320.68 478.18,-318.05 478.56,-322.23"/>
</g>
<!-- src/lib/index.ts&#45;&gt;src/lib/controls/index.ts -->
<g id="edge20" class="edge">
<title>src/lib/index.ts&#45;&gt;src/lib/controls/index.ts</title>
<path fill="none" stroke="#000000" stroke-width="2" stroke-opacity="0.200000" d="M78.49,-186.06C81.34,-186.61 84.27,-187.17 87.18,-187.73"/>
<polygon fill="#000000" fill-opacity="0.200000" stroke="#000000" stroke-width="2" stroke-opacity="0.200000" points="92.55,-190.89 87.05,-187.7 93.33,-186.76 92.55,-190.89"/>
</g>
<!-- src/lib/interfaces/MeasureControlMode.ts&#45;&gt;src/lib/constants/AvailableMeasureModes.ts -->
<g id="edge23" class="edge">
<title>src/lib/interfaces/MeasureControlMode.ts&#45;&gt;src/lib/constants/AvailableMeasureModes.ts</title>
<path fill="none" stroke="#000000" stroke-opacity="0.200000" d="M752.68,-361.65C750.4,-360.04 748.31,-358.17 746.5,-356 732.9,-339.75 750.48,-278.48 738.5,-261 729.64,-248.07 715.38,-239.16 701.21,-233.1"/>
<polygon fill="none" stroke="#000000" stroke-opacity="0.200000" points="702.05,-231.17 695.7,-230.9 700.49,-235.07 702.05,-231.17"/>
</g>
<!-- src/lib/interfaces/TerradrawMode.ts&#45;&gt;src/lib/constants/AvailableModes.ts -->
<g id="edge30" class="edge">
<title>src/lib/interfaces/TerradrawMode.ts&#45;&gt;src/lib/constants/AvailableModes.ts</title>
<path fill="none" stroke="#000000" stroke-width="2" stroke-opacity="0.200000" d="M802.05,-271.73C799.74,-243.42 788.73,-157.49 738.5,-116 730.38,-109.29 720.26,-105.19 709.92,-102.74"/>
<polygon fill="#000000" fill-opacity="0.200000" stroke="#000000" stroke-width="2" stroke-opacity="0.200000" points="710.48,-100.71 704.19,-101.63 709.68,-104.84 710.48,-100.71"/>
</g>
</g>
</svg>
