<?xml version="1.0" encoding="UTF-8" standalone="no"?>
<!DOCTYPE svg PUBLIC "-//W3C//DTD SVG 1.1//EN"
 "http://www.w3.org/Graphics/SVG/1.1/DTD/svg11.dtd">
<!-- Generated by graphviz version 12.2.1 (20241206.2353)
 -->
<!-- Title: dependency&#45;cruiser output Pages: 1 -->
<svg width="971pt" height="440pt"
 viewBox="0.00 0.00 970.50 440.00" xmlns="http://www.w3.org/2000/svg" xmlns:xlink="http://www.w3.org/1999/xlink">
<g id="graph0" class="graph" transform="scale(1 1) rotate(0) translate(4 436)">
<title>dependency&#45;cruiser output</title>
<polygon fill="white" stroke="none" points="-4,4 -4,-436 966.5,-436 966.5,4 -4,4"/>
<g id="clust1" class="cluster">
<title>cluster_src</title>
<path fill="#ffffff" stroke="black" stroke-width="2" d="M20,-8C20,-8 942.5,-8 942.5,-8 948.5,-8 954.5,-14 954.5,-20 954.5,-20 954.5,-412 954.5,-412 954.5,-418 948.5,-424 942.5,-424 942.5,-424 20,-424 20,-424 14,-424 8,-418 8,-412 8,-412 8,-20 8,-20 8,-14 14,-8 20,-8"/>
<text text-anchor="middle" x="481.25" y="-411.45" font-family="Helvetica,sans-Serif" font-weight="bold" font-size="9.00">src</text>
</g>
<g id="clust2" class="cluster">
<title>cluster_src/lib</title>
<path fill="#ffffff" stroke="black" stroke-width="2" d="M28,-16C28,-16 934.5,-16 934.5,-16 940.5,-16 946.5,-22 946.5,-28 946.5,-28 946.5,-386 946.5,-386 946.5,-392 940.5,-398 934.5,-398 934.5,-398 28,-398 28,-398 22,-398 16,-392 16,-386 16,-386 16,-28 16,-28 16,-22 22,-16 28,-16"/>
<text text-anchor="middle" x="481.25" y="-385.45" font-family="Helvetica,sans-Serif" font-weight="bold" font-size="9.00">lib</text>
</g>
<g id="clust3" class="cluster">
<title>cluster_src/lib/constants</title>
<path fill="#ffffff" stroke="black" stroke-width="2" d="M461.25,-200C461.25,-200 670.5,-200 670.5,-200 676.5,-200 682.5,-206 682.5,-212 682.5,-212 682.5,-360 682.5,-360 682.5,-366 676.5,-372 670.5,-372 670.5,-372 461.25,-372 461.25,-372 455.25,-372 449.25,-366 449.25,-360 449.25,-360 449.25,-212 449.25,-212 449.25,-206 455.25,-200 461.25,-200"/>
<text text-anchor="middle" x="565.88" y="-359.45" font-family="Helvetica,sans-Serif" font-weight="bold" font-size="9.00">constants</text>
</g>
<g id="clust4" class="cluster">
<title>cluster_src/lib/controls</title>
<path fill="#ffffff" stroke="black" stroke-width="2" d="M98,-138C98,-138 429.25,-138 429.25,-138 435.25,-138 441.25,-144 441.25,-150 441.25,-150 441.25,-192 441.25,-192 441.25,-198 435.25,-204 429.25,-204 429.25,-204 98,-204 98,-204 92,-204 86,-198 86,-192 86,-192 86,-150 86,-150 86,-144 92,-138 98,-138"/>
<text text-anchor="middle" x="263.62" y="-191.45" font-family="Helvetica,sans-Serif" font-weight="bold" font-size="9.00">controls</text>
</g>
<g id="clust5" class="cluster">
<title>cluster_src/lib/interfaces</title>
<path fill="#ffffff" stroke="black" stroke-width="2" d="M461.25,-24C461.25,-24 926.5,-24 926.5,-24 932.5,-24 938.5,-30 938.5,-36 938.5,-36 938.5,-180 938.5,-180 938.5,-186 932.5,-192 926.5,-192 926.5,-192 461.25,-192 461.25,-192 455.25,-192 449.25,-186 449.25,-180 449.25,-180 449.25,-36 449.25,-36 449.25,-30 455.25,-24 461.25,-24"/>
<text text-anchor="middle" x="693.88" y="-179.45" font-family="Helvetica,sans-Serif" font-weight="bold" font-size="9.00">interfaces</text>
</g>
<!-- src/lib/constants/AvailableMeasureModes.ts -->
<g id="node1" class="node">
<title>src/lib/constants/AvailableMeasureModes.ts</title>
<g id="a_node1"><a xlink:href="src/lib/constants/AvailableMeasureModes.ts" xlink:title="AvailableMeasureModes.ts">
<path fill="#ddfeff" stroke="black" d="M656.96,-285.88C656.96,-285.88 541.79,-285.88 541.79,-285.88 538.83,-285.88 535.88,-282.92 535.88,-279.96 535.88,-279.96 535.88,-274.04 535.88,-274.04 535.88,-271.08 538.83,-268.12 541.79,-268.12 541.79,-268.12 656.96,-268.12 656.96,-268.12 659.92,-268.12 662.88,-271.08 662.88,-274.04 662.88,-274.04 662.88,-279.96 662.88,-279.96 662.88,-282.92 659.92,-285.88 656.96,-285.88"/>
<text text-anchor="start" x="543.88" y="-273.32" font-family="Helvetica,sans-Serif" font-size="9.00">AvailableMeasureModes.ts</text>
</a>
</g>
</g>
<!-- src/lib/constants/AvailableModes.ts -->
<g id="node2" class="node">
<title>src/lib/constants/AvailableModes.ts</title>
<g id="a_node2"><a xlink:href="src/lib/constants/AvailableModes.ts" xlink:title="AvailableModes.ts">
<path fill="#ddfeff" stroke="black" d="M638.96,-225.88C638.96,-225.88 559.79,-225.88 559.79,-225.88 556.83,-225.88 553.88,-222.92 553.88,-219.96 553.88,-219.96 553.88,-214.04 553.88,-214.04 553.88,-211.08 556.83,-208.12 559.79,-208.12 559.79,-208.12 638.96,-208.12 638.96,-208.12 641.92,-208.12 644.88,-211.08 644.88,-214.04 644.88,-214.04 644.88,-219.96 644.88,-219.96 644.88,-222.92 641.92,-225.88 638.96,-225.88"/>
<text text-anchor="start" x="561.88" y="-213.32" font-family="Helvetica,sans-Serif" font-size="9.00">AvailableModes.ts</text>
</a>
</g>
</g>
<!-- src/lib/constants/defaultControlOptions.ts -->
<g id="node3" class="node">
<title>src/lib/constants/defaultControlOptions.ts</title>
<g id="a_node3"><a xlink:href="src/lib/constants/defaultControlOptions.ts" xlink:title="defaultControlOptions.ts">
<path fill="#ddfeff" stroke="black" d="M650.58,-315.88C650.58,-315.88 548.17,-315.88 548.17,-315.88 545.21,-315.88 542.25,-312.92 542.25,-309.96 542.25,-309.96 542.25,-304.04 542.25,-304.04 542.25,-301.08 545.21,-298.12 548.17,-298.12 548.17,-298.12 650.58,-298.12 650.58,-298.12 653.54,-298.12 656.5,-301.08 656.5,-304.04 656.5,-304.04 656.5,-309.96 656.5,-309.96 656.5,-312.92 653.54,-315.88 650.58,-315.88"/>
<text text-anchor="start" x="550.25" y="-303.32" font-family="Helvetica,sans-Serif" font-size="9.00">defaultControlOptions.ts</text>
</a>
</g>
</g>
<!-- src/lib/interfaces/TerradrawControlOptions.ts -->
<g id="node4" class="node">
<title>src/lib/interfaces/TerradrawControlOptions.ts</title>
<g id="a_node4"><a xlink:href="src/lib/interfaces/TerradrawControlOptions.ts" xlink:title="TerradrawControlOptions.ts">
<path fill="#ddfeff" stroke="black" d="M657.33,-107.88C657.33,-107.88 541.42,-107.88 541.42,-107.88 538.46,-107.88 535.5,-104.92 535.5,-101.96 535.5,-101.96 535.5,-96.04 535.5,-96.04 535.5,-93.08 538.46,-90.12 541.42,-90.12 541.42,-90.12 657.33,-90.12 657.33,-90.12 660.29,-90.12 663.25,-93.08 663.25,-96.04 663.25,-96.04 663.25,-101.96 663.25,-101.96 663.25,-104.92 660.29,-107.88 657.33,-107.88"/>
<text text-anchor="start" x="543.5" y="-95.33" font-family="Helvetica,sans-Serif" font-size="9.00">TerradrawControlOptions.ts</text>
</a>
</g>
</g>
<!-- src/lib/constants/defaultControlOptions.ts&#45;&gt;src/lib/interfaces/TerradrawControlOptions.ts -->
<g id="edge1" class="edge">
<title>src/lib/constants/defaultControlOptions.ts&#45;&gt;src/lib/interfaces/TerradrawControlOptions.ts</title>
<path fill="none" stroke="#000000" stroke-opacity="0.200000" d="M542.09,-305.69C531.45,-302.33 522.27,-296.32 517.75,-286 510.98,-270.53 510.98,-149.47 517.75,-134 522.26,-123.69 530.84,-116.41 540.8,-111.28"/>
<polygon fill="none" stroke="#000000" stroke-opacity="0.200000" points="541.56,-113.24 546.14,-108.83 539.81,-109.42 541.56,-113.24"/>
</g>
<!-- src/lib/interfaces/ModeOptions.ts -->
<g id="node8" class="node">
<title>src/lib/interfaces/ModeOptions.ts</title>
<g id="a_node8"><a xlink:href="src/lib/interfaces/ModeOptions.ts" xlink:title="ModeOptions.ts">
<path fill="#ddfeff" stroke="black" d="M781.58,-132.88C781.58,-132.88 713.67,-132.88 713.67,-132.88 710.71,-132.88 707.75,-129.92 707.75,-126.96 707.75,-126.96 707.75,-121.04 707.75,-121.04 707.75,-118.08 710.71,-115.12 713.67,-115.12 713.67,-115.12 781.58,-115.12 781.58,-115.12 784.54,-115.12 787.5,-118.08 787.5,-121.04 787.5,-121.04 787.5,-126.96 787.5,-126.96 787.5,-129.92 784.54,-132.88 781.58,-132.88"/>
<text text-anchor="start" x="715.75" y="-120.33" font-family="Helvetica,sans-Serif" font-size="9.00">ModeOptions.ts</text>
</a>
</g>
</g>
<!-- src/lib/interfaces/TerradrawControlOptions.ts&#45;&gt;src/lib/interfaces/ModeOptions.ts -->
<g id="edge23" class="edge">
<title>src/lib/interfaces/TerradrawControlOptions.ts&#45;&gt;src/lib/interfaces/ModeOptions.ts</title>
<path fill="none" stroke="#000000" stroke-opacity="0.200000" d="M654.83,-108.31C669.77,-110.86 685.82,-113.61 700.26,-116.07"/>
<polygon fill="none" stroke="#000000" stroke-opacity="0.200000" points="699.89,-118.14 706.16,-117.08 700.6,-114 699.89,-118.14"/>
</g>
<!-- src/lib/interfaces/TerradrawMode.ts -->
<g id="node18" class="node">
<title>src/lib/interfaces/TerradrawMode.ts</title>
<g id="a_node18"><a xlink:href="src/lib/interfaces/TerradrawMode.ts" xlink:title="TerradrawMode.ts">
<path fill="#ddfeff" stroke="black" d="M786.46,-102.88C786.46,-102.88 708.79,-102.88 708.79,-102.88 705.83,-102.88 702.88,-99.92 702.88,-96.96 702.88,-96.96 702.88,-91.04 702.88,-91.04 702.88,-88.08 705.83,-85.12 708.79,-85.12 708.79,-85.12 786.46,-85.12 786.46,-85.12 789.42,-85.12 792.38,-88.08 792.38,-91.04 792.38,-91.04 792.38,-96.96 792.38,-96.96 792.38,-99.92 789.42,-102.88 786.46,-102.88"/>
<text text-anchor="start" x="710.88" y="-90.33" font-family="Helvetica,sans-Serif" font-size="9.00">TerradrawMode.ts</text>
</a>
</g>
</g>
<!-- src/lib/interfaces/TerradrawControlOptions.ts&#45;&gt;src/lib/interfaces/TerradrawMode.ts -->
<g id="edge24" class="edge">
<title>src/lib/interfaces/TerradrawControlOptions.ts&#45;&gt;src/lib/interfaces/TerradrawMode.ts</title>
<path fill="none" stroke="#000000" stroke-opacity="0.200000" d="M663.67,-96.84C674.23,-96.47 685.07,-96.1 695.29,-95.76"/>
<polygon fill="none" stroke="#000000" stroke-opacity="0.200000" points="695.16,-97.86 701.09,-95.56 695.02,-93.66 695.16,-97.86"/>
</g>
<!-- src/lib/constants/defaultMeasureControlOptions.ts -->
<g id="node5" class="node">
<title>src/lib/constants/defaultMeasureControlOptions.ts</title>
<g id="a_node5"><a xlink:href="src/lib/constants/defaultMeasureControlOptions.ts" xlink:title="defaultMeasureControlOptions.ts">
<path fill="#ddfeff" stroke="black" d="M668.58,-345.88C668.58,-345.88 530.17,-345.88 530.17,-345.88 527.21,-345.88 524.25,-342.92 524.25,-339.96 524.25,-339.96 524.25,-334.04 524.25,-334.04 524.25,-331.08 527.21,-328.12 530.17,-328.12 530.17,-328.12 668.58,-328.12 668.58,-328.12 671.54,-328.12 674.5,-331.08 674.5,-334.04 674.5,-334.04 674.5,-339.96 674.5,-339.96 674.5,-342.92 671.54,-345.88 668.58,-345.88"/>
<text text-anchor="start" x="532.25" y="-333.32" font-family="Helvetica,sans-Serif" font-size="9.00">defaultMeasureControlOptions.ts</text>
</a>
</g>
</g>
<!-- src/lib/interfaces/MeasureControlOptions.ts -->
<g id="node6" class="node">
<title>src/lib/interfaces/MeasureControlOptions.ts</title>
<g id="a_node6"><a xlink:href="src/lib/interfaces/MeasureControlOptions.ts" xlink:title="MeasureControlOptions.ts">
<path fill="#ddfeff" stroke="black" d="M654.71,-151.88C654.71,-151.88 544.04,-151.88 544.04,-151.88 541.08,-151.88 538.12,-148.92 538.12,-145.96 538.12,-145.96 538.12,-140.04 538.12,-140.04 538.12,-137.08 541.08,-134.12 544.04,-134.12 544.04,-134.12 654.71,-134.12 654.71,-134.12 657.67,-134.12 660.62,-137.08 660.62,-140.04 660.62,-140.04 660.62,-145.96 660.62,-145.96 660.62,-148.92 657.67,-151.88 654.71,-151.88"/>
<text text-anchor="start" x="546.12" y="-139.32" font-family="Helvetica,sans-Serif" font-size="9.00">MeasureControlOptions.ts</text>
</a>
</g>
</g>
<!-- src/lib/constants/defaultMeasureControlOptions.ts&#45;&gt;src/lib/interfaces/MeasureControlOptions.ts -->
<g id="edge2" class="edge">
<title>src/lib/constants/defaultMeasureControlOptions.ts&#45;&gt;src/lib/interfaces/MeasureControlOptions.ts</title>
<path fill="none" stroke="#000000" stroke-opacity="0.200000" d="M526.82,-327.82C523,-324.71 519.86,-320.83 517.75,-316 512.71,-304.5 512.71,-214.5 517.75,-203 527.45,-180.85 550.26,-165.19 569.32,-155.43"/>
<polygon fill="none" stroke="#000000" stroke-opacity="0.200000" points="569.79,-157.54 574.25,-153.02 567.94,-153.77 569.79,-157.54"/>
</g>
<!-- src/lib/interfaces/MeasureControlOptions.ts&#45;&gt;src/lib/interfaces/ModeOptions.ts -->
<g id="edge21" class="edge">
<title>src/lib/interfaces/MeasureControlOptions.ts&#45;&gt;src/lib/interfaces/ModeOptions.ts</title>
<path fill="none" stroke="#000000" stroke-opacity="0.200000" d="M660.7,-135.16C673.86,-133.45 687.59,-131.67 700.11,-130.04"/>
<polygon fill="none" stroke="#000000" stroke-opacity="0.200000" points="700.14,-132.16 705.82,-129.3 699.6,-127.99 700.14,-132.16"/>
</g>
<!-- src/lib/interfaces/MeasureControlMode.ts -->
<g id="node16" class="node">
<title>src/lib/interfaces/MeasureControlMode.ts</title>
<g id="a_node16"><a xlink:href="src/lib/interfaces/MeasureControlMode.ts" xlink:title="MeasureControlMode.ts">
<path fill="#ddfeff" stroke="black" d="M798.83,-165.88C798.83,-165.88 696.42,-165.88 696.42,-165.88 693.46,-165.88 690.5,-162.92 690.5,-159.96 690.5,-159.96 690.5,-154.04 690.5,-154.04 690.5,-151.08 693.46,-148.12 696.42,-148.12 696.42,-148.12 798.83,-148.12 798.83,-148.12 801.79,-148.12 804.75,-151.08 804.75,-154.04 804.75,-154.04 804.75,-159.96 804.75,-159.96 804.75,-162.92 801.79,-165.88 798.83,-165.88"/>
<text text-anchor="start" x="698.5" y="-153.32" font-family="Helvetica,sans-Serif" font-size="9.00">MeasureControlMode.ts</text>
</a>
</g>
</g>
<!-- src/lib/interfaces/MeasureControlOptions.ts&#45;&gt;src/lib/interfaces/MeasureControlMode.ts -->
<g id="edge20" class="edge">
<title>src/lib/interfaces/MeasureControlOptions.ts&#45;&gt;src/lib/interfaces/MeasureControlMode.ts</title>
<path fill="none" stroke="#000000" stroke-opacity="0.200000" d="M660.7,-148.78C668.02,-149.48 675.52,-150.19 682.88,-150.9"/>
<polygon fill="none" stroke="#000000" stroke-opacity="0.200000" points="682.51,-152.97 688.69,-151.45 682.91,-148.79 682.51,-152.97"/>
</g>
<!-- src/lib/constants/getDefaultModeOptions.ts -->
<g id="node7" class="node">
<title>src/lib/constants/getDefaultModeOptions.ts</title>
<g id="a_node7"><a xlink:href="src/lib/constants/getDefaultModeOptions.ts" xlink:title="getDefaultModeOptions.ts">
<path fill="#ddfeff" stroke="black" d="M654.33,-255.88C654.33,-255.88 544.42,-255.88 544.42,-255.88 541.46,-255.88 538.5,-252.92 538.5,-249.96 538.5,-249.96 538.5,-244.04 538.5,-244.04 538.5,-241.08 541.46,-238.12 544.42,-238.12 544.42,-238.12 654.33,-238.12 654.33,-238.12 657.29,-238.12 660.25,-241.08 660.25,-244.04 660.25,-244.04 660.25,-249.96 660.25,-249.96 660.25,-252.92 657.29,-255.88 654.33,-255.88"/>
<text text-anchor="start" x="546.5" y="-243.32" font-family="Helvetica,sans-Serif" font-size="9.00">getDefaultModeOptions.ts</text>
</a>
</g>
</g>
<!-- src/lib/constants/getDefaultModeOptions.ts&#45;&gt;src/lib/interfaces/ModeOptions.ts -->
<g id="edge3" class="edge">
<title>src/lib/constants/getDefaultModeOptions.ts&#45;&gt;src/lib/interfaces/ModeOptions.ts</title>
<path fill="none" stroke="#000000" stroke-opacity="0.200000" d="M660.36,-245.52C668.76,-242.8 676.54,-238.53 682.5,-232 696.03,-217.16 677.96,-157.68 690.5,-142 693.35,-138.43 696.91,-135.56 700.85,-133.26"/>
<polygon fill="none" stroke="#000000" stroke-opacity="0.200000" points="701.5,-135.28 705.95,-130.74 699.64,-131.51 701.5,-135.28"/>
</g>
<!-- src/lib/interfaces/TerradrawModeClass.ts -->
<g id="node17" class="node">
<title>src/lib/interfaces/TerradrawModeClass.ts</title>
<g id="a_node17"><a xlink:href="src/lib/interfaces/TerradrawModeClass.ts" xlink:title="TerradrawModeClass.ts">
<path fill="#ddfeff" stroke="black" d="M924.58,-100.88C924.58,-100.88 823.67,-100.88 823.67,-100.88 820.71,-100.88 817.75,-97.92 817.75,-94.96 817.75,-94.96 817.75,-89.04 817.75,-89.04 817.75,-86.08 820.71,-83.12 823.67,-83.12 823.67,-83.12 924.58,-83.12 924.58,-83.12 927.54,-83.12 930.5,-86.08 930.5,-89.04 930.5,-89.04 930.5,-94.96 930.5,-94.96 930.5,-97.92 927.54,-100.88 924.58,-100.88"/>
<text text-anchor="start" x="825.75" y="-88.33" font-family="Helvetica,sans-Serif" font-size="9.00">TerradrawModeClass.ts</text>
</a>
</g>
</g>
<!-- src/lib/interfaces/ModeOptions.ts&#45;&gt;src/lib/interfaces/TerradrawModeClass.ts -->
<g id="edge22" class="edge">
<title>src/lib/interfaces/ModeOptions.ts&#45;&gt;src/lib/interfaces/TerradrawModeClass.ts</title>
<path fill="none" stroke="#000000" stroke-opacity="0.200000" d="M784.97,-114.66C799.03,-111.04 815.24,-106.88 829.9,-103.11"/>
<polygon fill="none" stroke="#000000" stroke-opacity="0.200000" points="830.2,-105.2 835.48,-101.67 829.15,-101.13 830.2,-105.2"/>
</g>
<!-- src/lib/constants/index.ts -->
<g id="node9" class="node">
<title>src/lib/constants/index.ts</title>
<g id="a_node9"><a xlink:href="src/lib/constants/index.ts" xlink:title="index.ts">
<path fill="#ddfeff" stroke="black" d="M505.33,-240.88C505.33,-240.88 463.17,-240.88 463.17,-240.88 460.21,-240.88 457.25,-237.92 457.25,-234.96 457.25,-234.96 457.25,-229.04 457.25,-229.04 457.25,-226.08 460.21,-223.12 463.17,-223.12 463.17,-223.12 505.33,-223.12 505.33,-223.12 508.29,-223.12 511.25,-226.08 511.25,-229.04 511.25,-229.04 511.25,-234.96 511.25,-234.96 511.25,-237.92 508.29,-240.88 505.33,-240.88"/>
<text text-anchor="start" x="468.5" y="-228.32" font-family="Helvetica,sans-Serif" font-size="9.00">index.ts</text>
</a>
</g>
</g>
<!-- src/lib/constants/index.ts&#45;&gt;src/lib/constants/AvailableMeasureModes.ts -->
<g id="edge4" class="edge">
<title>src/lib/constants/index.ts&#45;&gt;src/lib/constants/AvailableMeasureModes.ts</title>
<path fill="none" stroke="#000000" stroke-width="2" stroke-opacity="0.200000" d="M494.69,-241.27C502.12,-248.04 513.06,-256.9 524.25,-262 526.94,-263.23 529.73,-264.35 532.58,-265.39"/>
<polygon fill="#000000" fill-opacity="0.200000" stroke="#000000" stroke-width="2" stroke-opacity="0.200000" points="537.71,-269.31 532.68,-265.42 539.04,-265.33 537.71,-269.31"/>
</g>
<!-- src/lib/constants/index.ts&#45;&gt;src/lib/constants/AvailableModes.ts -->
<g id="edge5" class="edge">
<title>src/lib/constants/index.ts&#45;&gt;src/lib/constants/AvailableModes.ts</title>
<path fill="none" stroke="#000000" stroke-width="2" stroke-opacity="0.200000" d="M511.49,-228.52C521.96,-227.13 534.41,-225.48 546.56,-223.87"/>
<polygon fill="#000000" fill-opacity="0.200000" stroke="#000000" stroke-width="2" stroke-opacity="0.200000" points="552.95,-225.14 546.73,-223.85 552.4,-220.98 552.95,-225.14"/>
</g>
<!-- src/lib/constants/index.ts&#45;&gt;src/lib/constants/defaultControlOptions.ts -->
<g id="edge6" class="edge">
<title>src/lib/constants/index.ts&#45;&gt;src/lib/constants/defaultControlOptions.ts</title>
<path fill="none" stroke="#000000" stroke-width="2" stroke-opacity="0.200000" d="M488.45,-240.96C493.73,-254.32 505.55,-279.29 524.25,-292 527.66,-294.32 531.35,-296.29 535.19,-297.97"/>
<polygon fill="#000000" fill-opacity="0.200000" stroke="#000000" stroke-width="2" stroke-opacity="0.200000" points="540.1,-302.13 535.27,-298 541.62,-298.21 540.1,-302.13"/>
</g>
<!-- src/lib/constants/index.ts&#45;&gt;src/lib/constants/defaultMeasureControlOptions.ts -->
<g id="edge7" class="edge">
<title>src/lib/constants/index.ts&#45;&gt;src/lib/constants/defaultMeasureControlOptions.ts</title>
<path fill="none" stroke="#000000" stroke-width="2" stroke-opacity="0.200000" d="M486.44,-241.33C489.32,-259.82 498.45,-301.1 524.25,-322 525.08,-322.67 525.93,-323.32 526.8,-323.93"/>
<polygon fill="#000000" fill-opacity="0.200000" stroke="#000000" stroke-width="2" stroke-opacity="0.200000" points="530.86,-328.9 526.85,-323.96 533.06,-325.32 530.86,-328.9"/>
</g>
<!-- src/lib/constants/index.ts&#45;&gt;src/lib/constants/getDefaultModeOptions.ts -->
<g id="edge8" class="edge">
<title>src/lib/constants/index.ts&#45;&gt;src/lib/constants/getDefaultModeOptions.ts</title>
<path fill="none" stroke="#000000" stroke-width="2" stroke-opacity="0.200000" d="M511.49,-235.48C517.56,-236.28 524.29,-237.18 531.24,-238.1"/>
<polygon fill="#000000" fill-opacity="0.200000" stroke="#000000" stroke-width="2" stroke-opacity="0.200000" points="536.98,-240.98 531.31,-238.11 537.54,-236.81 536.98,-240.98"/>
</g>
<!-- src/lib/controls/MaplibreMeasureControl.ts -->
<g id="node10" class="node">
<title>src/lib/controls/MaplibreMeasureControl.ts</title>
<g id="a_node10"><a xlink:href="src/lib/controls/MaplibreMeasureControl.ts" xlink:title="MaplibreMeasureControl.ts">
<path fill="#ddfeff" stroke="black" d="M282.08,-163.88C282.08,-163.88 166.92,-163.88 166.92,-163.88 163.96,-163.88 161,-160.92 161,-157.96 161,-157.96 161,-152.04 161,-152.04 161,-149.08 163.96,-146.12 166.92,-146.12 166.92,-146.12 282.08,-146.12 282.08,-146.12 285.04,-146.12 288,-149.08 288,-152.04 288,-152.04 288,-157.96 288,-157.96 288,-160.92 285.04,-163.88 282.08,-163.88"/>
<text text-anchor="start" x="169" y="-151.32" font-family="Helvetica,sans-Serif" font-size="9.00">MaplibreMeasureControl.ts</text>
</a>
</g>
</g>
<!-- src/lib/controls/MaplibreMeasureControl.ts&#45;&gt;src/lib/constants/index.ts -->
<g id="edge9" class="edge">
<title>src/lib/controls/MaplibreMeasureControl.ts&#45;&gt;src/lib/constants/index.ts</title>
<path fill="none" stroke="#000000" stroke-width="2" stroke-opacity="0.200000" d="M280.06,-164.31C282.8,-165.41 285.46,-166.63 288,-168 295.19,-171.88 293.65,-177.42 301,-181 357.46,-208.48 383.43,-173.52 441.25,-198 451.44,-202.31 461.15,-209.87 468.66,-216.76"/>
<polygon fill="#000000" fill-opacity="0.200000" stroke="#000000" stroke-width="2" stroke-opacity="0.200000" points="466.95,-218.02 472.72,-220.69 469.87,-215 466.95,-218.02"/>
</g>
<!-- src/lib/interfaces/index.ts -->
<g id="node11" class="node">
<title>src/lib/interfaces/index.ts</title>
<g id="a_node11"><a xlink:href="src/lib/interfaces/index.ts" xlink:title="index.ts">
<path fill="#ddfeff" stroke="black" d="M505.33,-131.88C505.33,-131.88 463.17,-131.88 463.17,-131.88 460.21,-131.88 457.25,-128.92 457.25,-125.96 457.25,-125.96 457.25,-120.04 457.25,-120.04 457.25,-117.08 460.21,-114.12 463.17,-114.12 463.17,-114.12 505.33,-114.12 505.33,-114.12 508.29,-114.12 511.25,-117.08 511.25,-120.04 511.25,-120.04 511.25,-125.96 511.25,-125.96 511.25,-128.92 508.29,-131.88 505.33,-131.88"/>
<text text-anchor="start" x="468.5" y="-119.33" font-family="Helvetica,sans-Serif" font-size="9.00">index.ts</text>
</a>
</g>
</g>
<!-- src/lib/controls/MaplibreMeasureControl.ts&#45;&gt;src/lib/interfaces/index.ts -->
<g id="edge10" class="edge">
<title>src/lib/controls/MaplibreMeasureControl.ts&#45;&gt;src/lib/interfaces/index.ts</title>
<path fill="none" stroke="#000000" stroke-opacity="0.200000" d="M288.49,-151.41C341.52,-148.08 413.08,-142.78 441.25,-137 444.65,-136.3 448.15,-135.42 451.62,-134.43"/>
<polygon fill="none" stroke="#000000" stroke-opacity="0.200000" points="452.07,-136.49 457.2,-132.73 450.84,-132.47 452.07,-136.49"/>
</g>
<!-- src/lib/controls/MaplibreTerradrawControl.ts -->
<g id="node12" class="node">
<title>src/lib/controls/MaplibreTerradrawControl.ts</title>
<g id="a_node12"><a xlink:href="src/lib/controls/MaplibreTerradrawControl.ts" xlink:title="MaplibreTerradrawControl.ts">
<path fill="#ddfeff" stroke="black" d="M427.33,-174.88C427.33,-174.88 306.92,-174.88 306.92,-174.88 303.96,-174.88 301,-171.92 301,-168.96 301,-168.96 301,-163.04 301,-163.04 301,-160.08 303.96,-157.12 306.92,-157.12 306.92,-157.12 427.33,-157.12 427.33,-157.12 430.29,-157.12 433.25,-160.08 433.25,-163.04 433.25,-163.04 433.25,-168.96 433.25,-168.96 433.25,-171.92 430.29,-174.88 427.33,-174.88"/>
<text text-anchor="start" x="309" y="-162.32" font-family="Helvetica,sans-Serif" font-size="9.00">MaplibreTerradrawControl.ts</text>
</a>
</g>
</g>
<!-- src/lib/controls/MaplibreMeasureControl.ts&#45;&gt;src/lib/controls/MaplibreTerradrawControl.ts -->
<g id="edge11" class="edge">
<title>src/lib/controls/MaplibreMeasureControl.ts&#45;&gt;src/lib/controls/MaplibreTerradrawControl.ts</title>
<path fill="none" stroke="#000000" stroke-width="2" stroke-opacity="0.200000" d="M288.41,-159.92C289.56,-160.01 290.72,-160.1 291.87,-160.19"/>
<polygon fill="#000000" fill-opacity="0.200000" stroke="#000000" stroke-width="2" stroke-opacity="0.200000" points="291.58,-162.27 297.72,-160.65 291.9,-158.09 291.58,-162.27"/>
</g>
<!-- src/lib/interfaces/index.ts&#45;&gt;src/lib/interfaces/TerradrawControlOptions.ts -->
<g id="edge30" class="edge">
<title>src/lib/interfaces/index.ts&#45;&gt;src/lib/interfaces/TerradrawControlOptions.ts</title>
<path fill="none" stroke="#000000" stroke-width="2" stroke-opacity="0.200000" d="M511.49,-117.43C522.28,-115.14 535.17,-112.41 547.67,-109.76"/>
<polygon fill="#000000" fill-opacity="0.200000" stroke="#000000" stroke-width="2" stroke-opacity="0.200000" points="554.01,-110.56 547.71,-109.75 553.14,-106.45 554.01,-110.56"/>
</g>
<!-- src/lib/interfaces/index.ts&#45;&gt;src/lib/interfaces/MeasureControlOptions.ts -->
<g id="edge28" class="edge">
<title>src/lib/interfaces/index.ts&#45;&gt;src/lib/interfaces/MeasureControlOptions.ts</title>
<path fill="none" stroke="#000000" stroke-width="2" stroke-opacity="0.200000" d="M511.49,-127.64C519.68,-129.09 529.08,-130.75 538.6,-132.43"/>
<polygon fill="#000000" fill-opacity="0.200000" stroke="#000000" stroke-width="2" stroke-opacity="0.200000" points="544.19,-135.55 538.65,-132.44 544.92,-131.42 544.19,-135.55"/>
</g>
<!-- src/lib/interfaces/index.ts&#45;&gt;src/lib/interfaces/ModeOptions.ts -->
<g id="edge29" class="edge">
<title>src/lib/interfaces/index.ts&#45;&gt;src/lib/interfaces/ModeOptions.ts</title>
<path fill="none" stroke="#000000" stroke-width="2" stroke-opacity="0.200000" d="M511.27,-123.1C555.47,-123.27 645.79,-123.61 700.79,-123.82"/>
<polygon fill="#000000" fill-opacity="0.200000" stroke="#000000" stroke-width="2" stroke-opacity="0.200000" points="706.64,-125.95 700.65,-123.82 706.66,-121.75 706.64,-125.95"/>
</g>
<!-- src/lib/interfaces/EventTypes.ts -->
<g id="node15" class="node">
<title>src/lib/interfaces/EventTypes.ts</title>
<g id="a_node15"><a xlink:href="src/lib/interfaces/EventTypes.ts" xlink:title="EventTypes.ts">
<path fill="#ddfeff" stroke="black" d="M629.96,-49.88C629.96,-49.88 568.79,-49.88 568.79,-49.88 565.83,-49.88 562.88,-46.92 562.88,-43.96 562.88,-43.96 562.88,-38.04 562.88,-38.04 562.88,-35.08 565.83,-32.12 568.79,-32.12 568.79,-32.12 629.96,-32.12 629.96,-32.12 632.92,-32.12 635.88,-35.08 635.88,-38.04 635.88,-38.04 635.88,-43.96 635.88,-43.96 635.88,-46.92 632.92,-49.88 629.96,-49.88"/>
<text text-anchor="start" x="570.88" y="-37.33" font-family="Helvetica,sans-Serif" font-size="9.00">EventTypes.ts</text>
</a>
</g>
</g>
<!-- src/lib/interfaces/index.ts&#45;&gt;src/lib/interfaces/EventTypes.ts -->
<g id="edge26" class="edge">
<title>src/lib/interfaces/index.ts&#45;&gt;src/lib/interfaces/EventTypes.ts</title>
<path fill="none" stroke="#000000" stroke-width="2" stroke-opacity="0.200000" d="M488.18,-114.01C493.23,-100.01 504.92,-73.12 524.25,-59 533.37,-52.34 544.64,-48.12 555.62,-45.45"/>
<polygon fill="#000000" fill-opacity="0.200000" stroke="#000000" stroke-width="2" stroke-opacity="0.200000" points="561.86,-46.25 555.55,-45.46 560.97,-42.14 561.86,-46.25"/>
</g>
<!-- src/lib/interfaces/index.ts&#45;&gt;src/lib/interfaces/MeasureControlMode.ts -->
<g id="edge27" class="edge">
<title>src/lib/interfaces/index.ts&#45;&gt;src/lib/interfaces/MeasureControlMode.ts</title>
<path fill="none" stroke="#000000" stroke-width="2" stroke-opacity="0.200000" d="M492.12,-132.2C499.12,-140.73 510.83,-152.86 524.25,-158 579.81,-179.27 649.05,-174.58 695.37,-167.46"/>
<polygon fill="#000000" fill-opacity="0.200000" stroke="#000000" stroke-width="2" stroke-opacity="0.200000" points="701.67,-168.58 695.41,-167.46 701,-164.44 701.67,-168.58"/>
</g>
<!-- src/lib/interfaces/index.ts&#45;&gt;src/lib/interfaces/TerradrawModeClass.ts -->
<g id="edge32" class="edge">
<title>src/lib/interfaces/index.ts&#45;&gt;src/lib/interfaces/TerradrawModeClass.ts</title>
<path fill="none" stroke="#000000" stroke-width="2" stroke-opacity="0.200000" d="M488.57,-113.89C493.86,-100.93 505.53,-77.67 524.25,-68 579.67,-39.36 742.97,-70.37 804.75,-79 809.88,-79.72 815.21,-80.56 820.54,-81.46"/>
<polygon fill="#000000" fill-opacity="0.200000" stroke="#000000" stroke-width="2" stroke-opacity="0.200000" points="825.91,-84.53 820.36,-81.43 826.63,-80.4 825.91,-84.53"/>
</g>
<!-- src/lib/interfaces/index.ts&#45;&gt;src/lib/interfaces/TerradrawMode.ts -->
<g id="edge31" class="edge">
<title>src/lib/interfaces/index.ts&#45;&gt;src/lib/interfaces/TerradrawMode.ts</title>
<path fill="none" stroke="#000000" stroke-width="2" stroke-opacity="0.200000" d="M491.12,-113.84C497.82,-104.32 509.74,-90.01 524.25,-84 585.04,-58.82 663.33,-71.56 708.96,-82.91"/>
<polygon fill="#000000" fill-opacity="0.200000" stroke="#000000" stroke-width="2" stroke-opacity="0.200000" points="714.23,-86.43 708.94,-82.91 715.27,-82.36 714.23,-86.43"/>
</g>
<!-- src/lib/controls/MaplibreTerradrawControl.ts&#45;&gt;src/lib/constants/index.ts -->
<g id="edge12" class="edge">
<title>src/lib/controls/MaplibreTerradrawControl.ts&#45;&gt;src/lib/constants/index.ts</title>
<path fill="none" stroke="#000000" stroke-width="2" stroke-opacity="0.200000" d="M409.9,-175.27C420.58,-178.66 431.73,-183.15 441.25,-189 447.52,-192.85 459.64,-205.52 469.25,-216.12"/>
<polygon fill="#000000" fill-opacity="0.200000" stroke="#000000" stroke-width="2" stroke-opacity="0.200000" points="467.53,-217.35 473.1,-220.41 470.66,-214.54 467.53,-217.35"/>
</g>
<!-- src/lib/controls/MaplibreTerradrawControl.ts&#45;&gt;src/lib/interfaces/index.ts -->
<g id="edge13" class="edge">
<title>src/lib/controls/MaplibreTerradrawControl.ts&#45;&gt;src/lib/interfaces/index.ts</title>
<path fill="none" stroke="#000000" stroke-opacity="0.200000" d="M408.92,-156.66C419.6,-153.72 431,-150.14 441.25,-146 448.3,-143.15 455.68,-139.4 462.25,-135.76"/>
<polygon fill="none" stroke="#000000" stroke-opacity="0.200000" points="463.02,-137.73 467.19,-132.94 460.94,-134.09 463.02,-137.73"/>
</g>
<!-- src/lib/controls/index.ts -->
<g id="node13" class="node">
<title>src/lib/controls/index.ts</title>
<g id="a_node13"><a xlink:href="src/lib/controls/index.ts" xlink:title="index.ts">
<path fill="#ddfeff" stroke="black" d="M142.08,-170.88C142.08,-170.88 99.92,-170.88 99.92,-170.88 96.96,-170.88 94,-167.92 94,-164.96 94,-164.96 94,-159.04 94,-159.04 94,-156.08 96.96,-153.12 99.92,-153.12 99.92,-153.12 142.08,-153.12 142.08,-153.12 145.04,-153.12 148,-156.08 148,-159.04 148,-159.04 148,-164.96 148,-164.96 148,-167.92 145.04,-170.88 142.08,-170.88"/>
<text text-anchor="start" x="105.25" y="-158.32" font-family="Helvetica,sans-Serif" font-size="9.00">index.ts</text>
</a>
</g>
</g>
<!-- src/lib/controls/index.ts&#45;&gt;src/lib/controls/MaplibreMeasureControl.ts -->
<g id="edge14" class="edge">
<title>src/lib/controls/index.ts&#45;&gt;src/lib/controls/MaplibreMeasureControl.ts</title>
<path fill="none" stroke="#000000" stroke-width="2" stroke-opacity="0.200000" d="M148.4,-160.18C150.1,-160.06 151.84,-159.94 153.62,-159.82"/>
<polygon fill="#000000" fill-opacity="0.200000" stroke="#000000" stroke-width="2" stroke-opacity="0.200000" points="159.8,-161.5 153.67,-159.82 159.51,-157.31 159.8,-161.5"/>
</g>
<!-- src/lib/controls/index.ts&#45;&gt;src/lib/controls/MaplibreTerradrawControl.ts -->
<g id="edge15" class="edge">
<title>src/lib/controls/index.ts&#45;&gt;src/lib/controls/MaplibreTerradrawControl.ts</title>
<path fill="none" stroke="#000000" stroke-width="2" stroke-opacity="0.200000" d="M148.32,-168.15C152.54,-168.92 156.87,-169.58 161,-170 205.05,-174.47 254.69,-173.66 294.1,-171.64"/>
<polygon fill="#000000" fill-opacity="0.200000" stroke="#000000" stroke-width="2" stroke-opacity="0.200000" points="299.95,-173.42 293.84,-171.65 299.72,-169.23 299.95,-173.42"/>
</g>
<!-- src/lib/index.ts -->
<g id="node14" class="node">
<title>src/lib/index.ts</title>
<g id="a_node14"><a xlink:href="src/lib/index.ts" xlink:title="index.ts">
<path fill="#ddfeff" stroke="black" d="M72.08,-170.88C72.08,-170.88 29.92,-170.88 29.92,-170.88 26.96,-170.88 24,-167.92 24,-164.96 24,-164.96 24,-159.04 24,-159.04 24,-156.08 26.96,-153.12 29.92,-153.12 29.92,-153.12 72.08,-153.12 72.08,-153.12 75.04,-153.12 78,-156.08 78,-159.04 78,-159.04 78,-164.96 78,-164.96 78,-167.92 75.04,-170.88 72.08,-170.88"/>
<text text-anchor="start" x="35.25" y="-158.32" font-family="Helvetica,sans-Serif" font-size="9.00">index.ts</text>
</a>
</g>
</g>
<!-- src/lib/index.ts&#45;&gt;src/lib/constants/index.ts -->
<g id="edge16" class="edge">
<title>src/lib/index.ts&#45;&gt;src/lib/constants/index.ts</title>
<path fill="none" stroke="#000000" stroke-width="2" stroke-opacity="0.200000" d="M55.97,-171.15C61.16,-181.86 71.34,-199.12 86,-207 206.63,-271.85 378.58,-251.27 450.08,-238.67"/>
<polygon fill="#000000" fill-opacity="0.200000" stroke="#000000" stroke-width="2" stroke-opacity="0.200000" points="456.48,-239.65 450.2,-238.65 455.73,-235.52 456.48,-239.65"/>
</g>
<!-- src/lib/index.ts&#45;&gt;src/lib/interfaces/index.ts -->
<g id="edge18" class="edge">
<title>src/lib/index.ts&#45;&gt;src/lib/interfaces/index.ts</title>
<path fill="none" stroke="#000000" stroke-width="2" stroke-opacity="0.200000" d="M60.51,-152.63C66.85,-146.36 76.09,-138.63 86,-135 213.8,-88.25 380.47,-106.41 450.26,-117.21"/>
<polygon fill="#000000" fill-opacity="0.200000" stroke="#000000" stroke-width="2" stroke-opacity="0.200000" points="455.78,-120.22 450.19,-117.2 456.44,-116.07 455.78,-120.22"/>
</g>
<!-- src/lib/index.ts&#45;&gt;src/lib/controls/index.ts -->
<g id="edge17" class="edge">
<title>src/lib/index.ts&#45;&gt;src/lib/controls/index.ts</title>
<path fill="none" stroke="#000000" stroke-width="2" stroke-opacity="0.200000" d="M78.49,-162C81.34,-162 84.27,-162 87.18,-162"/>
<polygon fill="#000000" fill-opacity="0.200000" stroke="#000000" stroke-width="2" stroke-opacity="0.200000" points="92.92,-164.1 86.92,-162 92.92,-159.9 92.92,-164.1"/>
</g>
<!-- src/lib/interfaces/MeasureControlMode.ts&#45;&gt;src/lib/constants/AvailableMeasureModes.ts -->
<g id="edge19" class="edge">
<title>src/lib/interfaces/MeasureControlMode.ts&#45;&gt;src/lib/constants/AvailableMeasureModes.ts</title>
<path fill="none" stroke="#000000" stroke-opacity="0.200000" d="M743.92,-166.09C737.24,-186.83 717.9,-237.7 682.5,-262 678.66,-264.64 674.48,-266.85 670.13,-268.7"/>
<polygon fill="none" stroke="#000000" stroke-opacity="0.200000" points="669.44,-266.72 664.56,-270.79 670.91,-270.65 669.44,-266.72"/>
</g>
<!-- src/lib/interfaces/TerradrawMode.ts&#45;&gt;src/lib/constants/AvailableModes.ts -->
<g id="edge25" class="edge">
<title>src/lib/interfaces/TerradrawMode.ts&#45;&gt;src/lib/constants/AvailableModes.ts</title>
<path fill="none" stroke="#000000" stroke-width="2" stroke-opacity="0.200000" d="M702.41,-100.02C697.88,-102.23 693.75,-105.15 690.5,-109 678.12,-123.67 694.88,-180.33 682.5,-195 675.07,-203.81 664.53,-209.29 653.46,-212.66"/>
<polygon fill="#000000" fill-opacity="0.200000" stroke="#000000" stroke-width="2" stroke-opacity="0.200000" points="653.17,-210.56 647.88,-214.09 654.21,-214.63 653.17,-210.56"/>
</g>
</g>
</svg>
