<?xml version="1.0" encoding="UTF-8" standalone="no"?>
<!DOCTYPE svg PUBLIC "-//W3C//DTD SVG 1.1//EN"
 "http://www.w3.org/Graphics/SVG/1.1/DTD/svg11.dtd">
<!-- Generated by graphviz version 12.2.1 (20241206.2353)
 -->
<!-- Title: dependency&#45;cruiser output Pages: 1 -->
<svg width="1009pt" height="396pt"
 viewBox="0.00 0.00 1008.50 396.00" xmlns="http://www.w3.org/2000/svg" xmlns:xlink="http://www.w3.org/1999/xlink">
<g id="graph0" class="graph" transform="scale(1 1) rotate(0) translate(4 392)">
<title>dependency&#45;cruiser output</title>
<polygon fill="white" stroke="none" points="-4,4 -4,-392 1004.5,-392 1004.5,4 -4,4"/>
<g id="clust1" class="cluster">
<title>cluster_src</title>
<path fill="#ffffff" stroke="black" stroke-width="2" d="M20,-8C20,-8 980.5,-8 980.5,-8 986.5,-8 992.5,-14 992.5,-20 992.5,-20 992.5,-368 992.5,-368 992.5,-374 986.5,-380 980.5,-380 980.5,-380 20,-380 20,-380 14,-380 8,-374 8,-368 8,-368 8,-20 8,-20 8,-14 14,-8 20,-8"/>
<text text-anchor="middle" x="500.25" y="-367.45" font-family="Helvetica,sans-Serif" font-weight="bold" font-size="9.00">src</text>
</g>
<g id="clust2" class="cluster">
<title>cluster_src/lib</title>
<path fill="#ffffff" stroke="black" stroke-width="2" d="M28,-16C28,-16 972.5,-16 972.5,-16 978.5,-16 984.5,-22 984.5,-28 984.5,-28 984.5,-342 984.5,-342 984.5,-348 978.5,-354 972.5,-354 972.5,-354 28,-354 28,-354 22,-354 16,-348 16,-342 16,-342 16,-28 16,-28 16,-22 22,-16 28,-16"/>
<text text-anchor="middle" x="500.25" y="-341.45" font-family="Helvetica,sans-Serif" font-weight="bold" font-size="9.00">lib</text>
</g>
<g id="clust3" class="cluster">
<title>cluster_src/lib/constants</title>
<path fill="#ffffff" stroke="black" stroke-width="2" d="M383.25,-24C383.25,-24 592.5,-24 592.5,-24 598.5,-24 604.5,-30 604.5,-36 604.5,-36 604.5,-154 604.5,-154 604.5,-160 598.5,-166 592.5,-166 592.5,-166 383.25,-166 383.25,-166 377.25,-166 371.25,-160 371.25,-154 371.25,-154 371.25,-36 371.25,-36 371.25,-30 377.25,-24 383.25,-24"/>
<text text-anchor="middle" x="487.88" y="-153.45" font-family="Helvetica,sans-Serif" font-weight="bold" font-size="9.00">constants</text>
</g>
<g id="clust4" class="cluster">
<title>cluster_src/lib/interfaces</title>
<path fill="#ffffff" stroke="black" stroke-width="2" d="M498.38,-174C498.38,-174 964.5,-174 964.5,-174 970.5,-174 976.5,-180 976.5,-186 976.5,-186 976.5,-316 976.5,-316 976.5,-322 970.5,-328 964.5,-328 964.5,-328 498.38,-328 498.38,-328 492.38,-328 486.38,-322 486.38,-316 486.38,-316 486.38,-186 486.38,-186 486.38,-180 492.38,-174 498.38,-174"/>
<text text-anchor="middle" x="731.44" y="-315.45" font-family="Helvetica,sans-Serif" font-weight="bold" font-size="9.00">interfaces</text>
</g>
<!-- src/lib/MaplibreMeasureControl.ts -->
<g id="node1" class="node">
<title>src/lib/MaplibreMeasureControl.ts</title>
<g id="a_node1"><a xlink:href="src/lib/MaplibreMeasureControl.ts" xlink:title="MaplibreMeasureControl.ts">
<path fill="#ddfeff" stroke="black" d="M212.08,-184.88C212.08,-184.88 96.92,-184.88 96.92,-184.88 93.96,-184.88 91,-181.92 91,-178.96 91,-178.96 91,-173.04 91,-173.04 91,-170.08 93.96,-167.12 96.92,-167.12 96.92,-167.12 212.08,-167.12 212.08,-167.12 215.04,-167.12 218,-170.08 218,-173.04 218,-173.04 218,-178.96 218,-178.96 218,-181.92 215.04,-184.88 212.08,-184.88"/>
<text text-anchor="start" x="99" y="-172.32" font-family="Helvetica,sans-Serif" font-size="9.00">MaplibreMeasureControl.ts</text>
</a>
</g>
</g>
<!-- src/lib/constants/index.ts -->
<g id="node2" class="node">
<title>src/lib/constants/index.ts</title>
<g id="a_node2"><a xlink:href="src/lib/constants/index.ts" xlink:title="index.ts">
<path fill="#ddfeff" stroke="black" d="M427.33,-139.88C427.33,-139.88 385.17,-139.88 385.17,-139.88 382.21,-139.88 379.25,-136.92 379.25,-133.96 379.25,-133.96 379.25,-128.04 379.25,-128.04 379.25,-125.08 382.21,-122.12 385.17,-122.12 385.17,-122.12 427.33,-122.12 427.33,-122.12 430.29,-122.12 433.25,-125.08 433.25,-128.04 433.25,-128.04 433.25,-133.96 433.25,-133.96 433.25,-136.92 430.29,-139.88 427.33,-139.88"/>
<text text-anchor="start" x="390.5" y="-127.33" font-family="Helvetica,sans-Serif" font-size="9.00">index.ts</text>
</a>
</g>
</g>
<!-- src/lib/MaplibreMeasureControl.ts&#45;&gt;src/lib/constants/index.ts -->
<g id="edge1" class="edge">
<title>src/lib/MaplibreMeasureControl.ts&#45;&gt;src/lib/constants/index.ts</title>
<path fill="none" stroke="#000000" stroke-width="2" stroke-opacity="0.200000" d="M212.93,-166.67C254.7,-159.74 312.58,-149.82 363.25,-140 365.65,-139.53 368.13,-139.04 370.62,-138.53"/>
<polygon fill="#000000" fill-opacity="0.200000" stroke="#000000" stroke-width="2" stroke-opacity="0.200000" points="370.66,-140.67 376.11,-137.39 369.8,-136.56 370.66,-140.67"/>
</g>
<!-- src/lib/interfaces/index.ts -->
<g id="node3" class="node">
<title>src/lib/interfaces/index.ts</title>
<g id="a_node3"><a xlink:href="src/lib/interfaces/index.ts" xlink:title="index.ts">
<path fill="#ddfeff" stroke="black" d="M542.46,-229.88C542.46,-229.88 500.29,-229.88 500.29,-229.88 497.33,-229.88 494.38,-226.92 494.38,-223.96 494.38,-223.96 494.38,-218.04 494.38,-218.04 494.38,-215.08 497.33,-212.12 500.29,-212.12 500.29,-212.12 542.46,-212.12 542.46,-212.12 545.42,-212.12 548.38,-215.08 548.38,-218.04 548.38,-218.04 548.38,-223.96 548.38,-223.96 548.38,-226.92 545.42,-229.88 542.46,-229.88"/>
<text text-anchor="start" x="505.62" y="-217.32" font-family="Helvetica,sans-Serif" font-size="9.00">index.ts</text>
</a>
</g>
</g>
<!-- src/lib/MaplibreMeasureControl.ts&#45;&gt;src/lib/interfaces/index.ts -->
<g id="edge2" class="edge">
<title>src/lib/MaplibreMeasureControl.ts&#45;&gt;src/lib/interfaces/index.ts</title>
<path fill="none" stroke="#000000" stroke-opacity="0.200000" d="M218.05,-174.8C259.44,-174.82 314.8,-176.4 363.25,-183 406.68,-188.92 455.6,-201.76 487.15,-210.87"/>
<polygon fill="none" stroke="#000000" stroke-opacity="0.200000" points="486.2,-212.78 492.55,-212.45 487.38,-208.75 486.2,-212.78"/>
</g>
<!-- src/lib/MaplibreTerradrawControl.ts -->
<g id="node4" class="node">
<title>src/lib/MaplibreTerradrawControl.ts</title>
<g id="a_node4"><a xlink:href="src/lib/MaplibreTerradrawControl.ts" xlink:title="MaplibreTerradrawControl.ts">
<path fill="#ddfeff" stroke="black" d="M357.33,-206.88C357.33,-206.88 236.92,-206.88 236.92,-206.88 233.96,-206.88 231,-203.92 231,-200.96 231,-200.96 231,-195.04 231,-195.04 231,-192.08 233.96,-189.12 236.92,-189.12 236.92,-189.12 357.33,-189.12 357.33,-189.12 360.29,-189.12 363.25,-192.08 363.25,-195.04 363.25,-195.04 363.25,-200.96 363.25,-200.96 363.25,-203.92 360.29,-206.88 357.33,-206.88"/>
<text text-anchor="start" x="239" y="-194.32" font-family="Helvetica,sans-Serif" font-size="9.00">MaplibreTerradrawControl.ts</text>
</a>
</g>
</g>
<!-- src/lib/MaplibreMeasureControl.ts&#45;&gt;src/lib/MaplibreTerradrawControl.ts -->
<g id="edge3" class="edge">
<title>src/lib/MaplibreMeasureControl.ts&#45;&gt;src/lib/MaplibreTerradrawControl.ts</title>
<path fill="none" stroke="#000000" stroke-width="2" stroke-opacity="0.200000" d="M215.14,-185.33C219.32,-185.98 223.55,-186.65 227.77,-187.31"/>
<polygon fill="#000000" fill-opacity="0.200000" stroke="#000000" stroke-width="2" stroke-opacity="0.200000" points="227.15,-189.33 233.4,-188.19 227.8,-185.19 227.15,-189.33"/>
</g>
<!-- src/lib/constants/AvailableModes.ts -->
<g id="node5" class="node">
<title>src/lib/constants/AvailableModes.ts</title>
<g id="a_node5"><a xlink:href="src/lib/constants/AvailableModes.ts" xlink:title="AvailableModes.ts">
<path fill="#ddfeff" stroke="black" d="M560.96,-79.88C560.96,-79.88 481.79,-79.88 481.79,-79.88 478.83,-79.88 475.88,-76.92 475.88,-73.96 475.88,-73.96 475.88,-68.04 475.88,-68.04 475.88,-65.08 478.83,-62.12 481.79,-62.12 481.79,-62.12 560.96,-62.12 560.96,-62.12 563.92,-62.12 566.88,-65.08 566.88,-68.04 566.88,-68.04 566.88,-73.96 566.88,-73.96 566.88,-76.92 563.92,-79.88 560.96,-79.88"/>
<text text-anchor="start" x="483.88" y="-67.33" font-family="Helvetica,sans-Serif" font-size="9.00">AvailableModes.ts</text>
</a>
</g>
</g>
<!-- src/lib/constants/index.ts&#45;&gt;src/lib/constants/AvailableModes.ts -->
<g id="edge9" class="edge">
<title>src/lib/constants/index.ts&#45;&gt;src/lib/constants/AvailableModes.ts</title>
<path fill="none" stroke="#000000" stroke-width="2" stroke-opacity="0.200000" d="M412.59,-121.81C419.14,-111.4 431.25,-94.75 446.25,-86 453.16,-81.97 460.98,-79.01 468.89,-76.83"/>
<polygon fill="#000000" fill-opacity="0.200000" stroke="#000000" stroke-width="2" stroke-opacity="0.200000" points="475.06,-77.46 468.74,-76.87 474.05,-73.39 475.06,-77.46"/>
</g>
<!-- src/lib/constants/defaultControlOptions.ts -->
<g id="node6" class="node">
<title>src/lib/constants/defaultControlOptions.ts</title>
<g id="a_node6"><a xlink:href="src/lib/constants/defaultControlOptions.ts" xlink:title="defaultControlOptions.ts">
<path fill="#ddfeff" stroke="black" d="M572.58,-109.88C572.58,-109.88 470.17,-109.88 470.17,-109.88 467.21,-109.88 464.25,-106.92 464.25,-103.96 464.25,-103.96 464.25,-98.04 464.25,-98.04 464.25,-95.08 467.21,-92.12 470.17,-92.12 470.17,-92.12 572.58,-92.12 572.58,-92.12 575.54,-92.12 578.5,-95.08 578.5,-98.04 578.5,-98.04 578.5,-103.96 578.5,-103.96 578.5,-106.92 575.54,-109.88 572.58,-109.88"/>
<text text-anchor="start" x="472.25" y="-97.33" font-family="Helvetica,sans-Serif" font-size="9.00">defaultControlOptions.ts</text>
</a>
</g>
</g>
<!-- src/lib/constants/index.ts&#45;&gt;src/lib/constants/defaultControlOptions.ts -->
<g id="edge10" class="edge">
<title>src/lib/constants/index.ts&#45;&gt;src/lib/constants/defaultControlOptions.ts</title>
<path fill="none" stroke="#000000" stroke-width="2" stroke-opacity="0.200000" d="M429.3,-121.78C434.78,-119.7 440.68,-117.62 446.25,-116 451.3,-114.53 456.59,-113.15 461.91,-111.87"/>
<polygon fill="#000000" fill-opacity="0.200000" stroke="#000000" stroke-width="2" stroke-opacity="0.200000" points="468.16,-112.58 461.84,-111.89 467.22,-108.49 468.16,-112.58"/>
</g>
<!-- src/lib/constants/defaultMeasureControlOptions.ts -->
<g id="node8" class="node">
<title>src/lib/constants/defaultMeasureControlOptions.ts</title>
<g id="a_node8"><a xlink:href="src/lib/constants/defaultMeasureControlOptions.ts" xlink:title="defaultMeasureControlOptions.ts">
<path fill="#ddfeff" stroke="black" d="M590.58,-139.88C590.58,-139.88 452.17,-139.88 452.17,-139.88 449.21,-139.88 446.25,-136.92 446.25,-133.96 446.25,-133.96 446.25,-128.04 446.25,-128.04 446.25,-125.08 449.21,-122.12 452.17,-122.12 452.17,-122.12 590.58,-122.12 590.58,-122.12 593.54,-122.12 596.5,-125.08 596.5,-128.04 596.5,-128.04 596.5,-133.96 596.5,-133.96 596.5,-136.92 593.54,-139.88 590.58,-139.88"/>
<text text-anchor="start" x="454.25" y="-127.33" font-family="Helvetica,sans-Serif" font-size="9.00">defaultMeasureControlOptions.ts</text>
</a>
</g>
</g>
<!-- src/lib/constants/index.ts&#45;&gt;src/lib/constants/defaultMeasureControlOptions.ts -->
<g id="edge11" class="edge">
<title>src/lib/constants/index.ts&#45;&gt;src/lib/constants/defaultMeasureControlOptions.ts</title>
<path fill="none" stroke="#000000" stroke-width="2" stroke-opacity="0.200000" d="M433.49,-131C435.2,-131 436.97,-131 438.78,-131"/>
<polygon fill="#000000" fill-opacity="0.200000" stroke="#000000" stroke-width="2" stroke-opacity="0.200000" points="444.94,-133.1 438.94,-131 444.94,-128.9 444.94,-133.1"/>
</g>
<!-- src/lib/constants/getDefaultModeOptions.ts -->
<g id="node10" class="node">
<title>src/lib/constants/getDefaultModeOptions.ts</title>
<g id="a_node10"><a xlink:href="src/lib/constants/getDefaultModeOptions.ts" xlink:title="getDefaultModeOptions.ts">
<path fill="#ddfeff" stroke="black" d="M576.33,-49.88C576.33,-49.88 466.42,-49.88 466.42,-49.88 463.46,-49.88 460.5,-46.92 460.5,-43.96 460.5,-43.96 460.5,-38.04 460.5,-38.04 460.5,-35.08 463.46,-32.12 466.42,-32.12 466.42,-32.12 576.33,-32.12 576.33,-32.12 579.29,-32.12 582.25,-35.08 582.25,-38.04 582.25,-38.04 582.25,-43.96 582.25,-43.96 582.25,-46.92 579.29,-49.88 576.33,-49.88"/>
<text text-anchor="start" x="468.5" y="-37.33" font-family="Helvetica,sans-Serif" font-size="9.00">getDefaultModeOptions.ts</text>
</a>
</g>
</g>
<!-- src/lib/constants/index.ts&#45;&gt;src/lib/constants/getDefaultModeOptions.ts -->
<g id="edge12" class="edge">
<title>src/lib/constants/index.ts&#45;&gt;src/lib/constants/getDefaultModeOptions.ts</title>
<path fill="none" stroke="#000000" stroke-width="2" stroke-opacity="0.200000" d="M409.31,-121.71C413.39,-105.61 424.09,-72.69 446.25,-56 448.61,-54.22 451.13,-52.64 453.76,-51.24"/>
<polygon fill="#000000" fill-opacity="0.200000" stroke="#000000" stroke-width="2" stroke-opacity="0.200000" points="460.06,-50.59 453.74,-51.25 458.28,-46.79 460.06,-50.59"/>
</g>
<!-- src/lib/interfaces/TerradrawControlOptions.ts -->
<g id="node7" class="node">
<title>src/lib/interfaces/TerradrawControlOptions.ts</title>
<g id="a_node7"><a xlink:href="src/lib/interfaces/TerradrawControlOptions.ts" xlink:title="TerradrawControlOptions.ts">
<path fill="#ddfeff" stroke="black" d="M734.33,-199.88C734.33,-199.88 618.42,-199.88 618.42,-199.88 615.46,-199.88 612.5,-196.92 612.5,-193.96 612.5,-193.96 612.5,-188.04 612.5,-188.04 612.5,-185.08 615.46,-182.12 618.42,-182.12 618.42,-182.12 734.33,-182.12 734.33,-182.12 737.29,-182.12 740.25,-185.08 740.25,-188.04 740.25,-188.04 740.25,-193.96 740.25,-193.96 740.25,-196.92 737.29,-199.88 734.33,-199.88"/>
<text text-anchor="start" x="620.5" y="-187.32" font-family="Helvetica,sans-Serif" font-size="9.00">TerradrawControlOptions.ts</text>
</a>
</g>
</g>
<!-- src/lib/interfaces/index.ts&#45;&gt;src/lib/interfaces/TerradrawControlOptions.ts -->
<g id="edge26" class="edge">
<title>src/lib/interfaces/index.ts&#45;&gt;src/lib/interfaces/TerradrawControlOptions.ts</title>
<path fill="none" stroke="#000000" stroke-width="2" stroke-opacity="0.200000" d="M548.68,-215.84C568.51,-211.95 596.41,-206.48 620.98,-201.67"/>
<polygon fill="#000000" fill-opacity="0.200000" stroke="#000000" stroke-width="2" stroke-opacity="0.200000" points="627.24,-202.58 620.95,-201.67 626.43,-198.46 627.24,-202.58"/>
</g>
<!-- src/lib/interfaces/MeasureControlOptions.ts -->
<g id="node9" class="node">
<title>src/lib/interfaces/MeasureControlOptions.ts</title>
<g id="a_node9"><a xlink:href="src/lib/interfaces/MeasureControlOptions.ts" xlink:title="MeasureControlOptions.ts">
<path fill="#ddfeff" stroke="black" d="M731.71,-229.88C731.71,-229.88 621.04,-229.88 621.04,-229.88 618.08,-229.88 615.12,-226.92 615.12,-223.96 615.12,-223.96 615.12,-218.04 615.12,-218.04 615.12,-215.08 618.08,-212.12 621.04,-212.12 621.04,-212.12 731.71,-212.12 731.71,-212.12 734.67,-212.12 737.62,-215.08 737.62,-218.04 737.62,-218.04 737.62,-223.96 737.62,-223.96 737.62,-226.92 734.67,-229.88 731.71,-229.88"/>
<text text-anchor="start" x="623.12" y="-217.32" font-family="Helvetica,sans-Serif" font-size="9.00">MeasureControlOptions.ts</text>
</a>
</g>
</g>
<!-- src/lib/interfaces/index.ts&#45;&gt;src/lib/interfaces/MeasureControlOptions.ts -->
<g id="edge24" class="edge">
<title>src/lib/interfaces/index.ts&#45;&gt;src/lib/interfaces/MeasureControlOptions.ts</title>
<path fill="none" stroke="#000000" stroke-width="2" stroke-opacity="0.200000" d="M548.68,-221C565.03,-221 586.85,-221 607.78,-221"/>
<polygon fill="#000000" fill-opacity="0.200000" stroke="#000000" stroke-width="2" stroke-opacity="0.200000" points="613.83,-223.1 607.83,-221 613.83,-218.9 613.83,-223.1"/>
</g>
<!-- src/lib/interfaces/ModeOptions.ts -->
<g id="node11" class="node">
<title>src/lib/interfaces/ModeOptions.ts</title>
<g id="a_node11"><a xlink:href="src/lib/interfaces/ModeOptions.ts" xlink:title="ModeOptions.ts">
<path fill="#ddfeff" stroke="black" d="M831.96,-199.88C831.96,-199.88 764.04,-199.88 764.04,-199.88 761.08,-199.88 758.12,-196.92 758.12,-193.96 758.12,-193.96 758.12,-188.04 758.12,-188.04 758.12,-185.08 761.08,-182.12 764.04,-182.12 764.04,-182.12 831.96,-182.12 831.96,-182.12 834.92,-182.12 837.88,-185.08 837.88,-188.04 837.88,-188.04 837.88,-193.96 837.88,-193.96 837.88,-196.92 834.92,-199.88 831.96,-199.88"/>
<text text-anchor="start" x="766.12" y="-187.32" font-family="Helvetica,sans-Serif" font-size="9.00">ModeOptions.ts</text>
</a>
</g>
</g>
<!-- src/lib/interfaces/index.ts&#45;&gt;src/lib/interfaces/ModeOptions.ts -->
<g id="edge25" class="edge">
<title>src/lib/interfaces/index.ts&#45;&gt;src/lib/interfaces/ModeOptions.ts</title>
<path fill="none" stroke="#000000" stroke-width="2" stroke-opacity="0.200000" d="M548.72,-226.68C599.67,-237.06 709.43,-256.24 740.25,-236 752.4,-228.02 742.58,-215.86 753.25,-206 753.99,-205.32 754.76,-204.67 755.55,-204.05"/>
<polygon fill="#000000" fill-opacity="0.200000" stroke="#000000" stroke-width="2" stroke-opacity="0.200000" points="761.48,-202.66 755.31,-204.21 759.17,-199.15 761.48,-202.66"/>
</g>
<!-- src/lib/interfaces/EventTypes.ts -->
<g id="node13" class="node">
<title>src/lib/interfaces/EventTypes.ts</title>
<g id="a_node13"><a xlink:href="src/lib/interfaces/EventTypes.ts" xlink:title="EventTypes.ts">
<path fill="#ddfeff" stroke="black" d="M706.96,-301.88C706.96,-301.88 645.79,-301.88 645.79,-301.88 642.83,-301.88 639.88,-298.92 639.88,-295.96 639.88,-295.96 639.88,-290.04 639.88,-290.04 639.88,-287.08 642.83,-284.12 645.79,-284.12 645.79,-284.12 706.96,-284.12 706.96,-284.12 709.92,-284.12 712.88,-287.08 712.88,-290.04 712.88,-290.04 712.88,-295.96 712.88,-295.96 712.88,-298.92 709.92,-301.88 706.96,-301.88"/>
<text text-anchor="start" x="647.88" y="-289.32" font-family="Helvetica,sans-Serif" font-size="9.00">EventTypes.ts</text>
</a>
</g>
</g>
<!-- src/lib/interfaces/index.ts&#45;&gt;src/lib/interfaces/EventTypes.ts -->
<g id="edge23" class="edge">
<title>src/lib/interfaces/index.ts&#45;&gt;src/lib/interfaces/EventTypes.ts</title>
<path fill="none" stroke="#000000" stroke-width="2" stroke-opacity="0.200000" d="M535.23,-230.18C552.21,-241.96 583.38,-262.37 612.5,-275 618.91,-277.78 625.86,-280.26 632.74,-282.43"/>
<polygon fill="#000000" fill-opacity="0.200000" stroke="#000000" stroke-width="2" stroke-opacity="0.200000" points="637.99,-286.21 632.86,-282.47 639.21,-282.19 637.99,-286.21"/>
</g>
<!-- src/lib/interfaces/TerradrawMode.ts -->
<g id="node14" class="node">
<title>src/lib/interfaces/TerradrawMode.ts</title>
<g id="a_node14"><a xlink:href="src/lib/interfaces/TerradrawMode.ts" xlink:title="TerradrawMode.ts">
<path fill="#ddfeff" stroke="black" d="M836.83,-229.88C836.83,-229.88 759.17,-229.88 759.17,-229.88 756.21,-229.88 753.25,-226.92 753.25,-223.96 753.25,-223.96 753.25,-218.04 753.25,-218.04 753.25,-215.08 756.21,-212.12 759.17,-212.12 759.17,-212.12 836.83,-212.12 836.83,-212.12 839.79,-212.12 842.75,-215.08 842.75,-218.04 842.75,-218.04 842.75,-223.96 842.75,-223.96 842.75,-226.92 839.79,-229.88 836.83,-229.88"/>
<text text-anchor="start" x="761.25" y="-217.32" font-family="Helvetica,sans-Serif" font-size="9.00">TerradrawMode.ts</text>
</a>
</g>
</g>
<!-- src/lib/interfaces/index.ts&#45;&gt;src/lib/interfaces/TerradrawMode.ts -->
<g id="edge27" class="edge">
<title>src/lib/interfaces/index.ts&#45;&gt;src/lib/interfaces/TerradrawMode.ts</title>
<path fill="none" stroke="#000000" stroke-width="2" stroke-opacity="0.200000" d="M547.6,-230.34C565.44,-236.44 590.09,-243.83 612.5,-247 668.72,-254.95 684.78,-259.1 740.25,-247 752.53,-244.32 765.32,-238.74 775.65,-233.43"/>
<polygon fill="#000000" fill-opacity="0.200000" stroke="#000000" stroke-width="2" stroke-opacity="0.200000" points="781.84,-232.51 775.56,-233.48 779.86,-228.8 781.84,-232.51"/>
</g>
<!-- src/lib/interfaces/TerradrawModeClass.ts -->
<g id="node15" class="node">
<title>src/lib/interfaces/TerradrawModeClass.ts</title>
<g id="a_node15"><a xlink:href="src/lib/interfaces/TerradrawModeClass.ts" xlink:title="TerradrawModeClass.ts">
<path fill="#ddfeff" stroke="black" d="M962.58,-239.88C962.58,-239.88 861.67,-239.88 861.67,-239.88 858.71,-239.88 855.75,-236.92 855.75,-233.96 855.75,-233.96 855.75,-228.04 855.75,-228.04 855.75,-225.08 858.71,-222.12 861.67,-222.12 861.67,-222.12 962.58,-222.12 962.58,-222.12 965.54,-222.12 968.5,-225.08 968.5,-228.04 968.5,-228.04 968.5,-233.96 968.5,-233.96 968.5,-236.92 965.54,-239.88 962.58,-239.88"/>
<text text-anchor="start" x="863.75" y="-227.32" font-family="Helvetica,sans-Serif" font-size="9.00">TerradrawModeClass.ts</text>
</a>
</g>
</g>
<!-- src/lib/interfaces/index.ts&#45;&gt;src/lib/interfaces/TerradrawModeClass.ts -->
<g id="edge28" class="edge">
<title>src/lib/interfaces/index.ts&#45;&gt;src/lib/interfaces/TerradrawModeClass.ts</title>
<path fill="none" stroke="#000000" stroke-width="2" stroke-opacity="0.200000" d="M541.14,-230.37C558.98,-238.72 586.84,-250.32 612.5,-255 701.5,-271.23 807.41,-254.33 866.17,-241.82"/>
<polygon fill="#000000" fill-opacity="0.200000" stroke="#000000" stroke-width="2" stroke-opacity="0.200000" points="872.56,-242.59 866.26,-241.8 871.68,-238.48 872.56,-242.59"/>
</g>
<!-- src/lib/MaplibreTerradrawControl.ts&#45;&gt;src/lib/constants/index.ts -->
<g id="edge4" class="edge">
<title>src/lib/MaplibreTerradrawControl.ts&#45;&gt;src/lib/constants/index.ts</title>
<path fill="none" stroke="#000000" stroke-width="2" stroke-opacity="0.200000" d="M323.26,-188.72C336.55,-182.77 352.34,-173.9 363.25,-162 369.17,-155.55 364.9,-150.02 371.25,-144 371.39,-143.86 371.54,-143.73 371.68,-143.6"/>
<polygon fill="#000000" fill-opacity="0.200000" stroke="#000000" stroke-width="2" stroke-opacity="0.200000" points="372.85,-145.34 376.6,-140.2 370.47,-141.89 372.85,-145.34"/>
</g>
<!-- src/lib/MaplibreTerradrawControl.ts&#45;&gt;src/lib/interfaces/index.ts -->
<g id="edge5" class="edge">
<title>src/lib/MaplibreTerradrawControl.ts&#45;&gt;src/lib/interfaces/index.ts</title>
<path fill="none" stroke="#000000" stroke-opacity="0.200000" d="M363.61,-204.78C404.08,-208.96 454.33,-214.17 486.86,-217.53"/>
<polygon fill="none" stroke="#000000" stroke-opacity="0.200000" points="486.23,-219.58 492.42,-218.11 486.67,-215.4 486.23,-219.58"/>
</g>
<!-- src/lib/constants/defaultControlOptions.ts&#45;&gt;src/lib/interfaces/TerradrawControlOptions.ts -->
<g id="edge6" class="edge">
<title>src/lib/constants/defaultControlOptions.ts&#45;&gt;src/lib/interfaces/TerradrawControlOptions.ts</title>
<path fill="none" stroke="#000000" stroke-opacity="0.200000" d="M578.77,-106.4C587.71,-108.62 596.6,-111.71 604.5,-116 606.3,-116.98 641.62,-154.75 661.7,-176.31"/>
<polygon fill="none" stroke="#000000" stroke-opacity="0.200000" points="660.03,-177.59 665.66,-180.55 663.11,-174.73 660.03,-177.59"/>
</g>
<!-- src/lib/interfaces/TerradrawControlOptions.ts&#45;&gt;src/lib/interfaces/ModeOptions.ts -->
<g id="edge20" class="edge">
<title>src/lib/interfaces/TerradrawControlOptions.ts&#45;&gt;src/lib/interfaces/ModeOptions.ts</title>
<path fill="none" stroke="#000000" stroke-opacity="0.200000" d="M740.69,-191C743.97,-191 747.23,-191 750.44,-191"/>
<polygon fill="none" stroke="#000000" stroke-opacity="0.200000" points="750.31,-193.1 756.31,-191 750.31,-188.9 750.31,-193.1"/>
</g>
<!-- src/lib/interfaces/TerradrawControlOptions.ts&#45;&gt;src/lib/interfaces/TerradrawMode.ts -->
<g id="edge21" class="edge">
<title>src/lib/interfaces/TerradrawControlOptions.ts&#45;&gt;src/lib/interfaces/TerradrawMode.ts</title>
<path fill="none" stroke="#000000" stroke-opacity="0.200000" d="M716.99,-200.3C724.71,-202.15 732.74,-204.11 740.25,-206 745.03,-207.2 750.03,-208.49 755,-209.78"/>
<polygon fill="none" stroke="#000000" stroke-opacity="0.200000" points="754.42,-211.8 760.76,-211.28 755.48,-207.73 754.42,-211.8"/>
</g>
<!-- src/lib/constants/defaultMeasureControlOptions.ts&#45;&gt;src/lib/interfaces/MeasureControlOptions.ts -->
<g id="edge7" class="edge">
<title>src/lib/constants/defaultMeasureControlOptions.ts&#45;&gt;src/lib/interfaces/MeasureControlOptions.ts</title>
<path fill="none" stroke="#000000" stroke-opacity="0.200000" d="M557.26,-140.25C573.88,-146.38 592.67,-156.1 604.5,-171 614.42,-183.5 601.27,-194.66 612.5,-206 612.9,-206.4 613.31,-206.8 613.73,-207.18"/>
<polygon fill="none" stroke="#000000" stroke-opacity="0.200000" points="612.32,-208.75 618.37,-210.72 614.87,-205.41 612.32,-208.75"/>
</g>
<!-- src/lib/interfaces/MeasureControlOptions.ts&#45;&gt;src/lib/interfaces/ModeOptions.ts -->
<g id="edge17" class="edge">
<title>src/lib/interfaces/MeasureControlOptions.ts&#45;&gt;src/lib/interfaces/ModeOptions.ts</title>
<path fill="none" stroke="#000000" stroke-opacity="0.200000" d="M716.99,-211.7C724.71,-209.85 732.74,-207.89 740.25,-206 745.03,-204.8 750.03,-203.51 755,-202.22"/>
<polygon fill="none" stroke="#000000" stroke-opacity="0.200000" points="755.48,-204.27 760.76,-200.72 754.42,-200.2 755.48,-204.27"/>
</g>
<!-- src/lib/interfaces/MeasureControlOptions.ts&#45;&gt;src/lib/interfaces/TerradrawMode.ts -->
<g id="edge18" class="edge">
<title>src/lib/interfaces/MeasureControlOptions.ts&#45;&gt;src/lib/interfaces/TerradrawMode.ts</title>
<path fill="none" stroke="#000000" stroke-opacity="0.200000" d="M737.89,-221C740.44,-221 742.99,-221 745.51,-221"/>
<polygon fill="none" stroke="#000000" stroke-opacity="0.200000" points="745.51,-223.1 751.51,-221 745.51,-218.9 745.51,-223.1"/>
</g>
<!-- src/lib/constants/getDefaultModeOptions.ts&#45;&gt;src/lib/interfaces/ModeOptions.ts -->
<g id="edge8" class="edge">
<title>src/lib/constants/getDefaultModeOptions.ts&#45;&gt;src/lib/interfaces/ModeOptions.ts</title>
<path fill="none" stroke="#000000" stroke-opacity="0.200000" d="M582.16,-50.36C629.15,-60.19 694.14,-79.5 740.25,-116 761.31,-132.67 778.74,-158.89 788.5,-175.49"/>
<polygon fill="none" stroke="#000000" stroke-opacity="0.200000" points="786.65,-176.49 791.46,-180.66 790.3,-174.4 786.65,-176.49"/>
</g>
<!-- src/lib/interfaces/ModeOptions.ts&#45;&gt;src/lib/interfaces/TerradrawModeClass.ts -->
<g id="edge19" class="edge">
<title>src/lib/interfaces/ModeOptions.ts&#45;&gt;src/lib/interfaces/TerradrawModeClass.ts</title>
<path fill="none" stroke="#000000" stroke-opacity="0.200000" d="M826.34,-200.28C831.78,-202.15 837.45,-204.12 842.75,-206 854.69,-210.23 867.76,-214.98 879.24,-219.19"/>
<polygon fill="none" stroke="#000000" stroke-opacity="0.200000" points="878.39,-221.11 884.74,-221.21 879.84,-217.17 878.39,-221.11"/>
</g>
<!-- src/lib/index.ts -->
<g id="node12" class="node">
<title>src/lib/index.ts</title>
<g id="a_node12"><a xlink:href="src/lib/index.ts" xlink:title="index.ts">
<path fill="#ddfeff" stroke="black" d="M72.08,-195.88C72.08,-195.88 29.92,-195.88 29.92,-195.88 26.96,-195.88 24,-192.92 24,-189.96 24,-189.96 24,-184.04 24,-184.04 24,-181.08 26.96,-178.12 29.92,-178.12 29.92,-178.12 72.08,-178.12 72.08,-178.12 75.04,-178.12 78,-181.08 78,-184.04 78,-184.04 78,-189.96 78,-189.96 78,-192.92 75.04,-195.88 72.08,-195.88"/>
<text text-anchor="start" x="35.25" y="-183.32" font-family="Helvetica,sans-Serif" font-size="9.00">index.ts</text>
</a>
</g>
</g>
<!-- src/lib/index.ts&#45;&gt;src/lib/MaplibreMeasureControl.ts -->
<g id="edge15" class="edge">
<title>src/lib/index.ts&#45;&gt;src/lib/MaplibreMeasureControl.ts</title>
<path fill="none" stroke="#000000" stroke-width="2" stroke-opacity="0.200000" d="M78.4,-184.14C79.49,-184.02 80.6,-183.9 81.73,-183.78"/>
<polygon fill="#000000" fill-opacity="0.200000" stroke="#000000" stroke-width="2" stroke-opacity="0.200000" points="81.9,-185.87 87.64,-183.14 81.45,-181.7 81.9,-185.87"/>
</g>
<!-- src/lib/index.ts&#45;&gt;src/lib/constants/index.ts -->
<g id="edge13" class="edge">
<title>src/lib/index.ts&#45;&gt;src/lib/constants/index.ts</title>
<path fill="none" stroke="#000000" stroke-width="2" stroke-opacity="0.200000" d="M62.86,-177.82C70.3,-172.04 80.66,-164.95 91,-161 187.92,-123.97 313.34,-125.3 372.11,-128.51"/>
<polygon fill="#000000" fill-opacity="0.200000" stroke="#000000" stroke-width="2" stroke-opacity="0.200000" points="377.82,-130.94 371.95,-128.5 378.06,-126.75 377.82,-130.94"/>
</g>
<!-- src/lib/index.ts&#45;&gt;src/lib/interfaces/index.ts -->
<g id="edge14" class="edge">
<title>src/lib/index.ts&#45;&gt;src/lib/interfaces/index.ts</title>
<path fill="none" stroke="#000000" stroke-width="2" stroke-opacity="0.200000" d="M78.29,-195.06C82.51,-196.17 86.86,-197.2 91,-198 236.27,-226.06 413.96,-224.46 486.8,-222.3"/>
<polygon fill="#000000" fill-opacity="0.200000" stroke="#000000" stroke-width="2" stroke-opacity="0.200000" points="493,-224.21 486.94,-222.3 492.87,-220.01 493,-224.21"/>
</g>
<!-- src/lib/index.ts&#45;&gt;src/lib/MaplibreTerradrawControl.ts -->
<g id="edge16" class="edge">
<title>src/lib/index.ts&#45;&gt;src/lib/MaplibreTerradrawControl.ts</title>
<path fill="none" stroke="#000000" stroke-width="2" stroke-opacity="0.200000" d="M78.41,-189.95C82.62,-190.35 86.93,-190.72 91,-191 134.46,-193.97 183.19,-195.7 222.25,-196.69"/>
<polygon fill="#000000" fill-opacity="0.200000" stroke="#000000" stroke-width="2" stroke-opacity="0.200000" points="221.86,-198.78 227.91,-196.83 221.97,-194.59 221.86,-198.78"/>
</g>
<!-- src/lib/interfaces/TerradrawMode.ts&#45;&gt;src/lib/constants/AvailableModes.ts -->
<g id="edge22" class="edge">
<title>src/lib/interfaces/TerradrawMode.ts&#45;&gt;src/lib/constants/AvailableModes.ts</title>
<path fill="none" stroke="#000000" stroke-width="2" stroke-opacity="0.200000" d="M761.16,-211.64C758.3,-210.05 755.61,-208.18 753.25,-206 742.58,-196.14 749.58,-187.14 740.25,-176 738.8,-174.27 606.6,-86.85 604.5,-86 595.55,-82.39 585.69,-79.65 576.01,-77.56"/>
<polygon fill="#000000" fill-opacity="0.200000" stroke="#000000" stroke-width="2" stroke-opacity="0.200000" points="576.46,-75.51 570.17,-76.4 575.65,-79.63 576.46,-75.51"/>
</g>
</g>
</svg>
