<?xml version="1.0" encoding="UTF-8" standalone="no"?>
<!DOCTYPE svg PUBLIC "-//W3C//DTD SVG 1.1//EN"
 "http://www.w3.org/Graphics/SVG/1.1/DTD/svg11.dtd">
<!-- Generated by graphviz version 2.43.0 (0)
 -->
<!-- Title: dependency&#45;cruiser output Pages: 1 -->
<svg width="1348pt" height="424pt"
 viewBox="0.00 0.00 1348.00 424.00" xmlns="http://www.w3.org/2000/svg" xmlns:xlink="http://www.w3.org/1999/xlink">
<g id="graph0" class="graph" transform="scale(1 1) rotate(0) translate(4 420)">
<title>dependency&#45;cruiser output</title>
<polygon fill="white" stroke="transparent" points="-4,4 -4,-420 1344,-420 1344,4 -4,4"/>
<g id="clust1" class="cluster">
<title>cluster_src</title>
<path fill="#ffffff" stroke="black" stroke-width="2" d="M20,-8C20,-8 1320,-8 1320,-8 1326,-8 1332,-14 1332,-20 1332,-20 1332,-396 1332,-396 1332,-402 1326,-408 1320,-408 1320,-408 20,-408 20,-408 14,-408 8,-402 8,-396 8,-396 8,-20 8,-20 8,-14 14,-8 20,-8"/>
<text text-anchor="middle" x="670" y="-396.8" font-family="Helvetica,sans-Serif" font-weight="bold" font-size="9.00">src</text>
</g>
<g id="clust2" class="cluster">
<title>cluster_src/lib</title>
<path fill="#ffffff" stroke="black" stroke-width="2" d="M28,-16C28,-16 1312,-16 1312,-16 1318,-16 1324,-22 1324,-28 1324,-28 1324,-370 1324,-370 1324,-376 1318,-382 1312,-382 1312,-382 28,-382 28,-382 22,-382 16,-376 16,-370 16,-370 16,-28 16,-28 16,-22 22,-16 28,-16"/>
<text text-anchor="middle" x="670" y="-370.8" font-family="Helvetica,sans-Serif" font-weight="bold" font-size="9.00">lib</text>
</g>
<g id="clust3" class="cluster">
<title>cluster_src/lib/constants</title>
<path fill="#ffffff" stroke="black" stroke-width="2" d="M685,-214C685,-214 908,-214 908,-214 914,-214 920,-220 920,-226 920,-226 920,-344 920,-344 920,-350 914,-356 908,-356 908,-356 685,-356 685,-356 679,-356 673,-350 673,-344 673,-344 673,-226 673,-226 673,-220 679,-214 685,-214"/>
<text text-anchor="middle" x="796.5" y="-344.8" font-family="Helvetica,sans-Serif" font-weight="bold" font-size="9.00">constants</text>
</g>
<g id="clust4" class="cluster">
<title>cluster_src/lib/controls</title>
<path fill="#ffffff" stroke="black" stroke-width="2" d="M98,-121C98,-121 449,-121 449,-121 455,-121 461,-127 461,-133 461,-133 461,-175 461,-175 461,-181 455,-187 449,-187 449,-187 98,-187 98,-187 92,-187 86,-181 86,-175 86,-175 86,-133 86,-133 86,-127 92,-121 98,-121"/>
<text text-anchor="middle" x="273.5" y="-175.8" font-family="Helvetica,sans-Serif" font-weight="bold" font-size="9.00">controls</text>
</g>
<g id="clust5" class="cluster">
<title>cluster_src/lib/helpers</title>
<path fill="#ffffff" stroke="black" stroke-width="2" d="M481,-127C481,-127 653,-127 653,-127 659,-127 665,-133 665,-139 665,-139 665,-227 665,-227 665,-233 659,-239 653,-239 653,-239 481,-239 481,-239 475,-239 469,-233 469,-227 469,-227 469,-139 469,-139 469,-133 475,-127 481,-127"/>
<text text-anchor="middle" x="567" y="-227.8" font-family="Helvetica,sans-Serif" font-weight="bold" font-size="9.00">helpers</text>
</g>
<g id="clust6" class="cluster">
<title>cluster_src/lib/interfaces</title>
<path fill="#ffffff" stroke="black" stroke-width="2" d="M807,-24C807,-24 1304,-24 1304,-24 1310,-24 1316,-30 1316,-36 1316,-36 1316,-194 1316,-194 1316,-200 1310,-206 1304,-206 1304,-206 807,-206 807,-206 801,-206 795,-200 795,-194 795,-194 795,-36 795,-36 795,-30 801,-24 807,-24"/>
<text text-anchor="middle" x="1055.5" y="-194.8" font-family="Helvetica,sans-Serif" font-weight="bold" font-size="9.00">interfaces</text>
</g>
<!-- src/lib/constants/AvailableModes.ts -->
<g id="node1" class="node">
<title>src/lib/constants/AvailableModes.ts</title>
<g id="a_node1"><a xlink:href="src/lib/constants/AvailableModes.ts" xlink:title="AvailableModes.ts">
<path fill="#ddfeff" stroke="black" d="M872,-300C872,-300 788,-300 788,-300 785,-300 782,-297 782,-294 782,-294 782,-288 782,-288 782,-285 785,-282 788,-282 788,-282 872,-282 872,-282 875,-282 878,-285 878,-288 878,-288 878,-294 878,-294 878,-297 875,-300 872,-300"/>
<text text-anchor="start" x="790" y="-288.8" font-family="Helvetica,sans-Serif" font-size="9.00">AvailableModes.ts</text>
</a>
</g>
</g>
<!-- src/lib/constants/defaultControlOptions.ts -->
<g id="node2" class="node">
<title>src/lib/constants/defaultControlOptions.ts</title>
<g id="a_node2"><a xlink:href="src/lib/constants/defaultControlOptions.ts" xlink:title="defaultControlOptions.ts">
<path fill="#ddfeff" stroke="black" d="M887,-270C887,-270 773,-270 773,-270 770,-270 767,-267 767,-264 767,-264 767,-258 767,-258 767,-255 770,-252 773,-252 773,-252 887,-252 887,-252 890,-252 893,-255 893,-258 893,-258 893,-264 893,-264 893,-267 890,-270 887,-270"/>
<text text-anchor="start" x="775" y="-258.8" font-family="Helvetica,sans-Serif" font-size="9.00">defaultControlOptions.ts</text>
</a>
</g>
</g>
<!-- src/lib/interfaces/TerradrawControlOptions.ts -->
<g id="node3" class="node">
<title>src/lib/interfaces/TerradrawControlOptions.ts</title>
<g id="a_node3"><a xlink:href="src/lib/interfaces/TerradrawControlOptions.ts" xlink:title="TerradrawControlOptions.ts">
<path fill="#ddfeff" stroke="black" d="M1061,-180C1061,-180 934,-180 934,-180 931,-180 928,-177 928,-174 928,-174 928,-168 928,-168 928,-165 931,-162 934,-162 934,-162 1061,-162 1061,-162 1064,-162 1067,-165 1067,-168 1067,-168 1067,-174 1067,-174 1067,-177 1064,-180 1061,-180"/>
<text text-anchor="start" x="936" y="-168.8" font-family="Helvetica,sans-Serif" font-size="9.00">TerradrawControlOptions.ts</text>
</a>
</g>
</g>
<!-- src/lib/constants/defaultControlOptions.ts&#45;&gt;src/lib/interfaces/TerradrawControlOptions.ts -->
<g id="edge1" class="edge">
<title>src/lib/constants/defaultControlOptions.ts&#45;&gt;src/lib/interfaces/TerradrawControlOptions.ts</title>
<path fill="none" stroke="#000000" stroke-opacity="0.200000" d="M893.4,-255.55C902.63,-253.32 911.78,-250.24 920,-246 924.47,-243.7 924.42,-241.54 928,-238 946.92,-219.29 968.93,-197.81 982.79,-184.32"/>
<polygon fill="none" stroke="#000000" stroke-opacity="0.200000" points="984.32,-185.76 987.16,-180.07 981.4,-182.75 984.32,-185.76"/>
</g>
<!-- src/lib/interfaces/ModeOptions.ts -->
<g id="node7" class="node">
<title>src/lib/interfaces/ModeOptions.ts</title>
<g id="a_node7"><a xlink:href="src/lib/interfaces/ModeOptions.ts" xlink:title="ModeOptions.ts">
<path fill="#ddfeff" stroke="black" d="M1165,-180C1165,-180 1091,-180 1091,-180 1088,-180 1085,-177 1085,-174 1085,-174 1085,-168 1085,-168 1085,-165 1088,-162 1091,-162 1091,-162 1165,-162 1165,-162 1168,-162 1171,-165 1171,-168 1171,-168 1171,-174 1171,-174 1171,-177 1168,-180 1165,-180"/>
<text text-anchor="start" x="1093" y="-168.8" font-family="Helvetica,sans-Serif" font-size="9.00">ModeOptions.ts</text>
</a>
</g>
</g>
<!-- src/lib/interfaces/TerradrawControlOptions.ts&#45;&gt;src/lib/interfaces/ModeOptions.ts -->
<g id="edge30" class="edge">
<title>src/lib/interfaces/TerradrawControlOptions.ts&#45;&gt;src/lib/interfaces/ModeOptions.ts</title>
<path fill="none" stroke="#000000" stroke-opacity="0.200000" d="M1067.26,-171C1071.09,-171 1074.89,-171 1078.61,-171"/>
<polygon fill="none" stroke="#000000" stroke-opacity="0.200000" points="1078.8,-173.1 1084.8,-171 1078.8,-168.9 1078.8,-173.1"/>
</g>
<!-- src/lib/interfaces/TerradrawMode.ts -->
<g id="node21" class="node">
<title>src/lib/interfaces/TerradrawMode.ts</title>
<g id="a_node21"><a xlink:href="src/lib/interfaces/TerradrawMode.ts" xlink:title="TerradrawMode.ts">
<path fill="#ddfeff" stroke="black" d="M1170,-150C1170,-150 1086,-150 1086,-150 1083,-150 1080,-147 1080,-144 1080,-144 1080,-138 1080,-138 1080,-135 1083,-132 1086,-132 1086,-132 1170,-132 1170,-132 1173,-132 1176,-135 1176,-138 1176,-138 1176,-144 1176,-144 1176,-147 1173,-150 1170,-150"/>
<text text-anchor="start" x="1088" y="-138.8" font-family="Helvetica,sans-Serif" font-size="9.00">TerradrawMode.ts</text>
</a>
</g>
</g>
<!-- src/lib/interfaces/TerradrawControlOptions.ts&#45;&gt;src/lib/interfaces/TerradrawMode.ts -->
<g id="edge31" class="edge">
<title>src/lib/interfaces/TerradrawControlOptions.ts&#45;&gt;src/lib/interfaces/TerradrawMode.ts</title>
<path fill="none" stroke="#000000" stroke-opacity="0.200000" d="M1037.05,-162C1051.16,-158.71 1067.23,-154.95 1081.86,-151.54"/>
<polygon fill="none" stroke="#000000" stroke-opacity="0.200000" points="1082.66,-153.51 1088.03,-150.1 1081.71,-149.42 1082.66,-153.51"/>
</g>
<!-- src/lib/constants/defaultMeasureControlOptions.ts -->
<g id="node4" class="node">
<title>src/lib/constants/defaultMeasureControlOptions.ts</title>
<g id="a_node4"><a xlink:href="src/lib/constants/defaultMeasureControlOptions.ts" xlink:title="defaultMeasureControlOptions.ts">
<path fill="#ddfeff" stroke="black" d="M906,-240C906,-240 754,-240 754,-240 751,-240 748,-237 748,-234 748,-234 748,-228 748,-228 748,-225 751,-222 754,-222 754,-222 906,-222 906,-222 909,-222 912,-225 912,-228 912,-228 912,-234 912,-234 912,-237 909,-240 906,-240"/>
<text text-anchor="start" x="756" y="-228.8" font-family="Helvetica,sans-Serif" font-size="9.00">defaultMeasureControlOptions.ts</text>
</a>
</g>
</g>
<!-- src/lib/interfaces/MeasureControlOptions.ts -->
<g id="node5" class="node">
<title>src/lib/interfaces/MeasureControlOptions.ts</title>
<g id="a_node5"><a xlink:href="src/lib/interfaces/MeasureControlOptions.ts" xlink:title="MeasureControlOptions.ts">
<path fill="#ddfeff" stroke="black" d="M1057.5,-136C1057.5,-136 937.5,-136 937.5,-136 934.5,-136 931.5,-133 931.5,-130 931.5,-130 931.5,-124 931.5,-124 931.5,-121 934.5,-118 937.5,-118 937.5,-118 1057.5,-118 1057.5,-118 1060.5,-118 1063.5,-121 1063.5,-124 1063.5,-124 1063.5,-130 1063.5,-130 1063.5,-133 1060.5,-136 1057.5,-136"/>
<text text-anchor="start" x="939.5" y="-124.8" font-family="Helvetica,sans-Serif" font-size="9.00">MeasureControlOptions.ts</text>
</a>
</g>
</g>
<!-- src/lib/constants/defaultMeasureControlOptions.ts&#45;&gt;src/lib/interfaces/MeasureControlOptions.ts -->
<g id="edge2" class="edge">
<title>src/lib/constants/defaultMeasureControlOptions.ts&#45;&gt;src/lib/interfaces/MeasureControlOptions.ts</title>
<path fill="none" stroke="#000000" stroke-opacity="0.200000" d="M902.46,-221.8C909.03,-218.59 915.07,-214.41 920,-209 936.05,-191.39 913.39,-174.82 928,-156 933.97,-148.31 942.36,-142.64 951.23,-138.46"/>
<polygon fill="none" stroke="#000000" stroke-opacity="0.200000" points="952.12,-140.36 956.79,-136.04 950.45,-136.5 952.12,-140.36"/>
</g>
<!-- src/lib/interfaces/MeasureControlOptions.ts&#45;&gt;src/lib/interfaces/ModeOptions.ts -->
<g id="edge27" class="edge">
<title>src/lib/interfaces/MeasureControlOptions.ts&#45;&gt;src/lib/interfaces/ModeOptions.ts</title>
<path fill="none" stroke="#000000" stroke-opacity="0.200000" d="M1044.52,-136.06C1052.25,-138.43 1060.02,-141.37 1067,-145 1073.71,-148.49 1073.38,-152.33 1080,-156 1082.28,-157.26 1084.67,-158.43 1087.13,-159.52"/>
<polygon fill="none" stroke="#000000" stroke-opacity="0.200000" points="1086.6,-161.57 1092.95,-161.9 1088.19,-157.69 1086.6,-161.57"/>
</g>
<!-- src/lib/interfaces/AreaUnit.ts -->
<g id="node18" class="node">
<title>src/lib/interfaces/AreaUnit.ts</title>
<g id="a_node18"><a xlink:href="src/lib/interfaces/AreaUnit.ts" xlink:title="AreaUnit.ts">
<path fill="#ddfeff" stroke="black" d="M1155.5,-90C1155.5,-90 1100.5,-90 1100.5,-90 1097.5,-90 1094.5,-87 1094.5,-84 1094.5,-84 1094.5,-78 1094.5,-78 1094.5,-75 1097.5,-72 1100.5,-72 1100.5,-72 1155.5,-72 1155.5,-72 1158.5,-72 1161.5,-75 1161.5,-78 1161.5,-78 1161.5,-84 1161.5,-84 1161.5,-87 1158.5,-90 1155.5,-90"/>
<text text-anchor="start" x="1102.5" y="-78.8" font-family="Helvetica,sans-Serif" font-size="9.00">AreaUnit.ts</text>
</a>
</g>
</g>
<!-- src/lib/interfaces/MeasureControlOptions.ts&#45;&gt;src/lib/interfaces/AreaUnit.ts -->
<g id="edge25" class="edge">
<title>src/lib/interfaces/MeasureControlOptions.ts&#45;&gt;src/lib/interfaces/AreaUnit.ts</title>
<path fill="none" stroke="#000000" stroke-opacity="0.200000" d="M1021.21,-117.98C1037.49,-111.61 1059.99,-102.99 1080,-96 1083.86,-94.65 1087.91,-93.29 1091.95,-91.95"/>
<polygon fill="none" stroke="#000000" stroke-opacity="0.200000" points="1092.78,-93.89 1097.83,-90.04 1091.48,-89.9 1092.78,-93.89"/>
</g>
<!-- src/lib/interfaces/DistanceUnit.ts -->
<g id="node19" class="node">
<title>src/lib/interfaces/DistanceUnit.ts</title>
<g id="a_node19"><a xlink:href="src/lib/interfaces/DistanceUnit.ts" xlink:title="DistanceUnit.ts">
<path fill="#ddfeff" stroke="black" d="M1165,-120C1165,-120 1091,-120 1091,-120 1088,-120 1085,-117 1085,-114 1085,-114 1085,-108 1085,-108 1085,-105 1088,-102 1091,-102 1091,-102 1165,-102 1165,-102 1168,-102 1171,-105 1171,-108 1171,-108 1171,-114 1171,-114 1171,-117 1168,-120 1165,-120"/>
<text text-anchor="start" x="1093" y="-108.8" font-family="Helvetica,sans-Serif" font-size="9.00">DistanceUnit.ts</text>
</a>
</g>
</g>
<!-- src/lib/interfaces/MeasureControlOptions.ts&#45;&gt;src/lib/interfaces/DistanceUnit.ts -->
<g id="edge26" class="edge">
<title>src/lib/interfaces/MeasureControlOptions.ts&#45;&gt;src/lib/interfaces/DistanceUnit.ts</title>
<path fill="none" stroke="#000000" stroke-opacity="0.200000" d="M1063.5,-118.91C1068.58,-118.27 1073.65,-117.64 1078.59,-117.03"/>
<polygon fill="none" stroke="#000000" stroke-opacity="0.200000" points="1079.07,-119.08 1084.76,-116.26 1078.55,-114.92 1079.07,-119.08"/>
</g>
<!-- src/lib/interfaces/MeasureControlOptions.ts&#45;&gt;src/lib/interfaces/TerradrawMode.ts -->
<g id="edge28" class="edge">
<title>src/lib/interfaces/MeasureControlOptions.ts&#45;&gt;src/lib/interfaces/TerradrawMode.ts</title>
<path fill="none" stroke="#000000" stroke-opacity="0.200000" d="M1063.5,-134.08C1066.93,-134.46 1070.35,-134.83 1073.73,-135.2"/>
<polygon fill="none" stroke="#000000" stroke-opacity="0.200000" points="1073.56,-137.29 1079.76,-135.85 1074.02,-133.12 1073.56,-137.29"/>
</g>
<!-- src/lib/constants/getDefaultModeOptions.ts -->
<g id="node6" class="node">
<title>src/lib/constants/getDefaultModeOptions.ts</title>
<g id="a_node6"><a xlink:href="src/lib/constants/getDefaultModeOptions.ts" xlink:title="getDefaultModeOptions.ts">
<path fill="#ddfeff" stroke="black" d="M891,-330C891,-330 769,-330 769,-330 766,-330 763,-327 763,-324 763,-324 763,-318 763,-318 763,-315 766,-312 769,-312 769,-312 891,-312 891,-312 894,-312 897,-315 897,-318 897,-318 897,-324 897,-324 897,-327 894,-330 891,-330"/>
<text text-anchor="start" x="771" y="-318.8" font-family="Helvetica,sans-Serif" font-size="9.00">getDefaultModeOptions.ts</text>
</a>
</g>
</g>
<!-- src/lib/constants/getDefaultModeOptions.ts&#45;&gt;src/lib/interfaces/ModeOptions.ts -->
<g id="edge3" class="edge">
<title>src/lib/constants/getDefaultModeOptions.ts&#45;&gt;src/lib/interfaces/ModeOptions.ts</title>
<path fill="none" stroke="#000000" stroke-opacity="0.200000" d="M897.21,-312.02C947.75,-302.49 1016.98,-283.38 1067,-246 1089.56,-229.14 1108.47,-201.88 1118.73,-185.28"/>
<polygon fill="none" stroke="#000000" stroke-opacity="0.200000" points="1120.56,-186.31 1121.86,-180.09 1116.96,-184.14 1120.56,-186.31"/>
</g>
<!-- src/lib/interfaces/TerradrawModeClass.ts -->
<g id="node22" class="node">
<title>src/lib/interfaces/TerradrawModeClass.ts</title>
<g id="a_node22"><a xlink:href="src/lib/interfaces/TerradrawModeClass.ts" xlink:title="TerradrawModeClass.ts">
<path fill="#ddfeff" stroke="black" d="M1302,-124C1302,-124 1195,-124 1195,-124 1192,-124 1189,-121 1189,-118 1189,-118 1189,-112 1189,-112 1189,-109 1192,-106 1195,-106 1195,-106 1302,-106 1302,-106 1305,-106 1308,-109 1308,-112 1308,-112 1308,-118 1308,-118 1308,-121 1305,-124 1302,-124"/>
<text text-anchor="start" x="1197" y="-112.8" font-family="Helvetica,sans-Serif" font-size="9.00">TerradrawModeClass.ts</text>
</a>
</g>
</g>
<!-- src/lib/interfaces/ModeOptions.ts&#45;&gt;src/lib/interfaces/TerradrawModeClass.ts -->
<g id="edge29" class="edge">
<title>src/lib/interfaces/ModeOptions.ts&#45;&gt;src/lib/interfaces/TerradrawModeClass.ts</title>
<path fill="none" stroke="#000000" stroke-opacity="0.200000" d="M1160.44,-161.99C1165.71,-160.19 1171.06,-158.17 1176,-156 1194.5,-147.85 1214.35,-136.22 1228.43,-127.42"/>
<polygon fill="none" stroke="#000000" stroke-opacity="0.200000" points="1229.77,-129.06 1233.72,-124.08 1227.52,-125.51 1229.77,-129.06"/>
</g>
<!-- src/lib/constants/index.ts -->
<g id="node8" class="node">
<title>src/lib/constants/index.ts</title>
<g id="a_node8"><a xlink:href="src/lib/constants/index.ts" xlink:title="index.ts">
<path fill="#ddfeff" stroke="black" d="M729,-271C729,-271 687,-271 687,-271 684,-271 681,-268 681,-265 681,-265 681,-259 681,-259 681,-256 684,-253 687,-253 687,-253 729,-253 729,-253 732,-253 735,-256 735,-259 735,-259 735,-265 735,-265 735,-268 732,-271 729,-271"/>
<text text-anchor="start" x="689.5" y="-259.8" font-family="Helvetica,sans-Serif" font-size="9.00">index.ts</text>
</a>
</g>
</g>
<!-- src/lib/constants/index.ts&#45;&gt;src/lib/constants/AvailableModes.ts -->
<g id="edge4" class="edge">
<title>src/lib/constants/index.ts&#45;&gt;src/lib/constants/AvailableModes.ts</title>
<path fill="none" stroke="#000000" stroke-width="2" stroke-opacity="0.200000" d="M732.32,-271.06C737.43,-272.86 742.86,-274.61 748,-276 756.83,-278.39 766.31,-280.52 775.56,-282.37"/>
<polygon fill="#000000" fill-opacity="0.200000" stroke="#000000" stroke-width="2" stroke-opacity="0.200000" points="781.19,-285.61 775.71,-282.4 782,-281.49 781.19,-285.61"/>
</g>
<!-- src/lib/constants/index.ts&#45;&gt;src/lib/constants/defaultControlOptions.ts -->
<g id="edge5" class="edge">
<title>src/lib/constants/index.ts&#45;&gt;src/lib/constants/defaultControlOptions.ts</title>
<path fill="none" stroke="#000000" stroke-width="2" stroke-opacity="0.200000" d="M735.04,-261.78C742.66,-261.72 751.36,-261.65 760.33,-261.57"/>
<polygon fill="#000000" fill-opacity="0.200000" stroke="#000000" stroke-width="2" stroke-opacity="0.200000" points="766.59,-263.62 760.57,-261.57 766.56,-259.42 766.59,-263.62"/>
</g>
<!-- src/lib/constants/index.ts&#45;&gt;src/lib/constants/defaultMeasureControlOptions.ts -->
<g id="edge6" class="edge">
<title>src/lib/constants/index.ts&#45;&gt;src/lib/constants/defaultMeasureControlOptions.ts</title>
<path fill="none" stroke="#000000" stroke-width="2" stroke-opacity="0.200000" d="M728.96,-252.89C734.99,-250.39 741.68,-247.86 748,-246 753.76,-244.3 759.81,-242.76 765.91,-241.37"/>
<polygon fill="#000000" fill-opacity="0.200000" stroke="#000000" stroke-width="2" stroke-opacity="0.200000" points="772.45,-242.07 766.14,-241.31 771.55,-237.97 772.45,-242.07"/>
</g>
<!-- src/lib/constants/index.ts&#45;&gt;src/lib/constants/getDefaultModeOptions.ts -->
<g id="edge7" class="edge">
<title>src/lib/constants/index.ts&#45;&gt;src/lib/constants/getDefaultModeOptions.ts</title>
<path fill="none" stroke="#000000" stroke-width="2" stroke-opacity="0.200000" d="M714.36,-271.03C720.94,-281.25 733.07,-297.56 748,-306 750.88,-307.63 753.9,-309.08 757.01,-310.38"/>
<polygon fill="#000000" fill-opacity="0.200000" stroke="#000000" stroke-width="2" stroke-opacity="0.200000" points="761.95,-314.53 757.1,-310.42 763.45,-310.6 761.95,-314.53"/>
</g>
<!-- src/lib/controls/MaplibreMeasureControl.ts -->
<g id="node9" class="node">
<title>src/lib/controls/MaplibreMeasureControl.ts</title>
<g id="a_node9"><a xlink:href="src/lib/controls/MaplibreMeasureControl.ts" xlink:title="MaplibreMeasureControl.ts">
<path fill="#ddfeff" stroke="black" d="M291,-147C291,-147 167,-147 167,-147 164,-147 161,-144 161,-141 161,-141 161,-135 161,-135 161,-132 164,-129 167,-129 167,-129 291,-129 291,-129 294,-129 297,-132 297,-135 297,-135 297,-141 297,-141 297,-144 294,-147 291,-147"/>
<text text-anchor="start" x="169" y="-135.8" font-family="Helvetica,sans-Serif" font-size="9.00">MaplibreMeasureControl.ts</text>
</a>
</g>
</g>
<!-- src/lib/controls/MaplibreMeasureControl.ts&#45;&gt;src/lib/constants/index.ts -->
<g id="edge8" class="edge">
<title>src/lib/controls/MaplibreMeasureControl.ts&#45;&gt;src/lib/constants/index.ts</title>
<path fill="none" stroke="#000000" stroke-width="2" stroke-opacity="0.200000" d="M289.33,-147.08C291.99,-148.24 294.56,-149.54 297,-151 304.86,-155.71 302.92,-161.19 310,-167 371.78,-217.7 392.26,-228.69 469,-251 501.11,-260.34 510.61,-255.15 544,-257 589.19,-259.5 641.49,-260.83 674.41,-261.47"/>
<polygon fill="#000000" fill-opacity="0.200000" stroke="#000000" stroke-width="2" stroke-opacity="0.200000" points="674.69,-263.58 680.73,-261.59 674.77,-259.38 674.69,-263.58"/>
</g>
<!-- src/lib/helpers/index.ts -->
<g id="node10" class="node">
<title>src/lib/helpers/index.ts</title>
<g id="a_node10"><a xlink:href="src/lib/helpers/index.ts" xlink:title="index.ts">
<path fill="#ddfeff" stroke="black" d="M525,-156C525,-156 483,-156 483,-156 480,-156 477,-153 477,-150 477,-150 477,-144 477,-144 477,-141 480,-138 483,-138 483,-138 525,-138 525,-138 528,-138 531,-141 531,-144 531,-144 531,-150 531,-150 531,-153 528,-156 525,-156"/>
<text text-anchor="start" x="485.5" y="-144.8" font-family="Helvetica,sans-Serif" font-size="9.00">index.ts</text>
</a>
</g>
</g>
<!-- src/lib/controls/MaplibreMeasureControl.ts&#45;&gt;src/lib/helpers/index.ts -->
<g id="edge9" class="edge">
<title>src/lib/controls/MaplibreMeasureControl.ts&#45;&gt;src/lib/helpers/index.ts</title>
<path fill="none" stroke="#000000" stroke-width="2" stroke-opacity="0.200000" d="M297.21,-133.43C343.43,-131.34 406.13,-130.56 461,-137 464.26,-137.38 467.63,-137.93 470.98,-138.56"/>
<polygon fill="#000000" fill-opacity="0.200000" stroke="#000000" stroke-width="2" stroke-opacity="0.200000" points="470.65,-140.64 476.96,-139.8 471.51,-136.53 470.65,-140.64"/>
</g>
<!-- src/lib/interfaces/index.ts -->
<g id="node11" class="node">
<title>src/lib/interfaces/index.ts</title>
<g id="a_node11"><a xlink:href="src/lib/interfaces/index.ts" xlink:title="index.ts">
<path fill="#ddfeff" stroke="black" d="M851,-113C851,-113 809,-113 809,-113 806,-113 803,-110 803,-107 803,-107 803,-101 803,-101 803,-98 806,-95 809,-95 809,-95 851,-95 851,-95 854,-95 857,-98 857,-101 857,-101 857,-107 857,-107 857,-110 854,-113 851,-113"/>
<text text-anchor="start" x="811.5" y="-101.8" font-family="Helvetica,sans-Serif" font-size="9.00">index.ts</text>
</a>
</g>
</g>
<!-- src/lib/controls/MaplibreMeasureControl.ts&#45;&gt;src/lib/interfaces/index.ts -->
<g id="edge10" class="edge">
<title>src/lib/controls/MaplibreMeasureControl.ts&#45;&gt;src/lib/interfaces/index.ts</title>
<path fill="none" stroke="#000000" stroke-opacity="0.200000" d="M297.2,-129.39C301.53,-128.9 305.82,-128.43 310,-128 413.79,-117.3 439.78,-114.14 544,-109 635.43,-104.49 743.53,-103.89 796.48,-103.9"/>
<polygon fill="none" stroke="#000000" stroke-opacity="0.200000" points="796.65,-106 802.66,-103.9 796.66,-101.8 796.65,-106"/>
</g>
<!-- src/lib/controls/MaplibreTerradrawControl.ts -->
<g id="node12" class="node">
<title>src/lib/controls/MaplibreTerradrawControl.ts</title>
<g id="a_node12"><a xlink:href="src/lib/controls/MaplibreTerradrawControl.ts" xlink:title="MaplibreTerradrawControl.ts">
<path fill="#ddfeff" stroke="black" d="M447,-161C447,-161 316,-161 316,-161 313,-161 310,-158 310,-155 310,-155 310,-149 310,-149 310,-146 313,-143 316,-143 316,-143 447,-143 447,-143 450,-143 453,-146 453,-149 453,-149 453,-155 453,-155 453,-158 450,-161 447,-161"/>
<text text-anchor="start" x="318" y="-149.8" font-family="Helvetica,sans-Serif" font-size="9.00">MaplibreTerradrawControl.ts</text>
</a>
</g>
</g>
<!-- src/lib/controls/MaplibreMeasureControl.ts&#45;&gt;src/lib/controls/MaplibreTerradrawControl.ts -->
<g id="edge11" class="edge">
<title>src/lib/controls/MaplibreMeasureControl.ts&#45;&gt;src/lib/controls/MaplibreTerradrawControl.ts</title>
<path fill="none" stroke="#000000" stroke-width="2" stroke-opacity="0.200000" d="M297.33,-144.26C299.36,-144.45 301.4,-144.64 303.45,-144.83"/>
<polygon fill="#000000" fill-opacity="0.200000" stroke="#000000" stroke-width="2" stroke-opacity="0.200000" points="303.41,-146.94 309.58,-145.4 303.8,-142.76 303.41,-146.94"/>
</g>
<!-- src/lib/helpers/capitalize.ts -->
<g id="node14" class="node">
<title>src/lib/helpers/capitalize.ts</title>
<g id="a_node14"><a xlink:href="src/lib/helpers/capitalize.ts" xlink:title="capitalize.ts">
<path fill="#ddfeff" stroke="black" d="M629.5,-153C629.5,-153 571.5,-153 571.5,-153 568.5,-153 565.5,-150 565.5,-147 565.5,-147 565.5,-141 565.5,-141 565.5,-138 568.5,-135 571.5,-135 571.5,-135 629.5,-135 629.5,-135 632.5,-135 635.5,-138 635.5,-141 635.5,-141 635.5,-147 635.5,-147 635.5,-150 632.5,-153 629.5,-153"/>
<text text-anchor="start" x="573.5" y="-141.8" font-family="Helvetica,sans-Serif" font-size="9.00">capitalize.ts</text>
</a>
</g>
</g>
<!-- src/lib/helpers/index.ts&#45;&gt;src/lib/helpers/capitalize.ts -->
<g id="edge18" class="edge">
<title>src/lib/helpers/index.ts&#45;&gt;src/lib/helpers/capitalize.ts</title>
<path fill="none" stroke="#000000" stroke-width="2" stroke-opacity="0.200000" d="M531.07,-146.17C539.77,-145.9 549.67,-145.58 559.18,-145.28"/>
<polygon fill="#000000" fill-opacity="0.200000" stroke="#000000" stroke-width="2" stroke-opacity="0.200000" points="565.43,-147.18 559.37,-145.27 565.3,-142.98 565.43,-147.18"/>
</g>
<!-- src/lib/helpers/cleanMaplibreStyle.ts -->
<g id="node15" class="node">
<title>src/lib/helpers/cleanMaplibreStyle.ts</title>
<g id="a_node15"><a xlink:href="src/lib/helpers/cleanMaplibreStyle.ts" xlink:title="cleanMaplibreStyle.ts">
<path fill="#ddfeff" stroke="black" d="M651,-183C651,-183 550,-183 550,-183 547,-183 544,-180 544,-177 544,-177 544,-171 544,-171 544,-168 547,-165 550,-165 550,-165 651,-165 651,-165 654,-165 657,-168 657,-171 657,-171 657,-177 657,-177 657,-180 654,-183 651,-183"/>
<text text-anchor="start" x="552" y="-171.8" font-family="Helvetica,sans-Serif" font-size="9.00">cleanMaplibreStyle.ts</text>
</a>
</g>
</g>
<!-- src/lib/helpers/index.ts&#45;&gt;src/lib/helpers/cleanMaplibreStyle.ts -->
<g id="edge19" class="edge">
<title>src/lib/helpers/index.ts&#45;&gt;src/lib/helpers/cleanMaplibreStyle.ts</title>
<path fill="none" stroke="#000000" stroke-width="2" stroke-opacity="0.200000" d="M531.4,-155.26C535.6,-156.53 539.92,-157.82 544,-159 548.96,-160.43 554.19,-161.9 559.36,-163.33"/>
<polygon fill="#000000" fill-opacity="0.200000" stroke="#000000" stroke-width="2" stroke-opacity="0.200000" points="564.85,-167.01 559.61,-163.4 565.96,-162.96 564.85,-167.01"/>
</g>
<!-- src/lib/helpers/debounce.ts -->
<g id="node16" class="node">
<title>src/lib/helpers/debounce.ts</title>
<g id="a_node16"><a xlink:href="src/lib/helpers/debounce.ts" xlink:title="debounce.ts">
<path fill="#ddfeff" stroke="black" d="M631,-213C631,-213 570,-213 570,-213 567,-213 564,-210 564,-207 564,-207 564,-201 564,-201 564,-198 567,-195 570,-195 570,-195 631,-195 631,-195 634,-195 637,-198 637,-201 637,-201 637,-207 637,-207 637,-210 634,-213 631,-213"/>
<text text-anchor="start" x="572" y="-201.8" font-family="Helvetica,sans-Serif" font-size="9.00">debounce.ts</text>
</a>
</g>
</g>
<!-- src/lib/helpers/index.ts&#45;&gt;src/lib/helpers/debounce.ts -->
<g id="edge20" class="edge">
<title>src/lib/helpers/index.ts&#45;&gt;src/lib/helpers/debounce.ts</title>
<path fill="none" stroke="#000000" stroke-width="2" stroke-opacity="0.200000" d="M511.08,-156.11C517.95,-165.7 530.03,-180.57 544,-189 548.36,-191.63 553.19,-193.81 558.12,-195.61"/>
<polygon fill="#000000" fill-opacity="0.200000" stroke="#000000" stroke-width="2" stroke-opacity="0.200000" points="563.28,-199.55 558.25,-195.66 564.61,-195.57 563.28,-199.55"/>
</g>
<!-- src/lib/interfaces/index.ts&#45;&gt;src/lib/interfaces/TerradrawControlOptions.ts -->
<g id="edge38" class="edge">
<title>src/lib/interfaces/index.ts&#45;&gt;src/lib/interfaces/TerradrawControlOptions.ts</title>
<path fill="none" stroke="#000000" stroke-width="2" stroke-opacity="0.200000" d="M846.33,-113.02C865.07,-123.75 898.01,-141.63 928,-153 935.01,-155.66 942.56,-158.07 950,-160.2"/>
<polygon fill="#000000" fill-opacity="0.200000" stroke="#000000" stroke-width="2" stroke-opacity="0.200000" points="955.65,-163.95 950.43,-160.32 956.77,-159.9 955.65,-163.95"/>
</g>
<!-- src/lib/interfaces/index.ts&#45;&gt;src/lib/interfaces/MeasureControlOptions.ts -->
<g id="edge36" class="edge">
<title>src/lib/interfaces/index.ts&#45;&gt;src/lib/interfaces/MeasureControlOptions.ts</title>
<path fill="none" stroke="#000000" stroke-width="2" stroke-opacity="0.200000" d="M857.22,-107.64C875.63,-110.2 901.17,-113.75 925.36,-117.11"/>
<polygon fill="#000000" fill-opacity="0.200000" stroke="#000000" stroke-width="2" stroke-opacity="0.200000" points="931.19,-120.04 925.54,-117.14 931.77,-115.88 931.19,-120.04"/>
</g>
<!-- src/lib/interfaces/index.ts&#45;&gt;src/lib/interfaces/ModeOptions.ts -->
<g id="edge37" class="edge">
<title>src/lib/interfaces/index.ts&#45;&gt;src/lib/interfaces/ModeOptions.ts</title>
<path fill="none" stroke="#000000" stroke-width="2" stroke-opacity="0.200000" d="M849.82,-113.16C869.01,-122.06 899.87,-135.21 928,-142 988.36,-156.57 1005.83,-145.33 1067,-156 1074.02,-157.23 1081.44,-158.82 1088.58,-160.52"/>
<polygon fill="#000000" fill-opacity="0.200000" stroke="#000000" stroke-width="2" stroke-opacity="0.200000" points="1093.99,-164 1088.66,-160.54 1094.98,-159.92 1093.99,-164"/>
</g>
<!-- src/lib/interfaces/index.ts&#45;&gt;src/lib/interfaces/AreaUnit.ts -->
<g id="edge33" class="edge">
<title>src/lib/interfaces/index.ts&#45;&gt;src/lib/interfaces/AreaUnit.ts</title>
<path fill="none" stroke="#000000" stroke-width="2" stroke-opacity="0.200000" d="M857.32,-101.02C876.82,-98.87 904.04,-96.02 928,-94 983.51,-89.33 1047.85,-85.39 1087.99,-83.11"/>
<polygon fill="#000000" fill-opacity="0.200000" stroke="#000000" stroke-width="2" stroke-opacity="0.200000" points="1094.34,-84.86 1088.23,-83.1 1094.11,-80.67 1094.34,-84.86"/>
</g>
<!-- src/lib/interfaces/index.ts&#45;&gt;src/lib/interfaces/DistanceUnit.ts -->
<g id="edge34" class="edge">
<title>src/lib/interfaces/index.ts&#45;&gt;src/lib/interfaces/DistanceUnit.ts</title>
<path fill="none" stroke="#000000" stroke-width="2" stroke-opacity="0.200000" d="M857.25,-102.04C900.88,-99.15 991.05,-94.71 1067,-101 1070.8,-101.31 1074.72,-101.74 1078.65,-102.24"/>
<polygon fill="#000000" fill-opacity="0.200000" stroke="#000000" stroke-width="2" stroke-opacity="0.200000" points="1084.54,-105.15 1078.88,-102.27 1085.11,-100.99 1084.54,-105.15"/>
</g>
<!-- src/lib/interfaces/EventTypes.ts -->
<g id="node20" class="node">
<title>src/lib/interfaces/EventTypes.ts</title>
<g id="a_node20"><a xlink:href="src/lib/interfaces/EventTypes.ts" xlink:title="EventTypes.ts">
<path fill="#ddfeff" stroke="black" d="M1031,-50C1031,-50 964,-50 964,-50 961,-50 958,-47 958,-44 958,-44 958,-38 958,-38 958,-35 961,-32 964,-32 964,-32 1031,-32 1031,-32 1034,-32 1037,-35 1037,-38 1037,-38 1037,-44 1037,-44 1037,-47 1034,-50 1031,-50"/>
<text text-anchor="start" x="966" y="-38.8" font-family="Helvetica,sans-Serif" font-size="9.00">EventTypes.ts</text>
</a>
</g>
</g>
<!-- src/lib/interfaces/index.ts&#45;&gt;src/lib/interfaces/EventTypes.ts -->
<g id="edge35" class="edge">
<title>src/lib/interfaces/index.ts&#45;&gt;src/lib/interfaces/EventTypes.ts</title>
<path fill="none" stroke="#000000" stroke-width="2" stroke-opacity="0.200000" d="M848.13,-94.92C867.22,-85.07 899.18,-69.38 928,-59 935.56,-56.28 943.72,-53.77 951.69,-51.55"/>
<polygon fill="#000000" fill-opacity="0.200000" stroke="#000000" stroke-width="2" stroke-opacity="0.200000" points="958.28,-51.93 951.94,-51.48 957.18,-47.88 958.28,-51.93"/>
</g>
<!-- src/lib/interfaces/index.ts&#45;&gt;src/lib/interfaces/TerradrawMode.ts -->
<g id="edge39" class="edge">
<title>src/lib/interfaces/index.ts&#45;&gt;src/lib/interfaces/TerradrawMode.ts</title>
<path fill="none" stroke="#000000" stroke-width="2" stroke-opacity="0.200000" d="M857.26,-103.76C914.8,-103.39 1048.35,-103.49 1067,-112 1074.72,-115.53 1072.83,-121.45 1080,-126 1081.92,-127.22 1083.95,-128.35 1086.04,-129.39"/>
<polygon fill="#000000" fill-opacity="0.200000" stroke="#000000" stroke-width="2" stroke-opacity="0.200000" points="1090.84,-133.87 1086.24,-129.48 1092.57,-130.04 1090.84,-133.87"/>
</g>
<!-- src/lib/interfaces/index.ts&#45;&gt;src/lib/interfaces/TerradrawModeClass.ts -->
<g id="edge40" class="edge">
<title>src/lib/interfaces/index.ts&#45;&gt;src/lib/interfaces/TerradrawModeClass.ts</title>
<path fill="none" stroke="#000000" stroke-width="2" stroke-opacity="0.200000" d="M857.15,-96.79C876.57,-91.68 903.76,-85.05 928,-81 982.46,-71.9 1123.26,-49.66 1176,-66 1198.53,-72.98 1220.28,-89.78 1233.75,-101.76"/>
<polygon fill="#000000" fill-opacity="0.200000" stroke="#000000" stroke-width="2" stroke-opacity="0.200000" points="1236.91,-107.48 1233.89,-101.89 1239.74,-104.38 1236.91,-107.48"/>
</g>
<!-- src/lib/controls/MaplibreTerradrawControl.ts&#45;&gt;src/lib/constants/index.ts -->
<g id="edge12" class="edge">
<title>src/lib/controls/MaplibreTerradrawControl.ts&#45;&gt;src/lib/constants/index.ts</title>
<path fill="none" stroke="#000000" stroke-width="2" stroke-opacity="0.200000" d="M388.02,-161.22C400,-180.26 430.43,-223.69 469,-242 508.48,-260.75 621.47,-254.15 665,-258 668.03,-258.27 671.19,-258.55 674.34,-258.85"/>
<polygon fill="#000000" fill-opacity="0.200000" stroke="#000000" stroke-width="2" stroke-opacity="0.200000" points="674.62,-260.98 680.79,-259.45 675.01,-256.8 674.62,-260.98"/>
</g>
<!-- src/lib/controls/MaplibreTerradrawControl.ts&#45;&gt;src/lib/helpers/index.ts -->
<g id="edge13" class="edge">
<title>src/lib/controls/MaplibreTerradrawControl.ts&#45;&gt;src/lib/helpers/index.ts</title>
<path fill="none" stroke="#000000" stroke-width="2" stroke-opacity="0.200000" d="M453.29,-149.06C459.33,-148.81 465.22,-148.57 470.72,-148.34"/>
<polygon fill="#000000" fill-opacity="0.200000" stroke="#000000" stroke-width="2" stroke-opacity="0.200000" points="471.06,-150.43 476.97,-148.08 470.89,-146.23 471.06,-150.43"/>
</g>
<!-- src/lib/controls/MaplibreTerradrawControl.ts&#45;&gt;src/lib/interfaces/index.ts -->
<g id="edge14" class="edge">
<title>src/lib/controls/MaplibreTerradrawControl.ts&#45;&gt;src/lib/interfaces/index.ts</title>
<path fill="none" stroke="#000000" stroke-opacity="0.200000" d="M405.21,-142.87C422.42,-136.39 446.81,-128.14 469,-124 484.95,-121.03 711.15,-109.75 796.62,-105.57"/>
<polygon fill="none" stroke="#000000" stroke-opacity="0.200000" points="796.87,-107.66 802.77,-105.27 796.67,-103.47 796.87,-107.66"/>
</g>
<!-- src/lib/controls/index.ts -->
<g id="node13" class="node">
<title>src/lib/controls/index.ts</title>
<g id="a_node13"><a xlink:href="src/lib/controls/index.ts" xlink:title="index.ts">
<path fill="#ddfeff" stroke="black" d="M142,-147C142,-147 100,-147 100,-147 97,-147 94,-144 94,-141 94,-141 94,-135 94,-135 94,-132 97,-129 100,-129 100,-129 142,-129 142,-129 145,-129 148,-132 148,-135 148,-135 148,-141 148,-141 148,-144 145,-147 142,-147"/>
<text text-anchor="start" x="102.5" y="-135.8" font-family="Helvetica,sans-Serif" font-size="9.00">index.ts</text>
</a>
</g>
</g>
<!-- src/lib/controls/index.ts&#45;&gt;src/lib/controls/MaplibreMeasureControl.ts -->
<g id="edge15" class="edge">
<title>src/lib/controls/index.ts&#45;&gt;src/lib/controls/MaplibreMeasureControl.ts</title>
<path fill="none" stroke="#000000" stroke-width="2" stroke-opacity="0.200000" d="M148.2,-138C150.16,-138 152.19,-138 154.27,-138"/>
<polygon fill="#000000" fill-opacity="0.200000" stroke="#000000" stroke-width="2" stroke-opacity="0.200000" points="160.64,-140.1 154.64,-138 160.64,-135.9 160.64,-140.1"/>
</g>
<!-- src/lib/controls/index.ts&#45;&gt;src/lib/controls/MaplibreTerradrawControl.ts -->
<g id="edge16" class="edge">
<title>src/lib/controls/index.ts&#45;&gt;src/lib/controls/MaplibreTerradrawControl.ts</title>
<path fill="none" stroke="#000000" stroke-width="2" stroke-opacity="0.200000" d="M141.43,-147.08C147.56,-149.5 154.44,-151.78 161,-153 207.78,-161.69 261.14,-161.66 303.54,-159.36"/>
<polygon fill="#000000" fill-opacity="0.200000" stroke="#000000" stroke-width="2" stroke-opacity="0.200000" points="309.84,-161.1 303.72,-159.35 309.59,-156.9 309.84,-161.1"/>
</g>
<!-- src/lib/helpers/cleanMaplibreStyle.ts&#45;&gt;src/lib/constants/index.ts -->
<g id="edge17" class="edge">
<title>src/lib/helpers/cleanMaplibreStyle.ts&#45;&gt;src/lib/constants/index.ts</title>
<path fill="none" stroke="#000000" stroke-width="2" stroke-opacity="0.200000" d="M654.97,-183.09C658.52,-184.74 661.91,-186.7 665,-189 684.46,-203.5 696.34,-229.88 702.29,-246.64"/>
<polygon fill="#000000" fill-opacity="0.200000" stroke="#000000" stroke-width="2" stroke-opacity="0.200000" points="700.44,-247.74 704.35,-252.76 704.43,-246.4 700.44,-247.74"/>
</g>
<!-- src/lib/index.ts -->
<g id="node17" class="node">
<title>src/lib/index.ts</title>
<g id="a_node17"><a xlink:href="src/lib/index.ts" xlink:title="index.ts">
<path fill="#ddfeff" stroke="black" d="M72,-129C72,-129 30,-129 30,-129 27,-129 24,-126 24,-123 24,-123 24,-117 24,-117 24,-114 27,-111 30,-111 30,-111 72,-111 72,-111 75,-111 78,-114 78,-117 78,-117 78,-123 78,-123 78,-126 75,-129 72,-129"/>
<text text-anchor="start" x="32.5" y="-117.8" font-family="Helvetica,sans-Serif" font-size="9.00">index.ts</text>
</a>
</g>
</g>
<!-- src/lib/index.ts&#45;&gt;src/lib/constants/index.ts -->
<g id="edge21" class="edge">
<title>src/lib/index.ts&#45;&gt;src/lib/constants/index.ts</title>
<path fill="none" stroke="#000000" stroke-width="2" stroke-opacity="0.200000" d="M54.58,-129.14C59.02,-143.5 69.25,-171.63 86,-190 135.71,-244.53 154.22,-276 228,-276 228,-276 228,-276 505,-276 565.06,-276 634.93,-269.76 674.76,-265.62"/>
<polygon fill="#000000" fill-opacity="0.200000" stroke="#000000" stroke-width="2" stroke-opacity="0.200000" points="681.11,-267.06 674.92,-265.6 680.67,-262.88 681.11,-267.06"/>
</g>
<!-- src/lib/index.ts&#45;&gt;src/lib/helpers/index.ts -->
<g id="edge23" class="edge">
<title>src/lib/index.ts&#45;&gt;src/lib/helpers/index.ts</title>
<path fill="none" stroke="#000000" stroke-width="2" stroke-opacity="0.200000" d="M78.14,-116.37C157.94,-105.83 396.9,-78.38 461,-118 467.76,-122.18 463.11,-128.66 469,-134 469.88,-134.8 470.81,-135.54 471.78,-136.25"/>
<polygon fill="#000000" fill-opacity="0.200000" stroke="#000000" stroke-width="2" stroke-opacity="0.200000" points="475.83,-141.2 471.82,-136.27 478.03,-137.63 475.83,-141.2"/>
</g>
<!-- src/lib/index.ts&#45;&gt;src/lib/interfaces/index.ts -->
<g id="edge24" class="edge">
<title>src/lib/index.ts&#45;&gt;src/lib/interfaces/index.ts</title>
<path fill="none" stroke="#000000" stroke-width="2" stroke-opacity="0.200000" d="M70.01,-110.97C75.08,-108.73 80.67,-106.54 86,-105 147.08,-87.4 164.44,-88 228,-88 228,-88 228,-88 601.5,-88 671.13,-88 752.45,-95.55 796.54,-100.28"/>
<polygon fill="#000000" fill-opacity="0.200000" stroke="#000000" stroke-width="2" stroke-opacity="0.200000" points="802.54,-103.04 796.8,-100.31 803,-98.87 802.54,-103.04"/>
</g>
<!-- src/lib/index.ts&#45;&gt;src/lib/controls/index.ts -->
<g id="edge22" class="edge">
<title>src/lib/index.ts&#45;&gt;src/lib/controls/index.ts</title>
<path fill="none" stroke="#000000" stroke-width="2" stroke-opacity="0.200000" d="M78.1,-126.91C81.28,-127.75 84.56,-128.62 87.82,-129.48"/>
<polygon fill="#000000" fill-opacity="0.200000" stroke="#000000" stroke-width="2" stroke-opacity="0.200000" points="93.1,-133.05 87.84,-129.49 94.17,-128.99 93.1,-133.05"/>
</g>
<!-- src/lib/interfaces/TerradrawMode.ts&#45;&gt;src/lib/constants/AvailableModes.ts -->
<g id="edge32" class="edge">
<title>src/lib/interfaces/TerradrawMode.ts&#45;&gt;src/lib/constants/AvailableModes.ts</title>
<path fill="none" stroke="#000000" stroke-width="2" stroke-opacity="0.200000" d="M1088.51,-150.11C1085.43,-151.76 1082.54,-153.7 1080,-156 1069.22,-165.75 1077.25,-175.7 1067,-186 1019.41,-233.82 972.14,-195.98 928,-247 919.25,-257.11 929.92,-267.04 920,-276 910.22,-284.83 897.25,-289.48 884.26,-291.74"/>
<polygon fill="#000000" fill-opacity="0.200000" stroke="#000000" stroke-width="2" stroke-opacity="0.200000" points="883.92,-289.66 878.29,-292.61 884.53,-293.82 883.92,-289.66"/>
</g>
</g>
</svg>
