<?xml version="1.0" encoding="UTF-8" standalone="no"?>
<!DOCTYPE svg PUBLIC "-//W3C//DTD SVG 1.1//EN"
 "http://www.w3.org/Graphics/SVG/1.1/DTD/svg11.dtd">
<!-- Generated by graphviz version 12.2.1 (20241206.2353)
 -->
<!-- Title: dependency&#45;cruiser output Pages: 1 -->
<svg width="1165pt" height="468pt"
 viewBox="0.00 0.00 1165.25 468.00" xmlns="http://www.w3.org/2000/svg" xmlns:xlink="http://www.w3.org/1999/xlink">
<g id="graph0" class="graph" transform="scale(1 1) rotate(0) translate(4 464)">
<title>dependency&#45;cruiser output</title>
<polygon fill="white" stroke="none" points="-4,4 -4,-464 1161.25,-464 1161.25,4 -4,4"/>
<g id="clust1" class="cluster">
<title>cluster_src</title>
<path fill="#ffffff" stroke="black" stroke-width="2" d="M20,-8C20,-8 1137.25,-8 1137.25,-8 1143.25,-8 1149.25,-14 1149.25,-20 1149.25,-20 1149.25,-440 1149.25,-440 1149.25,-446 1143.25,-452 1137.25,-452 1137.25,-452 20,-452 20,-452 14,-452 8,-446 8,-440 8,-440 8,-20 8,-20 8,-14 14,-8 20,-8"/>
<text text-anchor="middle" x="578.62" y="-439.45" font-family="Helvetica,sans-Serif" font-weight="bold" font-size="9.00">src</text>
</g>
<g id="clust2" class="cluster">
<title>cluster_src/lib</title>
<path fill="#ffffff" stroke="black" stroke-width="2" d="M28,-16C28,-16 1129.25,-16 1129.25,-16 1135.25,-16 1141.25,-22 1141.25,-28 1141.25,-28 1141.25,-414 1141.25,-414 1141.25,-420 1135.25,-426 1129.25,-426 1129.25,-426 28,-426 28,-426 22,-426 16,-420 16,-414 16,-414 16,-28 16,-28 16,-22 22,-16 28,-16"/>
<text text-anchor="middle" x="578.62" y="-413.45" font-family="Helvetica,sans-Serif" font-weight="bold" font-size="9.00">lib</text>
</g>
<g id="clust3" class="cluster">
<title>cluster_src/lib/constants</title>
<path fill="#ffffff" stroke="black" stroke-width="2" d="M656,-228C656,-228 865.25,-228 865.25,-228 871.25,-228 877.25,-234 877.25,-240 877.25,-240 877.25,-388 877.25,-388 877.25,-394 871.25,-400 865.25,-400 865.25,-400 656,-400 656,-400 650,-400 644,-394 644,-388 644,-388 644,-240 644,-240 644,-234 650,-228 656,-228"/>
<text text-anchor="middle" x="760.62" y="-387.45" font-family="Helvetica,sans-Serif" font-weight="bold" font-size="9.00">constants</text>
</g>
<g id="clust4" class="cluster">
<title>cluster_src/lib/controls</title>
<path fill="#ffffff" stroke="black" stroke-width="2" d="M98,-143C98,-143 429.25,-143 429.25,-143 435.25,-143 441.25,-149 441.25,-155 441.25,-155 441.25,-197 441.25,-197 441.25,-203 435.25,-209 429.25,-209 429.25,-209 98,-209 98,-209 92,-209 86,-203 86,-197 86,-197 86,-155 86,-155 86,-149 92,-143 98,-143"/>
<text text-anchor="middle" x="263.62" y="-196.45" font-family="Helvetica,sans-Serif" font-weight="bold" font-size="9.00">controls</text>
</g>
<g id="clust5" class="cluster">
<title>cluster_src/lib/helpers</title>
<path fill="#ffffff" stroke="black" stroke-width="2" d="M461.25,-149C461.25,-149 624,-149 624,-149 630,-149 636,-155 636,-161 636,-161 636,-249 636,-249 636,-255 630,-261 624,-261 624,-261 461.25,-261 461.25,-261 455.25,-261 449.25,-255 449.25,-249 449.25,-249 449.25,-161 449.25,-161 449.25,-155 455.25,-149 461.25,-149"/>
<text text-anchor="middle" x="542.62" y="-248.45" font-family="Helvetica,sans-Serif" font-weight="bold" font-size="9.00">helpers</text>
</g>
<g id="clust6" class="cluster">
<title>cluster_src/lib/interfaces</title>
<path fill="#ffffff" stroke="black" stroke-width="2" d="M656,-24C656,-24 1121.25,-24 1121.25,-24 1127.25,-24 1133.25,-30 1133.25,-36 1133.25,-36 1133.25,-208 1133.25,-208 1133.25,-214 1127.25,-220 1121.25,-220 1121.25,-220 656,-220 656,-220 650,-220 644,-214 644,-208 644,-208 644,-36 644,-36 644,-30 650,-24 656,-24"/>
<text text-anchor="middle" x="888.62" y="-207.45" font-family="Helvetica,sans-Serif" font-weight="bold" font-size="9.00">interfaces</text>
</g>
<!-- src/lib/constants/AvailableMeasureModes.ts -->
<g id="node1" class="node">
<title>src/lib/constants/AvailableMeasureModes.ts</title>
<g id="a_node1"><a xlink:href="src/lib/constants/AvailableMeasureModes.ts" xlink:title="AvailableMeasureModes.ts">
<path fill="#ddfeff" stroke="black" d="M851.71,-283.88C851.71,-283.88 736.54,-283.88 736.54,-283.88 733.58,-283.88 730.62,-280.92 730.62,-277.96 730.62,-277.96 730.62,-272.04 730.62,-272.04 730.62,-269.08 733.58,-266.12 736.54,-266.12 736.54,-266.12 851.71,-266.12 851.71,-266.12 854.67,-266.12 857.62,-269.08 857.62,-272.04 857.62,-272.04 857.62,-277.96 857.62,-277.96 857.62,-280.92 854.67,-283.88 851.71,-283.88"/>
<text text-anchor="start" x="738.62" y="-271.32" font-family="Helvetica,sans-Serif" font-size="9.00">AvailableMeasureModes.ts</text>
</a>
</g>
</g>
<!-- src/lib/constants/AvailableModes.ts -->
<g id="node2" class="node">
<title>src/lib/constants/AvailableModes.ts</title>
<g id="a_node2"><a xlink:href="src/lib/constants/AvailableModes.ts" xlink:title="AvailableModes.ts">
<path fill="#ddfeff" stroke="black" d="M833.71,-343.88C833.71,-343.88 754.54,-343.88 754.54,-343.88 751.58,-343.88 748.62,-340.92 748.62,-337.96 748.62,-337.96 748.62,-332.04 748.62,-332.04 748.62,-329.08 751.58,-326.12 754.54,-326.12 754.54,-326.12 833.71,-326.12 833.71,-326.12 836.67,-326.12 839.62,-329.08 839.62,-332.04 839.62,-332.04 839.62,-337.96 839.62,-337.96 839.62,-340.92 836.67,-343.88 833.71,-343.88"/>
<text text-anchor="start" x="756.62" y="-331.32" font-family="Helvetica,sans-Serif" font-size="9.00">AvailableModes.ts</text>
</a>
</g>
</g>
<!-- src/lib/constants/defaultControlOptions.ts -->
<g id="node3" class="node">
<title>src/lib/constants/defaultControlOptions.ts</title>
<g id="a_node3"><a xlink:href="src/lib/constants/defaultControlOptions.ts" xlink:title="defaultControlOptions.ts">
<path fill="#ddfeff" stroke="black" d="M845.33,-373.88C845.33,-373.88 742.92,-373.88 742.92,-373.88 739.96,-373.88 737,-370.92 737,-367.96 737,-367.96 737,-362.04 737,-362.04 737,-359.08 739.96,-356.12 742.92,-356.12 742.92,-356.12 845.33,-356.12 845.33,-356.12 848.29,-356.12 851.25,-359.08 851.25,-362.04 851.25,-362.04 851.25,-367.96 851.25,-367.96 851.25,-370.92 848.29,-373.88 845.33,-373.88"/>
<text text-anchor="start" x="745" y="-361.32" font-family="Helvetica,sans-Serif" font-size="9.00">defaultControlOptions.ts</text>
</a>
</g>
</g>
<!-- src/lib/interfaces/TerradrawControlOptions.ts -->
<g id="node4" class="node">
<title>src/lib/interfaces/TerradrawControlOptions.ts</title>
<g id="a_node4"><a xlink:href="src/lib/interfaces/TerradrawControlOptions.ts" xlink:title="TerradrawControlOptions.ts">
<path fill="#ddfeff" stroke="black" d="M852.08,-179.88C852.08,-179.88 736.17,-179.88 736.17,-179.88 733.21,-179.88 730.25,-176.92 730.25,-173.96 730.25,-173.96 730.25,-168.04 730.25,-168.04 730.25,-165.08 733.21,-162.12 736.17,-162.12 736.17,-162.12 852.08,-162.12 852.08,-162.12 855.04,-162.12 858,-165.08 858,-168.04 858,-168.04 858,-173.96 858,-173.96 858,-176.92 855.04,-179.88 852.08,-179.88"/>
<text text-anchor="start" x="738.25" y="-167.32" font-family="Helvetica,sans-Serif" font-size="9.00">TerradrawControlOptions.ts</text>
</a>
</g>
</g>
<!-- src/lib/constants/defaultControlOptions.ts&#45;&gt;src/lib/interfaces/TerradrawControlOptions.ts -->
<g id="edge1" class="edge">
<title>src/lib/constants/defaultControlOptions.ts&#45;&gt;src/lib/interfaces/TerradrawControlOptions.ts</title>
<path fill="none" stroke="#000000" stroke-opacity="0.200000" d="M736.84,-363.69C726.2,-360.33 717.02,-354.32 712.5,-344 707.46,-332.5 707.46,-242.5 712.5,-231 722.2,-208.85 745.01,-193.19 764.07,-183.43"/>
<polygon fill="none" stroke="#000000" stroke-opacity="0.200000" points="764.54,-185.54 769,-181.02 762.69,-181.77 764.54,-185.54"/>
</g>
<!-- src/lib/interfaces/ModeOptions.ts -->
<g id="node8" class="node">
<title>src/lib/interfaces/ModeOptions.ts</title>
<g id="a_node8"><a xlink:href="src/lib/interfaces/ModeOptions.ts" xlink:title="ModeOptions.ts">
<path fill="#ddfeff" stroke="black" d="M976.33,-163.88C976.33,-163.88 908.42,-163.88 908.42,-163.88 905.46,-163.88 902.5,-160.92 902.5,-157.96 902.5,-157.96 902.5,-152.04 902.5,-152.04 902.5,-149.08 905.46,-146.12 908.42,-146.12 908.42,-146.12 976.33,-146.12 976.33,-146.12 979.29,-146.12 982.25,-149.08 982.25,-152.04 982.25,-152.04 982.25,-157.96 982.25,-157.96 982.25,-160.92 979.29,-163.88 976.33,-163.88"/>
<text text-anchor="start" x="910.5" y="-151.32" font-family="Helvetica,sans-Serif" font-size="9.00">ModeOptions.ts</text>
</a>
</g>
</g>
<!-- src/lib/interfaces/TerradrawControlOptions.ts&#45;&gt;src/lib/interfaces/ModeOptions.ts -->
<g id="edge32" class="edge">
<title>src/lib/interfaces/TerradrawControlOptions.ts&#45;&gt;src/lib/interfaces/ModeOptions.ts</title>
<path fill="none" stroke="#000000" stroke-opacity="0.200000" d="M858.42,-164.08C870.58,-162.75 883.11,-161.37 894.63,-160.11"/>
<polygon fill="none" stroke="#000000" stroke-opacity="0.200000" points="894.8,-162.21 900.53,-159.47 894.34,-158.03 894.8,-162.21"/>
</g>
<!-- src/lib/interfaces/TerradrawMode.ts -->
<g id="node24" class="node">
<title>src/lib/interfaces/TerradrawMode.ts</title>
<g id="a_node24"><a xlink:href="src/lib/interfaces/TerradrawMode.ts" xlink:title="TerradrawMode.ts">
<path fill="#ddfeff" stroke="black" d="M981.21,-193.88C981.21,-193.88 903.54,-193.88 903.54,-193.88 900.58,-193.88 897.62,-190.92 897.62,-187.96 897.62,-187.96 897.62,-182.04 897.62,-182.04 897.62,-179.08 900.58,-176.12 903.54,-176.12 903.54,-176.12 981.21,-176.12 981.21,-176.12 984.17,-176.12 987.12,-179.08 987.12,-182.04 987.12,-182.04 987.12,-187.96 987.12,-187.96 987.12,-190.92 984.17,-193.88 981.21,-193.88"/>
<text text-anchor="start" x="905.62" y="-181.32" font-family="Helvetica,sans-Serif" font-size="9.00">TerradrawMode.ts</text>
</a>
</g>
</g>
<!-- src/lib/interfaces/TerradrawControlOptions.ts&#45;&gt;src/lib/interfaces/TerradrawMode.ts -->
<g id="edge33" class="edge">
<title>src/lib/interfaces/TerradrawControlOptions.ts&#45;&gt;src/lib/interfaces/TerradrawMode.ts</title>
<path fill="none" stroke="#000000" stroke-opacity="0.200000" d="M858.42,-177.06C868.98,-178.07 879.82,-179.11 890.04,-180.09"/>
<polygon fill="none" stroke="#000000" stroke-opacity="0.200000" points="889.67,-182.16 895.84,-180.64 890.07,-177.98 889.67,-182.16"/>
</g>
<!-- src/lib/constants/defaultMeasureControlOptions.ts -->
<g id="node5" class="node">
<title>src/lib/constants/defaultMeasureControlOptions.ts</title>
<g id="a_node5"><a xlink:href="src/lib/constants/defaultMeasureControlOptions.ts" xlink:title="defaultMeasureControlOptions.ts">
<path fill="#ddfeff" stroke="black" d="M863.33,-253.88C863.33,-253.88 724.92,-253.88 724.92,-253.88 721.96,-253.88 719,-250.92 719,-247.96 719,-247.96 719,-242.04 719,-242.04 719,-239.08 721.96,-236.12 724.92,-236.12 724.92,-236.12 863.33,-236.12 863.33,-236.12 866.29,-236.12 869.25,-239.08 869.25,-242.04 869.25,-242.04 869.25,-247.96 869.25,-247.96 869.25,-250.92 866.29,-253.88 863.33,-253.88"/>
<text text-anchor="start" x="727" y="-241.32" font-family="Helvetica,sans-Serif" font-size="9.00">defaultMeasureControlOptions.ts</text>
</a>
</g>
</g>
<!-- src/lib/interfaces/MeasureControlOptions.ts -->
<g id="node6" class="node">
<title>src/lib/interfaces/MeasureControlOptions.ts</title>
<g id="a_node6"><a xlink:href="src/lib/interfaces/MeasureControlOptions.ts" xlink:title="MeasureControlOptions.ts">
<path fill="#ddfeff" stroke="black" d="M849.46,-77.88C849.46,-77.88 738.79,-77.88 738.79,-77.88 735.83,-77.88 732.88,-74.92 732.88,-71.96 732.88,-71.96 732.88,-66.04 732.88,-66.04 732.88,-63.08 735.83,-60.12 738.79,-60.12 738.79,-60.12 849.46,-60.12 849.46,-60.12 852.42,-60.12 855.38,-63.08 855.38,-66.04 855.38,-66.04 855.38,-71.96 855.38,-71.96 855.38,-74.92 852.42,-77.88 849.46,-77.88"/>
<text text-anchor="start" x="740.88" y="-65.33" font-family="Helvetica,sans-Serif" font-size="9.00">MeasureControlOptions.ts</text>
</a>
</g>
</g>
<!-- src/lib/constants/defaultMeasureControlOptions.ts&#45;&gt;src/lib/interfaces/MeasureControlOptions.ts -->
<g id="edge2" class="edge">
<title>src/lib/constants/defaultMeasureControlOptions.ts&#45;&gt;src/lib/interfaces/MeasureControlOptions.ts</title>
<path fill="none" stroke="#000000" stroke-opacity="0.200000" d="M730.96,-235.79C722.93,-231.54 716.23,-225.51 712.5,-217 707.46,-205.5 707.46,-115.5 712.5,-104 717.01,-93.69 725.59,-86.41 735.55,-81.28"/>
<polygon fill="none" stroke="#000000" stroke-opacity="0.200000" points="736.31,-83.24 740.89,-78.83 734.56,-79.42 736.31,-83.24"/>
</g>
<!-- src/lib/interfaces/MeasureControlOptions.ts&#45;&gt;src/lib/interfaces/ModeOptions.ts -->
<g id="edge30" class="edge">
<title>src/lib/interfaces/MeasureControlOptions.ts&#45;&gt;src/lib/interfaces/ModeOptions.ts</title>
<path fill="none" stroke="#000000" stroke-opacity="0.200000" d="M855.69,-73.99C863.7,-76.89 871.22,-81.06 877.25,-87 888.31,-97.89 876.12,-108.44 885.25,-121 891.73,-129.91 901.32,-136.94 910.75,-142.24"/>
<polygon fill="none" stroke="#000000" stroke-opacity="0.200000" points="909.58,-144 915.87,-144.93 911.53,-140.28 909.58,-144"/>
</g>
<!-- src/lib/interfaces/AreaUnit.ts -->
<g id="node19" class="node">
<title>src/lib/interfaces/AreaUnit.ts</title>
<g id="a_node19"><a xlink:href="src/lib/interfaces/AreaUnit.ts" xlink:title="AreaUnit.ts">
<path fill="#ddfeff" stroke="black" d="M966.96,-114.88C966.96,-114.88 917.79,-114.88 917.79,-114.88 914.83,-114.88 911.88,-111.92 911.88,-108.96 911.88,-108.96 911.88,-103.04 911.88,-103.04 911.88,-100.08 914.83,-97.12 917.79,-97.12 917.79,-97.12 966.96,-97.12 966.96,-97.12 969.92,-97.12 972.88,-100.08 972.88,-103.04 972.88,-103.04 972.88,-108.96 972.88,-108.96 972.88,-111.92 969.92,-114.88 966.96,-114.88"/>
<text text-anchor="start" x="919.88" y="-102.33" font-family="Helvetica,sans-Serif" font-size="9.00">AreaUnit.ts</text>
</a>
</g>
</g>
<!-- src/lib/interfaces/MeasureControlOptions.ts&#45;&gt;src/lib/interfaces/AreaUnit.ts -->
<g id="edge27" class="edge">
<title>src/lib/interfaces/MeasureControlOptions.ts&#45;&gt;src/lib/interfaces/AreaUnit.ts</title>
<path fill="none" stroke="#000000" stroke-opacity="0.200000" d="M840.45,-78.32C852.45,-80.96 865.38,-83.94 877.25,-87 886.12,-89.28 895.62,-91.96 904.51,-94.58"/>
<polygon fill="none" stroke="#000000" stroke-opacity="0.200000" points="903.69,-96.53 910.04,-96.23 904.88,-92.5 903.69,-96.53"/>
</g>
<!-- src/lib/interfaces/DistanceUnit.ts -->
<g id="node20" class="node">
<title>src/lib/interfaces/DistanceUnit.ts</title>
<g id="a_node20"><a xlink:href="src/lib/interfaces/DistanceUnit.ts" xlink:title="DistanceUnit.ts">
<path fill="#ddfeff" stroke="black" d="M975.21,-49.88C975.21,-49.88 909.54,-49.88 909.54,-49.88 906.58,-49.88 903.62,-46.92 903.62,-43.96 903.62,-43.96 903.62,-38.04 903.62,-38.04 903.62,-35.08 906.58,-32.12 909.54,-32.12 909.54,-32.12 975.21,-32.12 975.21,-32.12 978.17,-32.12 981.12,-35.08 981.12,-38.04 981.12,-38.04 981.12,-43.96 981.12,-43.96 981.12,-46.92 978.17,-49.88 975.21,-49.88"/>
<text text-anchor="start" x="911.62" y="-37.33" font-family="Helvetica,sans-Serif" font-size="9.00">DistanceUnit.ts</text>
</a>
</g>
</g>
<!-- src/lib/interfaces/MeasureControlOptions.ts&#45;&gt;src/lib/interfaces/DistanceUnit.ts -->
<g id="edge28" class="edge">
<title>src/lib/interfaces/MeasureControlOptions.ts&#45;&gt;src/lib/interfaces/DistanceUnit.ts</title>
<path fill="none" stroke="#000000" stroke-opacity="0.200000" d="M843.82,-59.68C860.84,-56.42 879.84,-52.78 896.53,-49.59"/>
<polygon fill="none" stroke="#000000" stroke-opacity="0.200000" points="896.54,-51.72 902.04,-48.53 895.75,-47.6 896.54,-51.72"/>
</g>
<!-- src/lib/interfaces/MeasureControlMode.ts -->
<g id="node22" class="node">
<title>src/lib/interfaces/MeasureControlMode.ts</title>
<g id="a_node22"><a xlink:href="src/lib/interfaces/MeasureControlMode.ts" xlink:title="MeasureControlMode.ts">
<path fill="#ddfeff" stroke="black" d="M993.58,-79.88C993.58,-79.88 891.17,-79.88 891.17,-79.88 888.21,-79.88 885.25,-76.92 885.25,-73.96 885.25,-73.96 885.25,-68.04 885.25,-68.04 885.25,-65.08 888.21,-62.12 891.17,-62.12 891.17,-62.12 993.58,-62.12 993.58,-62.12 996.54,-62.12 999.5,-65.08 999.5,-68.04 999.5,-68.04 999.5,-73.96 999.5,-73.96 999.5,-76.92 996.54,-79.88 993.58,-79.88"/>
<text text-anchor="start" x="893.25" y="-67.33" font-family="Helvetica,sans-Serif" font-size="9.00">MeasureControlMode.ts</text>
</a>
</g>
</g>
<!-- src/lib/interfaces/MeasureControlOptions.ts&#45;&gt;src/lib/interfaces/MeasureControlMode.ts -->
<g id="edge29" class="edge">
<title>src/lib/interfaces/MeasureControlOptions.ts&#45;&gt;src/lib/interfaces/MeasureControlMode.ts</title>
<path fill="none" stroke="#000000" stroke-opacity="0.200000" d="M855.45,-69.83C862.77,-69.93 870.27,-70.03 877.63,-70.13"/>
<polygon fill="none" stroke="#000000" stroke-opacity="0.200000" points="877.4,-72.23 883.43,-70.21 877.46,-68.03 877.4,-72.23"/>
</g>
<!-- src/lib/constants/getDefaultModeOptions.ts -->
<g id="node7" class="node">
<title>src/lib/constants/getDefaultModeOptions.ts</title>
<g id="a_node7"><a xlink:href="src/lib/constants/getDefaultModeOptions.ts" xlink:title="getDefaultModeOptions.ts">
<path fill="#ddfeff" stroke="black" d="M849.08,-313.88C849.08,-313.88 739.17,-313.88 739.17,-313.88 736.21,-313.88 733.25,-310.92 733.25,-307.96 733.25,-307.96 733.25,-302.04 733.25,-302.04 733.25,-299.08 736.21,-296.12 739.17,-296.12 739.17,-296.12 849.08,-296.12 849.08,-296.12 852.04,-296.12 855,-299.08 855,-302.04 855,-302.04 855,-307.96 855,-307.96 855,-310.92 852.04,-313.88 849.08,-313.88"/>
<text text-anchor="start" x="741.25" y="-301.32" font-family="Helvetica,sans-Serif" font-size="9.00">getDefaultModeOptions.ts</text>
</a>
</g>
</g>
<!-- src/lib/constants/getDefaultModeOptions.ts&#45;&gt;src/lib/interfaces/ModeOptions.ts -->
<g id="edge3" class="edge">
<title>src/lib/constants/getDefaultModeOptions.ts&#45;&gt;src/lib/interfaces/ModeOptions.ts</title>
<path fill="none" stroke="#000000" stroke-opacity="0.200000" d="M855.24,-303.63C863.62,-300.9 871.36,-296.6 877.25,-290 895.04,-270.06 868.28,-190.64 885.25,-170 888.04,-166.61 891.51,-163.93 895.34,-161.83"/>
<polygon fill="none" stroke="#000000" stroke-opacity="0.200000" points="896.07,-163.8 900.69,-159.43 894.36,-159.97 896.07,-163.8"/>
</g>
<!-- src/lib/interfaces/TerradrawModeClass.ts -->
<g id="node23" class="node">
<title>src/lib/interfaces/TerradrawModeClass.ts</title>
<g id="a_node23"><a xlink:href="src/lib/interfaces/TerradrawModeClass.ts" xlink:title="TerradrawModeClass.ts">
<path fill="#ddfeff" stroke="black" d="M1119.33,-152.88C1119.33,-152.88 1018.42,-152.88 1018.42,-152.88 1015.46,-152.88 1012.5,-149.92 1012.5,-146.96 1012.5,-146.96 1012.5,-141.04 1012.5,-141.04 1012.5,-138.08 1015.46,-135.12 1018.42,-135.12 1018.42,-135.12 1119.33,-135.12 1119.33,-135.12 1122.29,-135.12 1125.25,-138.08 1125.25,-141.04 1125.25,-141.04 1125.25,-146.96 1125.25,-146.96 1125.25,-149.92 1122.29,-152.88 1119.33,-152.88"/>
<text text-anchor="start" x="1020.5" y="-140.32" font-family="Helvetica,sans-Serif" font-size="9.00">TerradrawModeClass.ts</text>
</a>
</g>
</g>
<!-- src/lib/interfaces/ModeOptions.ts&#45;&gt;src/lib/interfaces/TerradrawModeClass.ts -->
<g id="edge31" class="edge">
<title>src/lib/interfaces/ModeOptions.ts&#45;&gt;src/lib/interfaces/TerradrawModeClass.ts</title>
<path fill="none" stroke="#000000" stroke-opacity="0.200000" d="M982.43,-151.55C989.63,-150.91 997.32,-150.23 1005.03,-149.55"/>
<polygon fill="none" stroke="#000000" stroke-opacity="0.200000" points="1004.79,-151.68 1010.58,-149.06 1004.42,-147.5 1004.79,-151.68"/>
</g>
<!-- src/lib/constants/index.ts -->
<g id="node9" class="node">
<title>src/lib/constants/index.ts</title>
<g id="a_node9"><a xlink:href="src/lib/constants/index.ts" xlink:title="index.ts">
<path fill="#ddfeff" stroke="black" d="M700.08,-292.88C700.08,-292.88 657.92,-292.88 657.92,-292.88 654.96,-292.88 652,-289.92 652,-286.96 652,-286.96 652,-281.04 652,-281.04 652,-278.08 654.96,-275.12 657.92,-275.12 657.92,-275.12 700.08,-275.12 700.08,-275.12 703.04,-275.12 706,-278.08 706,-281.04 706,-281.04 706,-286.96 706,-286.96 706,-289.92 703.04,-292.88 700.08,-292.88"/>
<text text-anchor="start" x="663.25" y="-280.32" font-family="Helvetica,sans-Serif" font-size="9.00">index.ts</text>
</a>
</g>
</g>
<!-- src/lib/constants/index.ts&#45;&gt;src/lib/constants/AvailableMeasureModes.ts -->
<g id="edge4" class="edge">
<title>src/lib/constants/index.ts&#45;&gt;src/lib/constants/AvailableMeasureModes.ts</title>
<path fill="none" stroke="#000000" stroke-width="2" stroke-opacity="0.200000" d="M706.24,-281.91C711.49,-281.49 717.24,-281.04 723.2,-280.56"/>
<polygon fill="#000000" fill-opacity="0.200000" stroke="#000000" stroke-width="2" stroke-opacity="0.200000" points="729.45,-282.17 723.3,-280.56 729.11,-277.99 729.45,-282.17"/>
</g>
<!-- src/lib/constants/index.ts&#45;&gt;src/lib/constants/AvailableModes.ts -->
<g id="edge5" class="edge">
<title>src/lib/constants/index.ts&#45;&gt;src/lib/constants/AvailableModes.ts</title>
<path fill="none" stroke="#000000" stroke-width="2" stroke-opacity="0.200000" d="M687.34,-293.19C694.52,-301.52 706.2,-313.46 719,-320 726.03,-323.59 733.85,-326.33 741.7,-328.41"/>
<polygon fill="#000000" fill-opacity="0.200000" stroke="#000000" stroke-width="2" stroke-opacity="0.200000" points="746.82,-331.81 741.48,-328.35 747.81,-327.73 746.82,-331.81"/>
</g>
<!-- src/lib/constants/index.ts&#45;&gt;src/lib/constants/defaultControlOptions.ts -->
<g id="edge6" class="edge">
<title>src/lib/constants/index.ts&#45;&gt;src/lib/constants/defaultControlOptions.ts</title>
<path fill="none" stroke="#000000" stroke-width="2" stroke-opacity="0.200000" d="M682.78,-293.36C687.63,-307.92 699.05,-335.8 719,-350 722.51,-352.5 726.34,-354.6 730.35,-356.37"/>
<polygon fill="#000000" fill-opacity="0.200000" stroke="#000000" stroke-width="2" stroke-opacity="0.200000" points="735.07,-360.48 730.25,-356.33 736.6,-356.57 735.07,-360.48"/>
</g>
<!-- src/lib/constants/index.ts&#45;&gt;src/lib/constants/defaultMeasureControlOptions.ts -->
<g id="edge7" class="edge">
<title>src/lib/constants/index.ts&#45;&gt;src/lib/constants/defaultMeasureControlOptions.ts</title>
<path fill="none" stroke="#000000" stroke-width="2" stroke-opacity="0.200000" d="M692.4,-274.8C699.78,-269.73 709.53,-263.73 719,-260 722.44,-258.65 726.01,-257.41 729.65,-256.28"/>
<polygon fill="#000000" fill-opacity="0.200000" stroke="#000000" stroke-width="2" stroke-opacity="0.200000" points="735.89,-256.65 729.55,-256.31 734.72,-252.62 735.89,-256.65"/>
</g>
<!-- src/lib/constants/index.ts&#45;&gt;src/lib/constants/getDefaultModeOptions.ts -->
<g id="edge8" class="edge">
<title>src/lib/constants/index.ts&#45;&gt;src/lib/constants/getDefaultModeOptions.ts</title>
<path fill="none" stroke="#000000" stroke-width="2" stroke-opacity="0.200000" d="M706.24,-288.87C715.23,-290.54 725.68,-292.48 736.15,-294.42"/>
<polygon fill="#000000" fill-opacity="0.200000" stroke="#000000" stroke-width="2" stroke-opacity="0.200000" points="741.65,-297.58 736.13,-294.42 742.41,-293.45 741.65,-297.58"/>
</g>
<!-- src/lib/controls/MaplibreMeasureControl.ts -->
<g id="node10" class="node">
<title>src/lib/controls/MaplibreMeasureControl.ts</title>
<g id="a_node10"><a xlink:href="src/lib/controls/MaplibreMeasureControl.ts" xlink:title="MaplibreMeasureControl.ts">
<path fill="#ddfeff" stroke="black" d="M282.08,-168.88C282.08,-168.88 166.92,-168.88 166.92,-168.88 163.96,-168.88 161,-165.92 161,-162.96 161,-162.96 161,-157.04 161,-157.04 161,-154.08 163.96,-151.12 166.92,-151.12 166.92,-151.12 282.08,-151.12 282.08,-151.12 285.04,-151.12 288,-154.08 288,-157.04 288,-157.04 288,-162.96 288,-162.96 288,-165.92 285.04,-168.88 282.08,-168.88"/>
<text text-anchor="start" x="169" y="-156.32" font-family="Helvetica,sans-Serif" font-size="9.00">MaplibreMeasureControl.ts</text>
</a>
</g>
</g>
<!-- src/lib/controls/MaplibreMeasureControl.ts&#45;&gt;src/lib/constants/index.ts -->
<g id="edge9" class="edge">
<title>src/lib/controls/MaplibreMeasureControl.ts&#45;&gt;src/lib/constants/index.ts</title>
<path fill="none" stroke="#000000" stroke-width="2" stroke-opacity="0.200000" d="M280.86,-169.27C283.33,-170.38 285.73,-171.62 288,-173 295.83,-177.76 294.02,-183.07 301,-189 358.87,-238.19 376.55,-252.02 449.25,-274 481.23,-283.67 490.88,-277.35 524.25,-279 564.91,-281.02 611.67,-282.4 642.84,-283.2"/>
<polygon fill="#000000" fill-opacity="0.200000" stroke="#000000" stroke-width="2" stroke-opacity="0.200000" points="642.52,-285.29 648.57,-283.34 642.63,-281.09 642.52,-285.29"/>
</g>
<!-- src/lib/helpers/index.ts -->
<g id="node11" class="node">
<title>src/lib/helpers/index.ts</title>
<g id="a_node11"><a xlink:href="src/lib/helpers/index.ts" xlink:title="index.ts">
<path fill="#ddfeff" stroke="black" d="M505.33,-177.88C505.33,-177.88 463.17,-177.88 463.17,-177.88 460.21,-177.88 457.25,-174.92 457.25,-171.96 457.25,-171.96 457.25,-166.04 457.25,-166.04 457.25,-163.08 460.21,-160.12 463.17,-160.12 463.17,-160.12 505.33,-160.12 505.33,-160.12 508.29,-160.12 511.25,-163.08 511.25,-166.04 511.25,-166.04 511.25,-171.96 511.25,-171.96 511.25,-174.92 508.29,-177.88 505.33,-177.88"/>
<text text-anchor="start" x="468.5" y="-165.32" font-family="Helvetica,sans-Serif" font-size="9.00">index.ts</text>
</a>
</g>
</g>
<!-- src/lib/controls/MaplibreMeasureControl.ts&#45;&gt;src/lib/helpers/index.ts -->
<g id="edge10" class="edge">
<title>src/lib/controls/MaplibreMeasureControl.ts&#45;&gt;src/lib/helpers/index.ts</title>
<path fill="none" stroke="#000000" stroke-width="2" stroke-opacity="0.200000" d="M288.04,-155.72C331.23,-153.73 389.91,-152.97 441.25,-159 443.46,-159.26 445.73,-159.59 448.01,-159.98"/>
<polygon fill="#000000" fill-opacity="0.200000" stroke="#000000" stroke-width="2" stroke-opacity="0.200000" points="447.49,-162.02 453.79,-161.12 448.3,-157.9 447.49,-162.02"/>
</g>
<!-- src/lib/interfaces/index.ts -->
<g id="node12" class="node">
<title>src/lib/interfaces/index.ts</title>
<g id="a_node12"><a xlink:href="src/lib/interfaces/index.ts" xlink:title="index.ts">
<path fill="#ddfeff" stroke="black" d="M700.08,-128.88C700.08,-128.88 657.92,-128.88 657.92,-128.88 654.96,-128.88 652,-125.92 652,-122.96 652,-122.96 652,-117.04 652,-117.04 652,-114.08 654.96,-111.12 657.92,-111.12 657.92,-111.12 700.08,-111.12 700.08,-111.12 703.04,-111.12 706,-114.08 706,-117.04 706,-117.04 706,-122.96 706,-122.96 706,-125.92 703.04,-128.88 700.08,-128.88"/>
<text text-anchor="start" x="663.25" y="-116.33" font-family="Helvetica,sans-Serif" font-size="9.00">index.ts</text>
</a>
</g>
</g>
<!-- src/lib/controls/MaplibreMeasureControl.ts&#45;&gt;src/lib/interfaces/index.ts -->
<g id="edge11" class="edge">
<title>src/lib/controls/MaplibreMeasureControl.ts&#45;&gt;src/lib/interfaces/index.ts</title>
<path fill="none" stroke="#000000" stroke-opacity="0.200000" d="M288.12,-152.51C292.48,-152 296.8,-151.49 301,-151 366.87,-143.3 383.18,-139.81 449.25,-134 518.38,-127.93 599.49,-123.63 644.17,-121.51"/>
<polygon fill="none" stroke="#000000" stroke-opacity="0.200000" points="644.14,-123.61 650.04,-121.23 643.94,-119.42 644.14,-123.61"/>
</g>
<!-- src/lib/controls/MaplibreTerradrawControl.ts -->
<g id="node13" class="node">
<title>src/lib/controls/MaplibreTerradrawControl.ts</title>
<g id="a_node13"><a xlink:href="src/lib/controls/MaplibreTerradrawControl.ts" xlink:title="MaplibreTerradrawControl.ts">
<path fill="#ddfeff" stroke="black" d="M427.33,-182.88C427.33,-182.88 306.92,-182.88 306.92,-182.88 303.96,-182.88 301,-179.92 301,-176.96 301,-176.96 301,-171.04 301,-171.04 301,-168.08 303.96,-165.12 306.92,-165.12 306.92,-165.12 427.33,-165.12 427.33,-165.12 430.29,-165.12 433.25,-168.08 433.25,-171.04 433.25,-171.04 433.25,-176.96 433.25,-176.96 433.25,-179.92 430.29,-182.88 427.33,-182.88"/>
<text text-anchor="start" x="309" y="-170.32" font-family="Helvetica,sans-Serif" font-size="9.00">MaplibreTerradrawControl.ts</text>
</a>
</g>
</g>
<!-- src/lib/controls/MaplibreMeasureControl.ts&#45;&gt;src/lib/controls/MaplibreTerradrawControl.ts -->
<g id="edge12" class="edge">
<title>src/lib/controls/MaplibreMeasureControl.ts&#45;&gt;src/lib/controls/MaplibreTerradrawControl.ts</title>
<path fill="none" stroke="#000000" stroke-width="2" stroke-opacity="0.200000" d="M288.41,-166.26C289.56,-166.38 290.72,-166.49 291.87,-166.61"/>
<polygon fill="#000000" fill-opacity="0.200000" stroke="#000000" stroke-width="2" stroke-opacity="0.200000" points="291.55,-168.69 297.73,-167.19 291.97,-164.51 291.55,-168.69"/>
</g>
<!-- src/lib/helpers/capitalize.ts -->
<g id="node15" class="node">
<title>src/lib/helpers/capitalize.ts</title>
<g id="a_node15"><a xlink:href="src/lib/helpers/capitalize.ts" xlink:title="capitalize.ts">
<path fill="#ddfeff" stroke="black" d="M602.21,-174.88C602.21,-174.88 550.04,-174.88 550.04,-174.88 547.08,-174.88 544.12,-171.92 544.12,-168.96 544.12,-168.96 544.12,-163.04 544.12,-163.04 544.12,-160.08 547.08,-157.12 550.04,-157.12 550.04,-157.12 602.21,-157.12 602.21,-157.12 605.17,-157.12 608.12,-160.08 608.12,-163.04 608.12,-163.04 608.12,-168.96 608.12,-168.96 608.12,-171.92 605.17,-174.88 602.21,-174.88"/>
<text text-anchor="start" x="552.12" y="-162.32" font-family="Helvetica,sans-Serif" font-size="9.00">capitalize.ts</text>
</a>
</g>
</g>
<!-- src/lib/helpers/index.ts&#45;&gt;src/lib/helpers/capitalize.ts -->
<g id="edge19" class="edge">
<title>src/lib/helpers/index.ts&#45;&gt;src/lib/helpers/capitalize.ts</title>
<path fill="none" stroke="#000000" stroke-width="2" stroke-opacity="0.200000" d="M511.73,-168.12C519.58,-167.85 528.33,-167.56 536.77,-167.28"/>
<polygon fill="#000000" fill-opacity="0.200000" stroke="#000000" stroke-width="2" stroke-opacity="0.200000" points="542.83,-169.18 536.77,-167.28 542.69,-164.98 542.83,-169.18"/>
</g>
<!-- src/lib/helpers/cleanMaplibreStyle.ts -->
<g id="node16" class="node">
<title>src/lib/helpers/cleanMaplibreStyle.ts</title>
<g id="a_node16"><a xlink:href="src/lib/helpers/cleanMaplibreStyle.ts" xlink:title="cleanMaplibreStyle.ts">
<path fill="#ddfeff" stroke="black" d="M622.08,-204.88C622.08,-204.88 530.17,-204.88 530.17,-204.88 527.21,-204.88 524.25,-201.92 524.25,-198.96 524.25,-198.96 524.25,-193.04 524.25,-193.04 524.25,-190.08 527.21,-187.12 530.17,-187.12 530.17,-187.12 622.08,-187.12 622.08,-187.12 625.04,-187.12 628,-190.08 628,-193.04 628,-193.04 628,-198.96 628,-198.96 628,-201.92 625.04,-204.88 622.08,-204.88"/>
<text text-anchor="start" x="532.25" y="-192.32" font-family="Helvetica,sans-Serif" font-size="9.00">cleanMaplibreStyle.ts</text>
</a>
</g>
</g>
<!-- src/lib/helpers/index.ts&#45;&gt;src/lib/helpers/cleanMaplibreStyle.ts -->
<g id="edge20" class="edge">
<title>src/lib/helpers/index.ts&#45;&gt;src/lib/helpers/cleanMaplibreStyle.ts</title>
<path fill="none" stroke="#000000" stroke-width="2" stroke-opacity="0.200000" d="M511.67,-177.18C515.88,-178.46 520.18,-179.77 524.25,-181 528.3,-182.22 532.54,-183.49 536.76,-184.74"/>
<polygon fill="#000000" fill-opacity="0.200000" stroke="#000000" stroke-width="2" stroke-opacity="0.200000" points="541.8,-188.43 536.64,-184.71 542.99,-184.4 541.8,-188.43"/>
</g>
<!-- src/lib/helpers/debounce.ts -->
<g id="node17" class="node">
<title>src/lib/helpers/debounce.ts</title>
<g id="a_node17"><a xlink:href="src/lib/helpers/debounce.ts" xlink:title="debounce.ts">
<path fill="#ddfeff" stroke="black" d="M603.33,-234.88C603.33,-234.88 548.92,-234.88 548.92,-234.88 545.96,-234.88 543,-231.92 543,-228.96 543,-228.96 543,-223.04 543,-223.04 543,-220.08 545.96,-217.12 548.92,-217.12 548.92,-217.12 603.33,-217.12 603.33,-217.12 606.29,-217.12 609.25,-220.08 609.25,-223.04 609.25,-223.04 609.25,-228.96 609.25,-228.96 609.25,-231.92 606.29,-234.88 603.33,-234.88"/>
<text text-anchor="start" x="551" y="-222.32" font-family="Helvetica,sans-Serif" font-size="9.00">debounce.ts</text>
</a>
</g>
</g>
<!-- src/lib/helpers/index.ts&#45;&gt;src/lib/helpers/debounce.ts -->
<g id="edge21" class="edge">
<title>src/lib/helpers/index.ts&#45;&gt;src/lib/helpers/debounce.ts</title>
<path fill="none" stroke="#000000" stroke-width="2" stroke-opacity="0.200000" d="M491.37,-178.04C498.27,-187.59 510.38,-202.41 524.25,-211 527.9,-213.26 531.9,-215.19 536.01,-216.84"/>
<polygon fill="#000000" fill-opacity="0.200000" stroke="#000000" stroke-width="2" stroke-opacity="0.200000" points="540.87,-220.85 535.95,-216.82 542.31,-216.9 540.87,-220.85"/>
</g>
<!-- src/lib/interfaces/index.ts&#45;&gt;src/lib/interfaces/TerradrawControlOptions.ts -->
<g id="edge41" class="edge">
<title>src/lib/interfaces/index.ts&#45;&gt;src/lib/interfaces/TerradrawControlOptions.ts</title>
<path fill="none" stroke="#000000" stroke-width="2" stroke-opacity="0.200000" d="M688.42,-129.19C695.79,-136.68 707.14,-146.97 719,-153 724.01,-155.54 729.39,-157.74 734.88,-159.63"/>
<polygon fill="#000000" fill-opacity="0.200000" stroke="#000000" stroke-width="2" stroke-opacity="0.200000" points="739.78,-163.41 734.71,-159.58 741.06,-159.41 739.78,-163.41"/>
</g>
<!-- src/lib/interfaces/index.ts&#45;&gt;src/lib/interfaces/MeasureControlOptions.ts -->
<g id="edge39" class="edge">
<title>src/lib/interfaces/index.ts&#45;&gt;src/lib/interfaces/MeasureControlOptions.ts</title>
<path fill="none" stroke="#000000" stroke-width="2" stroke-opacity="0.200000" d="M688.42,-110.81C695.79,-103.32 707.14,-93.03 719,-87 724.01,-84.46 729.39,-82.26 734.88,-80.37"/>
<polygon fill="#000000" fill-opacity="0.200000" stroke="#000000" stroke-width="2" stroke-opacity="0.200000" points="741.06,-80.59 734.71,-80.42 739.78,-76.59 741.06,-80.59"/>
</g>
<!-- src/lib/interfaces/index.ts&#45;&gt;src/lib/interfaces/ModeOptions.ts -->
<g id="edge40" class="edge">
<title>src/lib/interfaces/index.ts&#45;&gt;src/lib/interfaces/ModeOptions.ts</title>
<path fill="none" stroke="#000000" stroke-width="2" stroke-opacity="0.200000" d="M692.63,-110.67C699.93,-105.86 709.53,-100.49 719,-98 753.01,-89.07 848.59,-77.62 877.25,-98 886.07,-104.27 878.44,-112.59 885.25,-121 892.42,-129.86 902.56,-136.99 912.26,-142.39"/>
<polygon fill="#000000" fill-opacity="0.200000" stroke="#000000" stroke-width="2" stroke-opacity="0.200000" points="916.67,-147.08 912.33,-142.43 918.62,-143.36 916.67,-147.08"/>
</g>
<!-- src/lib/interfaces/index.ts&#45;&gt;src/lib/interfaces/AreaUnit.ts -->
<g id="edge35" class="edge">
<title>src/lib/interfaces/index.ts&#45;&gt;src/lib/interfaces/AreaUnit.ts</title>
<path fill="none" stroke="#000000" stroke-width="2" stroke-opacity="0.200000" d="M706.32,-126.15C710.54,-126.92 714.87,-127.58 719,-128 788.97,-135.1 807.87,-139.57 877.25,-128 889.36,-125.98 902.26,-121.95 913.28,-117.89"/>
<polygon fill="#000000" fill-opacity="0.200000" stroke="#000000" stroke-width="2" stroke-opacity="0.200000" points="919.69,-117.69 913.34,-117.87 918.19,-113.76 919.69,-117.69"/>
</g>
<!-- src/lib/interfaces/index.ts&#45;&gt;src/lib/interfaces/DistanceUnit.ts -->
<g id="edge36" class="edge">
<title>src/lib/interfaces/index.ts&#45;&gt;src/lib/interfaces/DistanceUnit.ts</title>
<path fill="none" stroke="#000000" stroke-width="2" stroke-opacity="0.200000" d="M681.46,-110.69C684.72,-93.54 694.31,-57.34 719,-42 775.58,-6.86 856.89,-18.62 903.9,-30.04"/>
<polygon fill="#000000" fill-opacity="0.200000" stroke="#000000" stroke-width="2" stroke-opacity="0.200000" points="909.1,-33.51 903.79,-30.01 910.12,-29.43 909.1,-33.51"/>
</g>
<!-- src/lib/interfaces/EventTypes.ts -->
<g id="node21" class="node">
<title>src/lib/interfaces/EventTypes.ts</title>
<g id="a_node21"><a xlink:href="src/lib/interfaces/EventTypes.ts" xlink:title="EventTypes.ts">
<path fill="#ddfeff" stroke="black" d="M824.71,-121.88C824.71,-121.88 763.54,-121.88 763.54,-121.88 760.58,-121.88 757.62,-118.92 757.62,-115.96 757.62,-115.96 757.62,-110.04 757.62,-110.04 757.62,-107.08 760.58,-104.12 763.54,-104.12 763.54,-104.12 824.71,-104.12 824.71,-104.12 827.67,-104.12 830.62,-107.08 830.62,-110.04 830.62,-110.04 830.62,-115.96 830.62,-115.96 830.62,-118.92 827.67,-121.88 824.71,-121.88"/>
<text text-anchor="start" x="765.62" y="-109.33" font-family="Helvetica,sans-Serif" font-size="9.00">EventTypes.ts</text>
</a>
</g>
</g>
<!-- src/lib/interfaces/index.ts&#45;&gt;src/lib/interfaces/EventTypes.ts -->
<g id="edge37" class="edge">
<title>src/lib/interfaces/index.ts&#45;&gt;src/lib/interfaces/EventTypes.ts</title>
<path fill="none" stroke="#000000" stroke-width="2" stroke-opacity="0.200000" d="M706.24,-118.38C719.25,-117.57 735.3,-116.58 750.06,-115.66"/>
<polygon fill="#000000" fill-opacity="0.200000" stroke="#000000" stroke-width="2" stroke-opacity="0.200000" points="756.31,-117.38 750.19,-115.66 756.05,-113.19 756.31,-117.38"/>
</g>
<!-- src/lib/interfaces/index.ts&#45;&gt;src/lib/interfaces/MeasureControlMode.ts -->
<g id="edge38" class="edge">
<title>src/lib/interfaces/index.ts&#45;&gt;src/lib/interfaces/MeasureControlMode.ts</title>
<path fill="none" stroke="#000000" stroke-width="2" stroke-opacity="0.200000" d="M682.33,-110.65C686.65,-95.55 697.5,-66.27 719,-54 749.54,-36.57 842.38,-49.46 877.25,-54 877.97,-54.09 887.99,-56.73 899.9,-59.9"/>
<polygon fill="#000000" fill-opacity="0.200000" stroke="#000000" stroke-width="2" stroke-opacity="0.200000" points="905.16,-63.47 899.9,-59.9 906.24,-59.41 905.16,-63.47"/>
</g>
<!-- src/lib/interfaces/index.ts&#45;&gt;src/lib/interfaces/TerradrawModeClass.ts -->
<g id="edge43" class="edge">
<title>src/lib/interfaces/index.ts&#45;&gt;src/lib/interfaces/TerradrawModeClass.ts</title>
<path fill="none" stroke="#000000" stroke-width="2" stroke-opacity="0.200000" d="M698.59,-129.29C704.91,-131.99 712.12,-134.59 719,-136 749.54,-142.25 968.35,-138.87 999.5,-140 1001.45,-140.07 1003.43,-140.15 1005.43,-140.23"/>
<polygon fill="#000000" fill-opacity="0.200000" stroke="#000000" stroke-width="2" stroke-opacity="0.200000" points="1011.19,-142.59 1005.29,-140.23 1011.38,-138.4 1011.19,-142.59"/>
</g>
<!-- src/lib/interfaces/index.ts&#45;&gt;src/lib/interfaces/TerradrawMode.ts -->
<g id="edge42" class="edge">
<title>src/lib/interfaces/index.ts&#45;&gt;src/lib/interfaces/TerradrawMode.ts</title>
<path fill="none" stroke="#000000" stroke-width="2" stroke-opacity="0.200000" d="M682.33,-129.35C686.65,-144.45 697.5,-173.73 719,-186 776.41,-218.76 856.49,-207.25 903.25,-196.04"/>
<polygon fill="#000000" fill-opacity="0.200000" stroke="#000000" stroke-width="2" stroke-opacity="0.200000" points="909.71,-196.6 903.38,-196 908.7,-192.52 909.71,-196.6"/>
</g>
<!-- src/lib/controls/MaplibreTerradrawControl.ts&#45;&gt;src/lib/constants/index.ts -->
<g id="edge13" class="edge">
<title>src/lib/controls/MaplibreTerradrawControl.ts&#45;&gt;src/lib/constants/index.ts</title>
<path fill="none" stroke="#000000" stroke-width="2" stroke-opacity="0.200000" d="M373.15,-183.2C384.1,-202.2 412.14,-245.55 449.25,-264 486.55,-282.54 594.52,-276.25 636,-280 638.23,-280.2 640.53,-280.41 642.85,-280.63"/>
<polygon fill="#000000" fill-opacity="0.200000" stroke="#000000" stroke-width="2" stroke-opacity="0.200000" points="642.61,-282.71 648.78,-281.18 643,-278.53 642.61,-282.71"/>
</g>
<!-- src/lib/controls/MaplibreTerradrawControl.ts&#45;&gt;src/lib/helpers/index.ts -->
<g id="edge14" class="edge">
<title>src/lib/controls/MaplibreTerradrawControl.ts&#45;&gt;src/lib/helpers/index.ts</title>
<path fill="none" stroke="#000000" stroke-width="2" stroke-opacity="0.200000" d="M433.42,-171.16C438.43,-170.95 443.36,-170.73 448.06,-170.53"/>
<polygon fill="#000000" fill-opacity="0.200000" stroke="#000000" stroke-width="2" stroke-opacity="0.200000" points="447.83,-172.64 453.73,-170.28 447.65,-168.44 447.83,-172.64"/>
</g>
<!-- src/lib/controls/MaplibreTerradrawControl.ts&#45;&gt;src/lib/interfaces/index.ts -->
<g id="edge15" class="edge">
<title>src/lib/controls/MaplibreTerradrawControl.ts&#45;&gt;src/lib/interfaces/index.ts</title>
<path fill="none" stroke="#000000" stroke-opacity="0.200000" d="M390.43,-164.63C406.5,-158.29 428.84,-150.33 449.25,-146 530.74,-128.72 553.75,-143.24 636,-130 638.83,-129.54 641.76,-129 644.68,-128.41"/>
<polygon fill="none" stroke="#000000" stroke-opacity="0.200000" points="645.01,-130.49 650.43,-127.17 644.12,-126.38 645.01,-130.49"/>
</g>
<!-- src/lib/controls/index.ts -->
<g id="node14" class="node">
<title>src/lib/controls/index.ts</title>
<g id="a_node14"><a xlink:href="src/lib/controls/index.ts" xlink:title="index.ts">
<path fill="#ddfeff" stroke="black" d="M142.08,-168.88C142.08,-168.88 99.92,-168.88 99.92,-168.88 96.96,-168.88 94,-165.92 94,-162.96 94,-162.96 94,-157.04 94,-157.04 94,-154.08 96.96,-151.12 99.92,-151.12 99.92,-151.12 142.08,-151.12 142.08,-151.12 145.04,-151.12 148,-154.08 148,-157.04 148,-157.04 148,-162.96 148,-162.96 148,-165.92 145.04,-168.88 142.08,-168.88"/>
<text text-anchor="start" x="105.25" y="-156.32" font-family="Helvetica,sans-Serif" font-size="9.00">index.ts</text>
</a>
</g>
</g>
<!-- src/lib/controls/index.ts&#45;&gt;src/lib/controls/MaplibreMeasureControl.ts -->
<g id="edge16" class="edge">
<title>src/lib/controls/index.ts&#45;&gt;src/lib/controls/MaplibreMeasureControl.ts</title>
<path fill="none" stroke="#000000" stroke-width="2" stroke-opacity="0.200000" d="M148.4,-160C150.1,-160 151.84,-160 153.62,-160"/>
<polygon fill="#000000" fill-opacity="0.200000" stroke="#000000" stroke-width="2" stroke-opacity="0.200000" points="159.65,-162.1 153.65,-160 159.65,-157.9 159.65,-162.1"/>
</g>
<!-- src/lib/controls/index.ts&#45;&gt;src/lib/controls/MaplibreTerradrawControl.ts -->
<g id="edge17" class="edge">
<title>src/lib/controls/index.ts&#45;&gt;src/lib/controls/MaplibreTerradrawControl.ts</title>
<path fill="none" stroke="#000000" stroke-width="2" stroke-opacity="0.200000" d="M141.83,-169.24C147.85,-171.6 154.58,-173.81 161,-175 204.69,-183.11 254.52,-183.08 294.13,-180.91"/>
<polygon fill="#000000" fill-opacity="0.200000" stroke="#000000" stroke-width="2" stroke-opacity="0.200000" points="300.02,-182.67 293.91,-180.93 299.78,-178.48 300.02,-182.67"/>
</g>
<!-- src/lib/helpers/cleanMaplibreStyle.ts&#45;&gt;src/lib/constants/index.ts -->
<g id="edge18" class="edge">
<title>src/lib/helpers/cleanMaplibreStyle.ts&#45;&gt;src/lib/constants/index.ts</title>
<path fill="none" stroke="#000000" stroke-width="2" stroke-opacity="0.200000" d="M626.42,-205.25C629.82,-206.87 633.06,-208.77 636,-211 638.53,-212.92 657.03,-245.96 668.62,-266.93"/>
<polygon fill="#000000" fill-opacity="0.200000" stroke="#000000" stroke-width="2" stroke-opacity="0.200000" points="666.76,-267.9 671.49,-272.14 670.43,-265.87 666.76,-267.9"/>
</g>
<!-- src/lib/index.ts -->
<g id="node18" class="node">
<title>src/lib/index.ts</title>
<g id="a_node18"><a xlink:href="src/lib/index.ts" xlink:title="index.ts">
<path fill="#ddfeff" stroke="black" d="M72.08,-150.88C72.08,-150.88 29.92,-150.88 29.92,-150.88 26.96,-150.88 24,-147.92 24,-144.96 24,-144.96 24,-139.04 24,-139.04 24,-136.08 26.96,-133.12 29.92,-133.12 29.92,-133.12 72.08,-133.12 72.08,-133.12 75.04,-133.12 78,-136.08 78,-139.04 78,-139.04 78,-144.96 78,-144.96 78,-147.92 75.04,-150.88 72.08,-150.88"/>
<text text-anchor="start" x="35.25" y="-138.32" font-family="Helvetica,sans-Serif" font-size="9.00">index.ts</text>
</a>
</g>
</g>
<!-- src/lib/index.ts&#45;&gt;src/lib/constants/index.ts -->
<g id="edge22" class="edge">
<title>src/lib/index.ts&#45;&gt;src/lib/constants/index.ts</title>
<path fill="none" stroke="#000000" stroke-width="2" stroke-opacity="0.200000" d="M54.61,-151.11C59.09,-165.44 69.38,-193.51 86,-212 134.18,-265.62 151.42,-298 223.5,-298 223.5,-298 223.5,-298 485.25,-298 541.31,-298 606.31,-292.04 644.69,-287.89"/>
<polygon fill="#000000" fill-opacity="0.200000" stroke="#000000" stroke-width="2" stroke-opacity="0.200000" points="650.78,-289.34 644.58,-287.9 650.32,-285.16 650.78,-289.34"/>
</g>
<!-- src/lib/index.ts&#45;&gt;src/lib/helpers/index.ts -->
<g id="edge24" class="edge">
<title>src/lib/index.ts&#45;&gt;src/lib/helpers/index.ts</title>
<path fill="none" stroke="#000000" stroke-width="2" stroke-opacity="0.200000" d="M78.23,-138.36C155.5,-128.18 380.6,-102.52 441.25,-140 448.01,-144.18 443.36,-150.66 449.25,-156 449.81,-156.51 450.4,-157 451,-157.47"/>
<polygon fill="#000000" fill-opacity="0.200000" stroke="#000000" stroke-width="2" stroke-opacity="0.200000" points="454.86,-162.46 450.95,-157.44 457.14,-158.93 454.86,-162.46"/>
</g>
<!-- src/lib/index.ts&#45;&gt;src/lib/interfaces/index.ts -->
<g id="edge25" class="edge">
<title>src/lib/index.ts&#45;&gt;src/lib/interfaces/index.ts</title>
<path fill="none" stroke="#000000" stroke-width="2" stroke-opacity="0.200000" d="M70.35,-132.74C75.32,-130.55 80.78,-128.44 86,-127 145.36,-110.62 161.92,-110 223.5,-110 223.5,-110 223.5,-110 485.25,-110 541.24,-110 606.26,-114.26 644.67,-117.22"/>
<polygon fill="#000000" fill-opacity="0.200000" stroke="#000000" stroke-width="2" stroke-opacity="0.200000" points="650.36,-119.77 644.54,-117.21 650.69,-115.58 650.36,-119.77"/>
</g>
<!-- src/lib/index.ts&#45;&gt;src/lib/controls/index.ts -->
<g id="edge23" class="edge">
<title>src/lib/index.ts&#45;&gt;src/lib/controls/index.ts</title>
<path fill="none" stroke="#000000" stroke-width="2" stroke-opacity="0.200000" d="M78.49,-149.01C81.34,-149.77 84.27,-150.54 87.18,-151.31"/>
<polygon fill="#000000" fill-opacity="0.200000" stroke="#000000" stroke-width="2" stroke-opacity="0.200000" points="92.42,-154.87 87.16,-151.31 93.49,-150.81 92.42,-154.87"/>
</g>
<!-- src/lib/interfaces/MeasureControlMode.ts&#45;&gt;src/lib/constants/AvailableMeasureModes.ts -->
<g id="edge26" class="edge">
<title>src/lib/interfaces/MeasureControlMode.ts&#45;&gt;src/lib/constants/AvailableMeasureModes.ts</title>
<path fill="none" stroke="#000000" stroke-opacity="0.200000" d="M897.9,-80.32C893,-83.03 888.58,-86.51 885.25,-91 874.06,-106.1 889.63,-245.85 877.25,-260 873.64,-264.12 869.31,-267.36 864.54,-269.87"/>
<polygon fill="none" stroke="#000000" stroke-opacity="0.200000" points="863.81,-267.9 859.18,-272.26 865.52,-271.74 863.81,-267.9"/>
</g>
<!-- src/lib/interfaces/TerradrawMode.ts&#45;&gt;src/lib/constants/AvailableModes.ts -->
<g id="edge34" class="edge">
<title>src/lib/interfaces/TerradrawMode.ts&#45;&gt;src/lib/constants/AvailableModes.ts</title>
<path fill="none" stroke="#000000" stroke-width="2" stroke-opacity="0.200000" d="M939.91,-194.35C935.49,-219.23 919.88,-287.32 877.25,-320 868.98,-326.34 858.88,-330.3 848.63,-332.72"/>
<polygon fill="#000000" fill-opacity="0.200000" stroke="#000000" stroke-width="2" stroke-opacity="0.200000" points="848.48,-330.61 842.99,-333.82 849.29,-334.73 848.48,-330.61"/>
</g>
</g>
</svg>
