<?xml version="1.0" encoding="UTF-8" standalone="no"?>
<svg 
   height="24px" 
   viewBox="0 -960 960 960" 
   width="24px" 
   fill="#5f6368" 
   version="1.1" 
   xmlns="http://www.w3.org/2000/svg" 
   xmlns:svg="http://www.w3.org/2000/svg">
<path 
     d="m 175.44945,-140.58995 q -51.7845,-40.91901 -59.52204,-106.93515 -7.73754,-66.01614 33.18147,-117.80063 40.91901,-51.7845 106.93515,-59.52205 66.01614,-7.73754 117.80064,33.18147 51.7845,40.91902 59.52204,106.93516 7.73754,66.01613 -33.18147,117.80063 -40.91902,51.7845 -106.93515,59.52204 -66.01614,7.737553 -117.80064,-33.18147 z m 49.5988,-62.76909 q 25.89225,20.45951 58.90032,16.59074 33.00807,-3.86877 53.46758,-29.76102 20.45951,-25.89225 16.59073,-58.90032 -3.86877,-33.00807 -29.76102,-53.46758 -25.89225,-20.4595 -58.90031,-16.59073 -33.00807,3.86877 -53.46758,29.76102 -20.45951,25.89225 -16.59074,58.90032 3.86878,33.00807 29.76102,53.46757 z m -22.97789,-548.35391 -12.19302,-79.73287 q 112.53252,-11.76569 224.3855,19.2651 111.85299,31.03079 207.57585,106.66897 95.72286,75.63817 151.77719,177.28419 56.05433,101.64601 70.62921,213.84928 l -80.39138,6.57463 q -14.16857,-96.58805 -61.69898,-183.21432 -47.53041,-86.62626 -129.91484,-151.72469 -82.38443,-65.09843 -177.6537,-91.30945 -95.26926,-26.21102 -192.51583,-17.66084 z m 362.29181,460.88355 q -9.39434,-55.85469 -38.43379,-106.20308 -29.03946,-50.34839 -77.68551,-88.78746 -48.64604,-38.43907 -103.95255,-54.73908 -55.3065,-16.30001 -112.60432,-13.14405 l -12.19303,-79.73287 q 73.36839,-5.75148 145.25862,15.3683 71.89023,21.11978 133.09009,69.47861 61.19986,48.35884 97.97862,113.10699 36.77876,64.74815 48.14864,137.45802 z m -289.71511,24.70127 z" 
     id="path185" />
</svg>